{"glyphs":{"0":{"ha":981,"x_min":81,"x_max":900,"o":"m 490 -19 q 276 44 368 -19 q 132 225 183 108 q 81 494 81 342 q 132 753 81 640 q 276 929 183 867 q 490 992 369 992 q 706 928 613 992 q 849 753 799 865 q 900 494 900 640 q 849 225 900 342 q 706 44 799 108 q 490 -19 613 -19 m 490 140 q 659 228 596 140 q 722 494 722 315 q 658 748 722 661 q 490 835 594 835 q 322 748 386 835 q 258 494 258 661 q 322 228 258 317 q 490 140 385 140 z "},"1":{"ha":513,"x_min":63,"x_max":378,"o":"m 200 721 q 78 671 142 682 l 63 821 q 165 877 108 831 q 242 972 222 924 l 378 972 l 378 0 l 200 0 l 200 721 z "},"2":{"ha":735,"x_min":61,"x_max":664,"o":"m 317 393 q 427 579 397 517 q 457 697 457 642 q 423 791 457 757 q 329 825 389 825 q 206 793 263 825 q 94 707 149 761 l 72 886 q 208 965 138 939 q 365 992 279 992 q 510 956 450 992 q 599 861 569 921 q 629 729 629 801 q 594 561 629 647 q 469 340 558 475 l 356 167 l 664 167 l 664 0 l 61 0 l 317 393 z "},"3":{"ha":749,"x_min":47,"x_max":667,"o":"m 493 514 q 620 426 574 488 q 667 276 667 365 q 573 58 667 136 q 321 -19 479 -19 q 169 -1 240 -19 q 47 43 97 17 l 90 193 q 321 133 210 133 q 444 169 399 133 q 489 276 489 206 q 310 424 489 424 l 211 424 l 211 590 l 308 590 q 423 624 383 590 q 463 721 463 658 q 426 807 463 775 q 321 839 389 839 q 213 822 265 839 q 106 774 161 806 l 79 931 q 339 992 196 992 q 555 923 478 992 q 632 743 632 854 q 596 605 632 664 q 493 514 560 546 z "},"4":{"ha":863,"x_min":10,"x_max":790,"o":"m 790 367 l 790 222 l 665 222 l 665 0 l 494 0 l 494 222 l 10 222 l 544 972 l 665 972 l 665 367 l 790 367 m 494 367 l 494 665 l 285 367 l 494 367 z "},"5":{"ha":746,"x_min":68,"x_max":676,"o":"m 361 611 q 590 528 503 611 q 676 303 676 446 q 633 132 676 204 q 512 21 589 60 q 335 -18 435 -18 q 68 60 182 -18 l 110 221 q 218 167 165 186 q 332 149 271 149 q 458 190 411 149 q 504 303 504 232 q 451 422 504 379 q 299 465 397 465 q 117 446 221 465 l 179 972 l 638 972 l 626 800 l 313 800 l 289 607 q 361 611 322 611 z "},"6":{"ha":781,"x_min":67,"x_max":722,"o":"m 438 585 q 583 547 518 585 q 685 443 649 510 q 722 292 722 376 q 683 129 722 200 q 572 19 644 58 q 403 -19 500 -19 q 226 26 303 -19 q 108 153 150 71 q 67 343 67 235 q 133 619 67 490 q 302 843 200 749 q 511 992 404 938 l 635 894 q 424 751 533 844 q 263 538 314 657 q 438 585 335 585 m 406 128 q 517 173 472 128 q 561 285 561 218 q 517 394 561 350 q 406 438 472 438 q 294 394 338 438 q 250 285 250 350 q 294 173 250 218 q 406 128 339 128 z "},"7":{"ha":708,"x_min":60,"x_max":699,"o":"m 699 972 l 293 0 l 107 0 l 443 806 l 60 806 l 60 972 l 699 972 z "},"8":{"ha":839,"x_min":78,"x_max":761,"o":"m 614 529 q 722 426 683 492 q 761 279 761 361 q 719 124 761 192 q 600 18 678 56 q 419 -19 522 -19 q 238 18 315 -19 q 119 124 161 56 q 78 279 78 192 q 117 427 78 363 q 228 529 157 492 q 150 616 178 564 q 122 729 122 668 q 154 857 122 797 q 253 954 186 917 q 419 992 319 992 q 585 954 519 992 q 681 857 650 917 q 711 729 711 797 q 686 615 711 667 q 614 529 661 564 m 419 853 q 315 819 353 853 q 278 728 278 785 q 316 638 278 674 q 419 601 354 601 q 520 638 485 601 q 556 728 556 674 q 520 819 556 785 q 419 853 485 853 m 419 133 q 550 176 503 133 q 597 290 597 218 q 549 401 597 358 q 419 444 501 444 q 290 401 338 444 q 242 290 242 358 q 289 176 242 218 q 419 133 336 133 z "},"9":{"ha":781,"x_min":67,"x_max":722,"o":"m 386 992 q 563 947 486 992 q 681 819 639 901 q 722 629 722 738 q 658 362 722 488 q 494 144 593 236 q 292 0 396 53 l 168 97 q 369 233 264 144 q 525 433 474 322 q 351 388 456 388 q 206 425 271 388 q 103 529 140 463 q 67 681 67 596 q 106 843 67 772 q 217 953 144 914 q 386 992 289 992 m 383 540 q 493 582 450 540 q 536 688 536 624 q 493 795 536 751 q 383 839 450 839 q 274 795 318 839 q 231 688 231 751 q 274 582 231 624 q 383 540 318 540 z "},"\r":{"ha":313,"x_min":0,"x_max":0,"o":""}," ":{"ha":313,"x_min":0,"x_max":0,"o":""},"A":{"ha":868,"x_min":4,"x_max":864,"o":"m 611 231 l 257 231 l 176 0 l 4 0 l 350 972 l 518 972 l 864 0 l 692 0 l 611 231 m 556 386 l 435 733 l 313 386 l 556 386 z "},"Á":{"ha":868,"x_min":4,"x_max":864,"o":"m 611 231 l 257 231 l 176 0 l 4 0 l 350 972 l 518 972 l 864 0 l 692 0 l 611 231 m 556 386 l 435 733 l 313 386 l 556 386 m 299 1150 l 572 1282 l 572 1135 l 299 1054 l 299 1150 z "},"Ă":{"ha":868,"x_min":4,"x_max":864,"o":"m 611 231 l 257 231 l 176 0 l 4 0 l 350 972 l 518 972 l 864 0 l 692 0 l 611 231 m 556 386 l 435 733 l 313 386 l 556 386 m 435 1063 q 322 1087 371 1063 q 247 1153 274 1111 q 221 1246 221 1196 l 339 1246 q 365 1181 339 1204 q 435 1157 390 1157 q 505 1181 479 1157 q 531 1246 531 1204 l 649 1246 q 590 1115 649 1168 q 435 1063 532 1063 z "},"Ắ":{"ha":868,"x_min":4,"x_max":864,"o":"m 611 231 l 257 231 l 176 0 l 4 0 l 350 972 l 518 972 l 864 0 l 692 0 l 611 231 m 556 386 l 435 733 l 313 386 l 556 386 m 435 1063 q 322 1087 371 1063 q 247 1153 274 1111 q 221 1246 221 1196 l 339 1246 q 365 1181 339 1204 q 435 1157 390 1157 q 505 1181 479 1157 q 531 1246 531 1204 l 649 1246 q 590 1115 649 1168 q 435 1063 532 1063 m 299 1406 l 572 1538 l 572 1390 l 299 1310 l 299 1406 z "},"Ặ":{"ha":868,"x_min":4,"x_max":864,"o":"m 611 231 l 257 231 l 176 0 l 4 0 l 350 972 l 518 972 l 864 0 l 692 0 l 611 231 m 556 386 l 435 733 l 313 386 l 556 386 m 435 1093 q 322 1119 371 1093 q 247 1189 274 1144 q 221 1286 221 1233 l 339 1286 q 365 1221 339 1244 q 435 1197 390 1197 q 505 1221 479 1197 q 531 1286 531 1244 l 649 1286 q 590 1149 649 1204 q 435 1093 532 1093 m 363 -112 l 507 -112 l 507 -247 l 363 -247 l 363 -112 z "},"Ằ":{"ha":868,"x_min":4,"x_max":864,"o":"m 611 231 l 257 231 l 176 0 l 4 0 l 350 972 l 518 972 l 864 0 l 692 0 l 611 231 m 556 386 l 435 733 l 313 386 l 556 386 m 435 1063 q 322 1087 371 1063 q 247 1153 274 1111 q 221 1246 221 1196 l 339 1246 q 365 1181 339 1204 q 435 1157 390 1157 q 505 1181 479 1157 q 531 1246 531 1204 l 649 1246 q 590 1115 649 1168 q 435 1063 532 1063 m 297 1390 l 297 1538 l 571 1406 l 571 1310 l 297 1390 z "},"Ẳ":{"ha":868,"x_min":4,"x_max":864,"o":"m 611 231 l 257 231 l 176 0 l 4 0 l 350 972 l 518 972 l 864 0 l 692 0 l 611 231 m 556 386 l 435 733 l 313 386 l 556 386 m 435 1063 q 322 1087 371 1063 q 247 1153 274 1111 q 221 1246 221 1196 l 339 1246 q 365 1181 339 1204 q 435 1157 390 1157 q 505 1181 479 1157 q 531 1246 531 1204 l 649 1246 q 590 1115 649 1168 q 435 1063 532 1063 m 426 1328 q 465 1345 453 1335 q 478 1375 478 1356 q 426 1414 478 1414 q 342 1388 390 1414 l 318 1472 q 429 1499 371 1499 q 528 1468 489 1499 q 567 1383 567 1438 q 537 1308 567 1336 q 442 1267 507 1279 l 426 1328 z "},"Ẵ":{"ha":868,"x_min":4,"x_max":864,"o":"m 611 231 l 257 231 l 176 0 l 4 0 l 350 972 l 518 972 l 864 0 l 692 0 l 611 231 m 556 386 l 435 733 l 313 386 l 556 386 m 435 1063 q 322 1087 371 1063 q 247 1153 274 1111 q 221 1246 221 1196 l 339 1246 q 365 1181 339 1204 q 435 1157 390 1157 q 505 1181 479 1157 q 531 1246 531 1204 l 649 1246 q 590 1115 649 1168 q 435 1063 532 1063 m 556 1314 q 510 1322 533 1314 q 449 1346 488 1329 q 412 1360 442 1349 q 361 1372 382 1372 q 315 1324 315 1372 l 210 1324 q 314 1469 210 1469 q 359 1462 336 1469 q 421 1438 382 1454 q 458 1423 428 1435 q 508 1411 488 1411 q 554 1460 554 1411 l 660 1460 q 556 1314 660 1314 z "},"Â":{"ha":868,"x_min":4,"x_max":864,"o":"m 611 231 l 257 231 l 176 0 l 4 0 l 350 972 l 518 972 l 864 0 l 692 0 l 611 231 m 556 386 l 435 733 l 313 386 l 556 386 m 618 1138 l 618 1035 l 435 1135 l 251 1035 l 251 1138 l 435 1265 l 618 1138 z "},"Ấ":{"ha":868,"x_min":4,"x_max":864,"o":"m 611 231 l 257 231 l 176 0 l 4 0 l 350 972 l 518 972 l 864 0 l 692 0 l 611 231 m 556 386 l 435 733 l 313 386 l 556 386 m 632 1435 l 792 1435 l 650 1258 l 540 1258 l 632 1435 m 618 1151 l 618 1049 l 435 1149 l 251 1049 l 251 1151 l 435 1279 l 618 1151 z "},"Ậ":{"ha":868,"x_min":4,"x_max":864,"o":"m 611 231 l 257 231 l 176 0 l 4 0 l 350 972 l 518 972 l 864 0 l 692 0 l 611 231 m 556 386 l 435 733 l 313 386 l 556 386 m 251 1157 l 435 1313 l 618 1157 l 618 1047 l 435 1163 l 251 1047 l 251 1157 m 363 -112 l 507 -112 l 507 -247 l 363 -247 l 363 -112 z "},"Ầ":{"ha":868,"x_min":4,"x_max":864,"o":"m 611 231 l 257 231 l 176 0 l 4 0 l 350 972 l 518 972 l 864 0 l 692 0 l 611 231 m 556 386 l 435 733 l 313 386 l 556 386 m 571 1258 l 457 1435 l 606 1435 l 676 1258 l 571 1258 m 618 1151 l 618 1049 l 435 1149 l 251 1049 l 251 1151 l 435 1279 l 618 1151 z "},"Ẩ":{"ha":868,"x_min":4,"x_max":864,"o":"m 611 231 l 257 231 l 176 0 l 4 0 l 350 972 l 518 972 l 864 0 l 692 0 l 611 231 m 556 386 l 435 733 l 313 386 l 556 386 m 618 1138 l 618 1035 l 435 1135 l 251 1035 l 251 1138 l 435 1265 l 618 1138 m 553 1272 q 592 1290 579 1279 q 604 1319 604 1300 q 553 1358 604 1358 q 468 1332 517 1358 l 444 1417 q 556 1443 497 1443 q 654 1413 615 1443 q 693 1328 693 1382 q 663 1252 693 1281 q 568 1211 633 1224 l 553 1272 z "},"Ẫ":{"ha":868,"x_min":4,"x_max":864,"o":"m 611 231 l 257 231 l 176 0 l 4 0 l 350 972 l 518 972 l 864 0 l 692 0 l 611 231 m 556 386 l 435 733 l 313 386 l 556 386 m 618 1138 l 618 1035 l 435 1135 l 251 1035 l 251 1138 l 435 1265 l 618 1138 m 556 1315 q 510 1323 533 1315 q 449 1347 488 1331 q 412 1362 442 1350 q 361 1374 382 1374 q 315 1325 315 1374 l 210 1325 q 314 1471 210 1471 q 359 1463 336 1471 q 421 1439 382 1456 q 458 1424 428 1436 q 508 1413 488 1413 q 554 1461 554 1413 l 660 1461 q 556 1315 660 1315 z "},"Ȁ":{"ha":868,"x_min":4,"x_max":864,"o":"m 611 231 l 257 231 l 176 0 l 4 0 l 350 972 l 518 972 l 864 0 l 692 0 l 611 231 m 556 386 l 435 733 l 313 386 l 556 386 m 275 1094 l 136 1313 l 296 1313 l 385 1094 l 275 1094 m 479 1094 l 351 1313 l 511 1313 l 589 1094 l 479 1094 z "},"Ä":{"ha":868,"x_min":4,"x_max":864,"o":"m 611 231 l 257 231 l 176 0 l 4 0 l 350 972 l 518 972 l 864 0 l 692 0 l 611 231 m 556 386 l 435 733 l 313 386 l 556 386 m 228 1207 l 361 1207 l 361 1088 l 228 1088 l 228 1207 m 508 1207 l 642 1207 l 642 1088 l 508 1088 l 508 1207 z "},"Ạ":{"ha":868,"x_min":4,"x_max":864,"o":"m 611 231 l 257 231 l 176 0 l 4 0 l 350 972 l 518 972 l 864 0 l 692 0 l 611 231 m 556 386 l 435 733 l 313 386 l 556 386 m 363 -112 l 507 -112 l 507 -247 l 363 -247 l 363 -112 z "},"À":{"ha":868,"x_min":4,"x_max":864,"o":"m 611 231 l 257 231 l 176 0 l 4 0 l 350 972 l 518 972 l 864 0 l 692 0 l 611 231 m 556 386 l 435 733 l 313 386 l 556 386 m 297 1135 l 297 1282 l 571 1150 l 571 1054 l 297 1135 z "},"Ả":{"ha":868,"x_min":4,"x_max":864,"o":"m 611 231 l 257 231 l 176 0 l 4 0 l 350 972 l 518 972 l 864 0 l 692 0 l 611 231 m 556 386 l 435 733 l 313 386 l 556 386 m 413 1117 q 451 1134 439 1124 q 464 1164 464 1144 q 413 1203 464 1203 q 328 1176 376 1203 l 304 1261 q 415 1288 357 1288 q 514 1257 475 1288 q 553 1172 553 1226 q 523 1097 553 1125 q 428 1056 493 1068 l 413 1117 z "},"Ȃ":{"ha":868,"x_min":4,"x_max":864,"o":"m 611 231 l 257 231 l 176 0 l 4 0 l 350 972 l 518 972 l 864 0 l 692 0 l 611 231 m 556 386 l 435 733 l 313 386 l 556 386 m 435 1267 q 590 1214 532 1267 q 649 1083 649 1161 l 531 1083 q 505 1149 531 1125 q 435 1172 479 1172 q 365 1149 390 1172 q 339 1083 339 1125 l 221 1083 q 247 1176 221 1133 q 322 1242 274 1218 q 435 1267 371 1267 z "},"Ā":{"ha":868,"x_min":4,"x_max":864,"o":"m 611 231 l 257 231 l 176 0 l 4 0 l 350 972 l 518 972 l 864 0 l 692 0 l 611 231 m 556 386 l 435 733 l 313 386 l 556 386 m 207 1207 l 663 1207 l 663 1101 l 207 1101 l 207 1207 z "},"Ą":{"ha":868,"x_min":4,"x_max":885,"o":"m 611 231 l 257 231 l 176 0 l 4 0 l 350 972 l 518 972 l 864 0 l 692 0 l 611 231 m 556 386 l 435 733 l 313 386 l 556 386 m 818 0 q 738 -75 765 -40 q 711 -144 711 -110 q 729 -192 711 -176 q 778 -208 747 -208 q 861 -189 819 -208 l 885 -265 q 764 -293 832 -293 q 662 -261 701 -293 q 622 -171 622 -229 q 654 -76 622 -121 q 732 0 686 -32 l 818 0 z "},"Å":{"ha":868,"x_min":4,"x_max":864,"o":"m 611 231 l 257 231 l 176 0 l 4 0 l 350 972 l 518 972 l 864 0 l 692 0 l 611 231 m 556 386 l 435 733 l 313 386 l 556 386 m 435 1047 q 328 1086 368 1047 q 288 1182 288 1125 q 328 1278 288 1239 q 435 1318 369 1318 q 542 1278 501 1318 q 582 1182 582 1239 q 542 1086 582 1125 q 435 1047 501 1047 m 435 1119 q 481 1137 463 1119 q 499 1182 499 1154 q 481 1226 499 1208 q 435 1244 463 1244 q 389 1226 407 1244 q 371 1182 371 1208 q 389 1137 371 1154 q 435 1119 407 1119 z "},"Ǻ":{"ha":868,"x_min":4,"x_max":864,"o":"m 611 231 l 257 231 l 176 0 l 4 0 l 350 972 l 518 972 l 864 0 l 692 0 l 611 231 m 556 386 l 435 733 l 313 386 l 556 386 m 435 1047 q 328 1086 368 1047 q 288 1182 288 1125 q 328 1278 288 1239 q 435 1318 369 1318 q 542 1278 501 1318 q 582 1182 582 1239 q 542 1086 582 1125 q 435 1047 501 1047 m 435 1119 q 481 1137 463 1119 q 499 1182 499 1154 q 481 1226 499 1208 q 435 1244 463 1244 q 389 1226 407 1244 q 371 1182 371 1208 q 389 1137 371 1154 q 435 1119 407 1119 m 299 1450 l 572 1582 l 572 1435 l 299 1354 l 299 1450 z "},"Ã":{"ha":868,"x_min":4,"x_max":864,"o":"m 611 231 l 257 231 l 176 0 l 4 0 l 350 972 l 518 972 l 864 0 l 692 0 l 611 231 m 556 386 l 435 733 l 313 386 l 556 386 m 556 1079 q 510 1087 533 1079 q 449 1111 488 1094 q 412 1126 442 1114 q 361 1138 382 1138 q 315 1089 315 1138 l 210 1089 q 314 1235 210 1235 q 359 1227 336 1235 q 421 1203 382 1219 q 458 1188 428 1200 q 508 1176 488 1176 q 554 1225 554 1176 l 660 1225 q 556 1079 660 1079 z "},"Æ":{"ha":1203,"x_min":-15,"x_max":1157,"o":"m 458 972 l 1144 972 l 1144 800 l 733 800 l 733 593 l 1050 593 l 1050 421 l 733 421 l 733 172 l 1157 172 l 1157 0 l 551 0 l 551 235 l 282 235 l 169 0 l -15 0 l 458 972 m 551 407 l 551 796 l 364 407 l 551 407 z "},"Ǽ":{"ha":1203,"x_min":-15,"x_max":1157,"o":"m 458 972 l 1144 972 l 1144 800 l 733 800 l 733 593 l 1050 593 l 1050 421 l 733 421 l 733 172 l 1157 172 l 1157 0 l 551 0 l 551 235 l 282 235 l 169 0 l -15 0 l 458 972 m 551 407 l 551 796 l 364 407 l 551 407 m 665 1150 l 939 1282 l 939 1135 l 665 1054 l 665 1150 z "},"B":{"ha":869,"x_min":107,"x_max":829,"o":"m 644 532 q 829 276 829 472 q 744 73 829 146 q 513 0 660 0 l 107 0 l 107 972 l 474 972 q 751 738 751 972 q 644 532 751 593 m 285 590 l 447 590 q 544 617 513 590 q 576 701 576 644 q 544 788 576 761 q 447 814 513 814 l 285 814 l 285 590 m 486 158 q 605 190 564 158 q 646 296 646 221 q 603 401 646 369 q 486 432 561 432 l 285 432 l 285 158 l 486 158 z "},"C":{"ha":846,"x_min":49,"x_max":804,"o":"m 547 -19 q 287 43 400 -19 q 111 220 174 106 q 49 486 49 335 q 113 751 49 636 q 292 928 178 865 q 553 992 407 992 q 804 935 693 992 l 785 765 q 670 806 725 792 q 551 821 615 821 q 323 729 403 821 q 243 486 243 638 q 322 243 243 335 q 547 151 400 151 q 667 165 613 151 q 785 207 722 179 l 804 38 q 547 -19 683 -19 z "},"Ć":{"ha":846,"x_min":49,"x_max":804,"o":"m 547 -19 q 287 43 400 -19 q 111 220 174 106 q 49 486 49 335 q 113 751 49 636 q 292 928 178 865 q 553 992 407 992 q 804 935 693 992 l 785 765 q 670 806 725 792 q 551 821 615 821 q 323 729 403 821 q 243 486 243 638 q 322 243 243 335 q 547 151 400 151 q 667 165 613 151 q 785 207 722 179 l 804 38 q 547 -19 683 -19 m 382 1150 l 656 1282 l 656 1135 l 382 1054 l 382 1150 z "},"Č":{"ha":846,"x_min":49,"x_max":804,"o":"m 547 -19 q 287 43 400 -19 q 111 220 174 106 q 49 486 49 335 q 113 751 49 636 q 292 928 178 865 q 553 992 407 992 q 804 935 693 992 l 785 765 q 670 806 725 792 q 551 821 615 821 q 323 729 403 821 q 243 486 243 638 q 322 243 243 335 q 547 151 400 151 q 667 165 613 151 q 785 207 722 179 l 804 38 q 547 -19 683 -19 m 335 1203 l 335 1306 l 518 1206 l 701 1306 l 701 1203 l 518 1075 l 335 1203 z "},"Ç":{"ha":846,"x_min":49,"x_max":804,"o":"m 804 38 q 556 -19 685 -18 l 539 -75 l 542 -75 q 638 -107 603 -75 q 672 -196 672 -139 q 628 -297 672 -261 q 515 -332 583 -332 q 401 -306 451 -332 l 428 -224 q 518 -247 478 -247 q 566 -235 549 -247 q 583 -201 583 -224 q 513 -153 583 -153 q 446 -162 481 -153 l 481 -15 q 253 64 351 -1 q 102 238 156 129 q 49 486 49 347 q 113 751 49 636 q 292 928 178 865 q 553 992 407 992 q 804 935 693 992 l 785 765 q 670 806 725 792 q 551 821 615 821 q 323 729 403 821 q 243 486 243 638 q 322 243 243 335 q 547 151 400 151 q 667 165 613 151 q 785 207 722 179 l 804 38 z "},"Ḉ":{"ha":846,"x_min":49,"x_max":804,"o":"m 656 1135 l 382 1054 l 382 1150 l 656 1282 l 656 1135 m 804 38 q 556 -19 685 -18 l 539 -75 l 542 -75 q 638 -107 603 -75 q 672 -196 672 -139 q 628 -297 672 -261 q 515 -332 583 -332 q 401 -306 451 -332 l 428 -224 q 518 -247 478 -247 q 566 -235 549 -247 q 583 -201 583 -224 q 513 -153 583 -153 q 446 -162 481 -153 l 481 -15 q 253 64 351 -1 q 102 238 156 129 q 49 486 49 347 q 113 751 49 636 q 292 928 178 865 q 553 992 407 992 q 804 935 693 992 l 785 765 q 670 806 725 792 q 551 821 615 821 q 323 729 403 821 q 243 486 243 638 q 322 243 243 335 q 547 151 400 151 q 667 165 613 151 q 785 207 722 179 l 804 38 z "},"Ĉ":{"ha":846,"x_min":49,"x_max":804,"o":"m 547 -19 q 287 43 400 -19 q 111 220 174 106 q 49 486 49 335 q 113 751 49 636 q 292 928 178 865 q 553 992 407 992 q 804 935 693 992 l 785 765 q 670 806 725 792 q 551 821 615 821 q 323 729 403 821 q 243 486 243 638 q 322 243 243 335 q 547 151 400 151 q 667 165 613 151 q 785 207 722 179 l 804 38 q 547 -19 683 -19 m 701 1138 l 701 1035 l 518 1135 l 335 1035 l 335 1138 l 518 1265 l 701 1138 z "},"Ċ":{"ha":846,"x_min":49,"x_max":804,"o":"m 547 -19 q 287 43 400 -19 q 111 220 174 106 q 49 486 49 335 q 113 751 49 636 q 292 928 178 865 q 553 992 407 992 q 804 935 693 992 l 785 765 q 670 806 725 792 q 551 821 615 821 q 323 729 403 821 q 243 486 243 638 q 322 243 243 335 q 547 151 400 151 q 667 165 613 151 q 785 207 722 179 l 804 38 q 547 -19 683 -19 m 446 1235 l 590 1235 l 590 1100 l 446 1100 l 446 1235 z "},"D":{"ha":1000,"x_min":107,"x_max":950,"o":"m 107 972 l 471 972 q 719 914 610 972 q 889 746 828 856 q 950 486 950 636 q 889 226 950 336 q 719 58 828 117 q 471 0 610 0 l 107 0 l 107 972 m 471 158 q 683 245 610 158 q 756 486 756 332 q 683 727 756 640 q 471 814 610 814 l 285 814 l 285 158 l 471 158 z "},"Ǆ":{"ha":1739,"x_min":107,"x_max":1729,"o":"m 107 972 l 471 972 q 719 914 610 972 q 889 746 828 856 q 950 486 950 636 q 889 226 950 336 q 719 58 828 117 q 471 0 610 0 l 107 0 l 107 972 m 471 158 q 683 245 610 158 q 756 486 756 332 q 683 727 756 640 q 471 814 610 814 l 285 814 l 285 158 l 471 158 m 1264 158 l 1722 158 l 1722 0 l 989 0 l 1454 814 l 1051 814 l 1051 972 l 1729 972 l 1264 158 m 1207 1203 l 1207 1306 l 1390 1206 l 1574 1306 l 1574 1203 l 1390 1075 l 1207 1203 z "},"Ð":{"ha":1015,"x_min":32,"x_max":965,"o":"m 122 429 l 32 429 l 32 560 l 122 560 l 122 972 l 486 972 q 734 914 625 972 q 904 746 843 856 q 965 486 965 636 q 904 226 965 336 q 734 58 843 117 q 486 0 625 0 l 122 0 l 122 429 m 486 171 q 698 254 625 171 q 771 486 771 338 q 698 718 771 635 q 486 801 625 801 l 300 801 l 300 560 l 469 560 l 469 429 l 300 429 l 300 171 l 486 171 z "},"Ď":{"ha":1000,"x_min":107,"x_max":950,"o":"m 107 972 l 471 972 q 719 914 610 972 q 889 746 828 856 q 950 486 950 636 q 889 226 950 336 q 719 58 828 117 q 471 0 610 0 l 107 0 l 107 972 m 471 158 q 683 245 610 158 q 756 486 756 332 q 683 727 756 640 q 471 814 610 814 l 285 814 l 285 158 l 471 158 m 317 1203 l 317 1306 l 500 1206 l 683 1306 l 683 1203 l 500 1075 l 317 1203 z "},"Đ":{"ha":1015,"x_min":32,"x_max":965,"o":"m 122 429 l 32 429 l 32 560 l 122 560 l 122 972 l 486 972 q 734 914 625 972 q 904 746 843 856 q 965 486 965 636 q 904 226 965 336 q 734 58 843 117 q 486 0 625 0 l 122 0 l 122 429 m 486 171 q 698 254 625 171 q 771 486 771 338 q 698 718 771 635 q 486 801 625 801 l 300 801 l 300 560 l 469 560 l 469 429 l 300 429 l 300 171 l 486 171 z "},"Ḍ":{"ha":1000,"x_min":107,"x_max":950,"o":"m 107 972 l 471 972 q 719 914 610 972 q 889 746 828 856 q 950 486 950 636 q 889 226 950 336 q 719 58 828 117 q 471 0 610 0 l 107 0 l 107 972 m 471 158 q 683 245 610 158 q 756 486 756 332 q 683 727 756 640 q 471 814 610 814 l 285 814 l 285 158 l 471 158 m 428 -112 l 572 -112 l 572 -247 l 428 -247 l 428 -112 z "},"Ḏ":{"ha":1000,"x_min":107,"x_max":950,"o":"m 107 972 l 471 972 q 719 914 610 972 q 889 746 828 856 q 950 486 950 636 q 889 226 950 336 q 719 58 828 117 q 471 0 610 0 l 107 0 l 107 972 m 471 158 q 683 245 610 158 q 756 486 756 332 q 683 727 756 640 q 471 814 610 814 l 285 814 l 285 158 l 471 158 m 272 -126 l 728 -126 l 728 -239 l 272 -239 l 272 -126 z "},"ǅ":{"ha":1647,"x_min":107,"x_max":1626,"o":"m 107 972 l 471 972 q 719 914 610 972 q 889 746 828 856 q 950 486 950 636 q 889 226 950 336 q 719 58 828 117 q 471 0 610 0 l 107 0 l 107 972 m 471 158 q 683 245 610 158 q 756 486 756 332 q 683 727 756 640 q 471 814 610 814 l 285 814 l 285 158 l 471 158 m 1626 146 l 1626 0 l 1017 0 l 1354 549 l 1049 549 l 1049 694 l 1624 694 l 1286 146 l 1626 146 m 1144 932 l 1144 1042 l 1328 926 l 1511 1042 l 1511 932 l 1328 776 l 1144 932 z "},"E":{"ha":789,"x_min":107,"x_max":743,"o":"m 107 972 l 729 972 l 729 800 l 289 800 l 289 593 l 631 593 l 631 421 l 289 421 l 289 172 l 743 172 l 743 0 l 107 0 l 107 972 z "},"É":{"ha":789,"x_min":107,"x_max":743,"o":"m 107 972 l 729 972 l 729 800 l 289 800 l 289 593 l 631 593 l 631 421 l 289 421 l 289 172 l 743 172 l 743 0 l 107 0 l 107 972 m 296 1150 l 569 1282 l 569 1135 l 296 1054 l 296 1150 z "},"Ĕ":{"ha":789,"x_min":107,"x_max":743,"o":"m 107 972 l 729 972 l 729 800 l 289 800 l 289 593 l 631 593 l 631 421 l 289 421 l 289 172 l 743 172 l 743 0 l 107 0 l 107 972 m 432 1093 q 319 1119 368 1093 q 244 1189 271 1144 q 218 1286 218 1233 l 336 1286 q 362 1221 336 1244 q 432 1197 388 1197 q 502 1221 476 1197 q 528 1286 528 1244 l 646 1286 q 588 1149 646 1204 q 432 1093 529 1093 z "},"Ě":{"ha":789,"x_min":107,"x_max":743,"o":"m 107 972 l 729 972 l 729 800 l 289 800 l 289 593 l 631 593 l 631 421 l 289 421 l 289 172 l 743 172 l 743 0 l 107 0 l 107 972 m 249 1210 l 249 1319 l 432 1204 l 615 1319 l 615 1210 l 432 1054 l 249 1210 z "},"Ḝ":{"ha":789,"x_min":107,"x_max":743,"o":"m 107 972 l 729 972 l 729 800 l 289 800 l 289 593 l 631 593 l 631 421 l 289 421 l 289 172 l 743 172 l 743 0 l 107 0 l 107 972 m 457 -75 q 553 -107 518 -75 q 588 -196 588 -139 q 543 -297 588 -261 q 431 -332 499 -332 q 317 -306 367 -332 l 343 -224 q 433 -247 393 -247 q 481 -235 464 -247 q 499 -201 499 -224 q 428 -153 499 -153 q 361 -162 396 -153 l 400 0 l 476 0 l 454 -75 l 457 -75 m 432 1063 q 319 1087 368 1063 q 244 1153 271 1111 q 218 1246 218 1196 l 336 1246 q 362 1181 336 1204 q 432 1157 388 1157 q 502 1181 476 1157 q 528 1246 528 1204 l 646 1246 q 588 1115 646 1168 q 432 1063 529 1063 z "},"Ê":{"ha":789,"x_min":107,"x_max":743,"o":"m 107 972 l 729 972 l 729 800 l 289 800 l 289 593 l 631 593 l 631 421 l 289 421 l 289 172 l 743 172 l 743 0 l 107 0 l 107 972 m 615 1138 l 615 1035 l 432 1135 l 249 1035 l 249 1138 l 432 1265 l 615 1138 z "},"Ế":{"ha":789,"x_min":107,"x_max":789,"o":"m 107 972 l 729 972 l 729 800 l 289 800 l 289 593 l 631 593 l 631 421 l 289 421 l 289 172 l 743 172 l 743 0 l 107 0 l 107 972 m 629 1435 l 789 1435 l 647 1258 l 538 1258 l 629 1435 m 615 1151 l 615 1049 l 432 1149 l 249 1049 l 249 1151 l 432 1279 l 615 1151 z "},"Ệ":{"ha":789,"x_min":107,"x_max":743,"o":"m 107 972 l 729 972 l 729 800 l 289 800 l 289 593 l 631 593 l 631 421 l 289 421 l 289 172 l 743 172 l 743 0 l 107 0 l 107 972 m 249 1157 l 432 1313 l 615 1157 l 615 1047 l 432 1163 l 249 1047 l 249 1157 m 363 -112 l 507 -112 l 507 -247 l 363 -247 l 363 -112 z "},"Ề":{"ha":789,"x_min":107,"x_max":743,"o":"m 107 972 l 729 972 l 729 800 l 289 800 l 289 593 l 631 593 l 631 421 l 289 421 l 289 172 l 743 172 l 743 0 l 107 0 l 107 972 m 568 1258 l 454 1435 l 603 1435 l 674 1258 l 568 1258 m 615 1151 l 615 1049 l 432 1149 l 249 1049 l 249 1151 l 432 1279 l 615 1151 z "},"Ể":{"ha":789,"x_min":107,"x_max":743,"o":"m 107 972 l 729 972 l 729 800 l 289 800 l 289 593 l 631 593 l 631 421 l 289 421 l 289 172 l 743 172 l 743 0 l 107 0 l 107 972 m 615 1138 l 615 1035 l 432 1135 l 249 1035 l 249 1138 l 432 1265 l 615 1138 m 550 1272 q 589 1290 576 1279 q 601 1319 601 1300 q 550 1358 601 1358 q 465 1332 514 1358 l 442 1417 q 553 1443 494 1443 q 651 1413 613 1443 q 690 1328 690 1382 q 660 1252 690 1281 q 565 1211 631 1224 l 550 1272 z "},"Ễ":{"ha":789,"x_min":107,"x_max":743,"o":"m 107 972 l 729 972 l 729 800 l 289 800 l 289 593 l 631 593 l 631 421 l 289 421 l 289 172 l 743 172 l 743 0 l 107 0 l 107 972 m 615 1138 l 615 1035 l 432 1135 l 249 1035 l 249 1138 l 432 1265 l 615 1138 m 553 1315 q 508 1323 531 1315 q 446 1347 485 1331 q 409 1362 439 1350 q 358 1374 379 1374 q 313 1325 313 1374 l 207 1325 q 311 1471 207 1471 q 356 1463 333 1471 q 418 1439 379 1456 q 455 1424 425 1436 q 506 1413 485 1413 q 551 1461 551 1413 l 657 1461 q 553 1315 657 1315 z "},"Ȅ":{"ha":789,"x_min":107,"x_max":743,"o":"m 107 972 l 729 972 l 729 800 l 289 800 l 289 593 l 631 593 l 631 421 l 289 421 l 289 172 l 743 172 l 743 0 l 107 0 l 107 972 m 272 1094 l 133 1313 l 293 1313 l 382 1094 l 272 1094 m 476 1094 l 349 1313 l 508 1313 l 586 1094 l 476 1094 z "},"Ë":{"ha":789,"x_min":107,"x_max":743,"o":"m 107 972 l 729 972 l 729 800 l 289 800 l 289 593 l 631 593 l 631 421 l 289 421 l 289 172 l 743 172 l 743 0 l 107 0 l 107 972 m 225 1224 l 358 1224 l 358 1099 l 225 1099 l 225 1224 m 506 1224 l 639 1224 l 639 1099 l 506 1099 l 506 1224 z "},"Ė":{"ha":789,"x_min":107,"x_max":743,"o":"m 107 972 l 729 972 l 729 800 l 289 800 l 289 593 l 631 593 l 631 421 l 289 421 l 289 172 l 743 172 l 743 0 l 107 0 l 107 972 m 360 1235 l 504 1235 l 504 1100 l 360 1100 l 360 1235 z "},"Ẹ":{"ha":789,"x_min":107,"x_max":743,"o":"m 107 972 l 729 972 l 729 800 l 289 800 l 289 593 l 631 593 l 631 421 l 289 421 l 289 172 l 743 172 l 743 0 l 107 0 l 107 972 m 363 -112 l 507 -112 l 507 -247 l 363 -247 l 363 -112 z "},"È":{"ha":789,"x_min":107,"x_max":743,"o":"m 107 972 l 729 972 l 729 800 l 289 800 l 289 593 l 631 593 l 631 421 l 289 421 l 289 172 l 743 172 l 743 0 l 107 0 l 107 972 m 294 1135 l 294 1282 l 568 1150 l 568 1054 l 294 1135 z "},"Ẻ":{"ha":789,"x_min":107,"x_max":743,"o":"m 107 972 l 729 972 l 729 800 l 289 800 l 289 593 l 631 593 l 631 421 l 289 421 l 289 172 l 743 172 l 743 0 l 107 0 l 107 972 m 410 1117 q 449 1134 436 1124 q 461 1164 461 1144 q 410 1203 461 1203 q 325 1176 374 1203 l 301 1261 q 413 1288 354 1288 q 511 1257 472 1288 q 550 1172 550 1226 q 520 1097 550 1125 q 425 1056 490 1068 l 410 1117 z "},"Ȇ":{"ha":789,"x_min":107,"x_max":743,"o":"m 107 972 l 729 972 l 729 800 l 289 800 l 289 593 l 631 593 l 631 421 l 289 421 l 289 172 l 743 172 l 743 0 l 107 0 l 107 972 m 432 1267 q 588 1214 529 1267 q 646 1083 646 1161 l 528 1083 q 502 1149 528 1125 q 432 1172 476 1172 q 362 1149 388 1172 q 336 1083 336 1125 l 218 1083 q 244 1176 218 1133 q 319 1242 271 1218 q 432 1267 368 1267 z "},"Ē":{"ha":789,"x_min":107,"x_max":743,"o":"m 107 972 l 729 972 l 729 800 l 289 800 l 289 593 l 631 593 l 631 421 l 289 421 l 289 172 l 743 172 l 743 0 l 107 0 l 107 972 m 204 1207 l 660 1207 l 660 1101 l 204 1101 l 204 1207 z "},"Ḗ":{"ha":789,"x_min":107,"x_max":743,"o":"m 107 972 l 729 972 l 729 800 l 289 800 l 289 593 l 631 593 l 631 421 l 289 421 l 289 172 l 743 172 l 743 0 l 107 0 l 107 972 m 204 1207 l 660 1207 l 660 1101 l 204 1101 l 204 1207 m 296 1389 l 569 1521 l 569 1374 l 296 1293 l 296 1389 z "},"Ḕ":{"ha":789,"x_min":107,"x_max":743,"o":"m 107 972 l 729 972 l 729 800 l 289 800 l 289 593 l 631 593 l 631 421 l 289 421 l 289 172 l 743 172 l 743 0 l 107 0 l 107 972 m 204 1207 l 660 1207 l 660 1101 l 204 1101 l 204 1207 m 294 1374 l 294 1521 l 568 1389 l 568 1293 l 294 1374 z "},"Ę":{"ha":789,"x_min":107,"x_max":810,"o":"m 107 972 l 729 972 l 729 800 l 289 800 l 289 593 l 631 593 l 631 421 l 289 421 l 289 172 l 743 172 l 743 0 l 107 0 l 107 972 m 743 0 q 663 -75 690 -40 q 636 -144 636 -110 q 654 -192 636 -176 q 703 -208 672 -208 q 786 -189 744 -208 l 810 -265 q 689 -293 757 -293 q 587 -261 626 -293 q 547 -171 547 -229 q 579 -76 547 -121 q 657 0 611 -32 l 743 0 z "},"Ẽ":{"ha":789,"x_min":107,"x_max":743,"o":"m 107 972 l 729 972 l 729 800 l 289 800 l 289 593 l 631 593 l 631 421 l 289 421 l 289 172 l 743 172 l 743 0 l 107 0 l 107 972 m 550 1081 q 503 1089 526 1081 q 447 1113 481 1097 q 398 1134 418 1126 q 360 1142 378 1142 q 325 1128 338 1142 q 313 1092 313 1115 l 194 1092 q 228 1217 197 1174 q 314 1260 258 1260 q 360 1251 338 1260 q 417 1228 383 1243 q 466 1206 446 1214 q 504 1199 486 1199 q 539 1212 526 1199 q 551 1249 551 1225 l 669 1249 q 636 1124 667 1167 q 550 1081 606 1081 z "},"F":{"ha":729,"x_min":107,"x_max":706,"o":"m 107 972 l 706 972 l 706 800 l 285 800 l 285 593 l 610 593 l 610 421 l 285 421 l 285 0 l 107 0 l 107 972 z "},"G":{"ha":922,"x_min":49,"x_max":857,"o":"m 539 -19 q 276 43 386 -19 q 107 220 165 106 q 49 488 49 335 q 113 752 49 638 q 293 929 178 867 q 557 992 408 992 q 703 976 632 992 q 825 935 774 961 l 806 765 q 557 821 685 821 q 322 730 401 821 q 243 490 243 639 q 321 244 243 336 q 546 151 399 151 q 679 167 606 151 l 679 340 l 546 340 l 546 488 l 857 488 l 857 54 q 719 1 803 22 q 539 -19 635 -19 z "},"Ğ":{"ha":922,"x_min":49,"x_max":857,"o":"m 539 -19 q 276 43 386 -19 q 107 220 165 106 q 49 488 49 335 q 113 752 49 638 q 293 929 178 867 q 557 992 408 992 q 703 976 632 992 q 825 935 774 961 l 806 765 q 557 821 685 821 q 322 730 401 821 q 243 490 243 639 q 321 244 243 336 q 546 151 399 151 q 679 167 606 151 l 679 340 l 546 340 l 546 488 l 857 488 l 857 54 q 719 1 803 22 q 539 -19 635 -19 m 557 1063 q 444 1087 493 1063 q 369 1153 396 1111 q 343 1246 343 1196 l 461 1246 q 487 1181 461 1204 q 557 1157 513 1157 q 627 1181 601 1157 q 653 1246 653 1204 l 771 1246 q 713 1115 771 1168 q 557 1063 654 1063 z "},"Ǧ":{"ha":922,"x_min":49,"x_max":857,"o":"m 539 -19 q 276 43 386 -19 q 107 220 165 106 q 49 488 49 335 q 113 752 49 638 q 293 929 178 867 q 557 992 408 992 q 703 976 632 992 q 825 935 774 961 l 806 765 q 557 821 685 821 q 322 730 401 821 q 243 490 243 639 q 321 244 243 336 q 546 151 399 151 q 679 167 606 151 l 679 340 l 546 340 l 546 488 l 857 488 l 857 54 q 719 1 803 22 q 539 -19 635 -19 m 374 1203 l 374 1306 l 557 1206 l 740 1306 l 740 1203 l 557 1075 l 374 1203 z "},"Ĝ":{"ha":922,"x_min":49,"x_max":857,"o":"m 539 -19 q 276 43 386 -19 q 107 220 165 106 q 49 488 49 335 q 113 752 49 638 q 293 929 178 867 q 557 992 408 992 q 703 976 632 992 q 825 935 774 961 l 806 765 q 557 821 685 821 q 322 730 401 821 q 243 490 243 639 q 321 244 243 336 q 546 151 399 151 q 679 167 606 151 l 679 340 l 546 340 l 546 488 l 857 488 l 857 54 q 719 1 803 22 q 539 -19 635 -19 m 740 1138 l 740 1035 l 557 1135 l 374 1035 l 374 1138 l 557 1265 l 740 1138 z "},"Ģ":{"ha":922,"x_min":49,"x_max":857,"o":"m 539 -19 q 276 43 386 -19 q 107 220 165 106 q 49 488 49 335 q 113 752 49 638 q 293 929 178 867 q 557 992 408 992 q 703 976 632 992 q 825 935 774 961 l 806 765 q 557 821 685 821 q 322 730 401 821 q 243 490 243 639 q 321 244 243 336 q 546 151 399 151 q 679 167 606 151 l 679 340 l 546 340 l 546 488 l 857 488 l 857 54 q 719 1 803 22 q 539 -19 635 -19 m 471 -436 l 524 -283 l 460 -283 l 460 -126 l 631 -126 l 631 -267 l 544 -436 l 471 -436 z "},"Ġ":{"ha":922,"x_min":49,"x_max":857,"o":"m 539 -19 q 276 43 386 -19 q 107 220 165 106 q 49 488 49 335 q 113 752 49 638 q 293 929 178 867 q 557 992 408 992 q 703 976 632 992 q 825 935 774 961 l 806 765 q 557 821 685 821 q 322 730 401 821 q 243 490 243 639 q 321 244 243 336 q 546 151 399 151 q 679 167 606 151 l 679 340 l 546 340 l 546 488 l 857 488 l 857 54 q 719 1 803 22 q 539 -19 635 -19 m 485 1235 l 629 1235 l 629 1100 l 485 1100 l 485 1235 z "},"Ḡ":{"ha":922,"x_min":49,"x_max":857,"o":"m 539 -19 q 276 43 386 -19 q 107 220 165 106 q 49 488 49 335 q 113 752 49 638 q 293 929 178 867 q 557 992 408 992 q 703 976 632 992 q 825 935 774 961 l 806 765 q 557 821 685 821 q 322 730 401 821 q 243 490 243 639 q 321 244 243 336 q 546 151 399 151 q 679 167 606 151 l 679 340 l 546 340 l 546 488 l 857 488 l 857 54 q 719 1 803 22 q 539 -19 635 -19 m 329 1207 l 785 1207 l 785 1101 l 329 1101 l 329 1207 z "},"H":{"ha":1014,"x_min":107,"x_max":907,"o":"m 107 972 l 285 972 l 285 588 l 729 588 l 729 972 l 907 972 l 907 0 l 729 0 l 729 421 l 285 421 l 285 0 l 107 0 l 107 972 z "},"Ħ":{"ha":1028,"x_min":17,"x_max":1011,"o":"m 1011 675 l 921 675 l 921 0 l 743 0 l 743 421 l 285 421 l 285 0 l 107 0 l 107 675 l 17 675 l 17 806 l 107 806 l 107 972 l 285 972 l 285 806 l 743 806 l 743 972 l 921 972 l 921 806 l 1011 806 l 1011 675 m 743 675 l 285 675 l 285 593 l 743 593 l 743 675 z "},"Ḫ":{"ha":1014,"x_min":107,"x_max":907,"o":"m 107 972 l 285 972 l 285 588 l 729 588 l 729 972 l 907 972 l 907 0 l 729 0 l 729 421 l 285 421 l 285 0 l 107 0 l 107 972 m 507 -319 q 394 -294 443 -319 q 319 -224 346 -268 q 293 -126 293 -179 l 411 -126 q 437 -192 411 -168 q 507 -215 463 -215 q 577 -192 551 -215 q 603 -126 603 -168 l 721 -126 q 663 -264 721 -208 q 507 -319 604 -319 z "},"Ĥ":{"ha":1014,"x_min":107,"x_max":907,"o":"m 107 972 l 285 972 l 285 588 l 729 588 l 729 972 l 907 972 l 907 0 l 729 0 l 729 421 l 285 421 l 285 0 l 107 0 l 107 972 m 690 1138 l 690 1035 l 507 1135 l 324 1035 l 324 1138 l 507 1265 l 690 1138 z "},"Ḥ":{"ha":1014,"x_min":107,"x_max":907,"o":"m 107 972 l 285 972 l 285 588 l 729 588 l 729 972 l 907 972 l 907 0 l 729 0 l 729 421 l 285 421 l 285 0 l 107 0 l 107 972 m 435 -112 l 579 -112 l 579 -247 l 435 -247 l 435 -112 z "},"I":{"ha":392,"x_min":107,"x_max":285,"o":"m 107 972 l 285 972 l 285 0 l 107 0 l 107 972 z "},"Ĳ":{"ha":969,"x_min":96,"x_max":874,"o":"m 96 972 l 274 972 l 274 463 l 96 463 l 96 972 m 282 333 q 343 198 296 244 q 485 151 390 151 q 616 189 569 151 q 679 294 663 226 q 696 463 696 361 l 696 972 l 874 972 l 874 417 q 776 97 874 213 q 485 -19 678 -19 q 224 66 319 -19 q 104 306 129 151 l 282 333 z "},"Í":{"ha":392,"x_min":60,"x_max":333,"o":"m 107 972 l 285 972 l 285 0 l 107 0 l 107 972 m 60 1150 l 333 1282 l 333 1135 l 60 1054 l 60 1150 z "},"Ĭ":{"ha":392,"x_min":-18,"x_max":410,"o":"m 107 972 l 285 972 l 285 0 l 107 0 l 107 972 m 196 1093 q 83 1119 132 1093 q 8 1189 35 1144 q -18 1286 -18 1233 l 100 1286 q 126 1221 100 1244 q 196 1197 151 1197 q 266 1221 240 1197 q 292 1286 292 1244 l 410 1286 q 351 1149 410 1204 q 196 1093 293 1093 z "},"Î":{"ha":392,"x_min":13,"x_max":379,"o":"m 107 972 l 285 972 l 285 0 l 107 0 l 107 972 m 379 1138 l 379 1035 l 196 1135 l 13 1035 l 13 1138 l 196 1265 l 379 1138 z "},"Ȉ":{"ha":392,"x_min":-103,"x_max":350,"o":"m 107 972 l 285 972 l 285 0 l 107 0 l 107 972 m 36 1094 l -103 1313 l 57 1313 l 146 1094 l 36 1094 m 240 1094 l 113 1313 l 272 1313 l 350 1094 l 240 1094 z "},"Ï":{"ha":392,"x_min":-11,"x_max":403,"o":"m 107 972 l 285 972 l 285 0 l 107 0 l 107 972 m -11 1207 l 122 1207 l 122 1088 l -11 1088 l -11 1207 m 269 1207 l 403 1207 l 403 1088 l 269 1088 l 269 1207 z "},"Ḯ":{"ha":392,"x_min":-11,"x_max":403,"o":"m 107 972 l 285 972 l 285 0 l 107 0 l 107 972 m -11 1207 l 122 1207 l 122 1088 l -11 1088 l -11 1207 m 269 1207 l 403 1207 l 403 1088 l 269 1088 l 269 1207 m 60 1358 l 333 1490 l 333 1343 l 60 1263 l 60 1358 z "},"İ":{"ha":392,"x_min":107,"x_max":285,"o":"m 107 972 l 285 972 l 285 0 l 107 0 l 107 972 m 124 1235 l 268 1235 l 268 1100 l 124 1100 l 124 1235 z "},"Ị":{"ha":392,"x_min":107,"x_max":285,"o":"m 107 972 l 285 972 l 285 0 l 107 0 l 107 972 m 124 -112 l 268 -112 l 268 -247 l 124 -247 l 124 -112 z "},"Ì":{"ha":392,"x_min":58,"x_max":332,"o":"m 107 972 l 285 972 l 285 0 l 107 0 l 107 972 m 58 1135 l 58 1282 l 332 1150 l 332 1054 l 58 1135 z "},"Ỉ":{"ha":392,"x_min":65,"x_max":314,"o":"m 107 972 l 285 972 l 285 0 l 107 0 l 107 972 m 167 1071 q 212 1117 199 1099 q 225 1158 225 1135 q 211 1192 225 1181 q 174 1203 197 1203 q 89 1176 138 1203 l 65 1261 q 176 1288 118 1288 q 275 1254 236 1288 q 314 1164 314 1221 q 291 1088 314 1121 q 218 1019 268 1056 l 167 1071 z "},"Ȋ":{"ha":392,"x_min":-18,"x_max":410,"o":"m 107 972 l 285 972 l 285 0 l 107 0 l 107 972 m 196 1267 q 351 1214 293 1267 q 410 1083 410 1161 l 292 1083 q 266 1149 292 1125 q 196 1172 240 1172 q 126 1149 151 1172 q 100 1083 100 1125 l -18 1083 q 8 1176 -18 1133 q 83 1242 35 1218 q 196 1267 132 1267 z "},"Ī":{"ha":392,"x_min":-32,"x_max":424,"o":"m 107 972 l 285 972 l 285 0 l 107 0 l 107 972 m -32 1207 l 424 1207 l 424 1101 l -32 1101 l -32 1207 z "},"Į":{"ha":392,"x_min":89,"x_max":351,"o":"m 107 972 l 285 972 l 285 0 l 107 0 l 107 972 m 285 0 q 205 -75 232 -40 q 178 -144 178 -110 q 196 -192 178 -176 q 244 -208 214 -208 q 328 -189 286 -208 l 351 -265 q 231 -293 299 -293 q 128 -261 168 -293 q 89 -171 89 -229 q 121 -76 89 -121 q 199 0 153 -32 l 285 0 z "},"Ĩ":{"ha":392,"x_min":-29,"x_max":421,"o":"m 107 972 l 285 972 l 285 0 l 107 0 l 107 972 m 317 1079 q 272 1087 294 1079 q 210 1111 249 1094 q 173 1126 203 1114 q 122 1138 143 1138 q 76 1089 76 1138 l -29 1089 q 75 1235 -29 1235 q 120 1227 97 1235 q 182 1203 143 1219 q 219 1188 189 1200 q 269 1176 249 1176 q 315 1225 315 1176 l 421 1225 q 317 1079 421 1079 z "},"J":{"ha":392,"x_min":-6,"x_max":285,"o":"m -6 -86 q 81 -60 56 -86 q 107 33 107 -33 l 107 972 l 285 972 l 285 -6 q 226 -183 285 -128 q 60 -239 168 -239 l 10 -239 l -6 -86 z "},"Ĵ":{"ha":392,"x_min":-6,"x_max":379,"o":"m -6 -86 q 81 -60 56 -86 q 107 33 107 -33 l 107 972 l 285 972 l 285 -6 q 226 -183 285 -128 q 60 -239 168 -239 l 10 -239 l -6 -86 m 379 1138 l 379 1035 l 196 1135 l 13 1035 l 13 1138 l 196 1265 l 379 1138 z "},"K":{"ha":871,"x_min":107,"x_max":867,"o":"m 107 972 l 285 972 l 285 0 l 107 0 l 107 972 m 299 514 l 658 972 l 867 972 l 504 514 l 867 0 l 658 0 l 299 514 z "},"Ķ":{"ha":871,"x_min":107,"x_max":867,"o":"m 107 972 l 285 972 l 285 0 l 107 0 l 107 972 m 299 514 l 658 972 l 867 972 l 504 514 l 867 0 l 658 0 l 299 514 m 400 -436 l 453 -283 l 389 -283 l 389 -126 l 560 -126 l 560 -267 l 474 -436 l 400 -436 z "},"L":{"ha":694,"x_min":107,"x_max":685,"o":"m 107 972 l 285 972 l 285 158 l 685 158 l 685 0 l 107 0 l 107 972 z "},"Ǉ":{"ha":1086,"x_min":107,"x_max":979,"o":"m 107 972 l 285 972 l 285 158 l 685 158 l 685 0 l 107 0 l 107 972 m 689 -86 q 776 -60 750 -86 q 801 33 801 -33 l 801 972 l 979 972 l 979 -6 q 921 -183 979 -128 q 754 -239 863 -239 l 704 -239 l 689 -86 z "},"Ĺ":{"ha":694,"x_min":60,"x_max":685,"o":"m 107 972 l 285 972 l 285 158 l 685 158 l 685 0 l 107 0 l 107 972 m 60 1150 l 333 1282 l 333 1135 l 60 1054 l 60 1150 z "},"Ľ":{"ha":694,"x_min":107,"x_max":685,"o":"m 107 972 l 285 972 l 285 158 l 685 158 l 685 0 l 107 0 l 107 972 m 547 972 l 685 972 l 644 726 l 547 726 l 547 972 z "},"Ļ":{"ha":694,"x_min":107,"x_max":685,"o":"m 107 972 l 285 972 l 285 158 l 685 158 l 685 0 l 107 0 l 107 972 m 324 -436 l 376 -283 l 313 -283 l 313 -126 l 483 -126 l 483 -267 l 397 -436 l 324 -436 z "},"Ŀ":{"ha":694,"x_min":107,"x_max":685,"o":"m 107 972 l 285 972 l 285 158 l 685 158 l 685 0 l 107 0 l 107 972 m 457 635 l 629 635 l 629 454 l 457 454 l 457 635 z "},"Ḷ":{"ha":694,"x_min":107,"x_max":685,"o":"m 107 972 l 285 972 l 285 158 l 685 158 l 685 0 l 107 0 l 107 972 m 324 -112 l 468 -112 l 468 -247 l 324 -247 l 324 -112 z "},"ǈ":{"ha":1028,"x_min":107,"x_max":947,"o":"m 107 972 l 285 972 l 285 158 l 685 158 l 685 0 l 107 0 l 107 972 m 775 972 l 947 972 l 947 800 l 775 800 l 775 972 m 692 -194 q 758 -171 740 -194 q 775 -83 775 -147 l 775 694 l 947 694 l 947 -154 q 902 -297 947 -258 q 761 -336 857 -336 l 707 -336 l 692 -194 z "},"Ḻ":{"ha":694,"x_min":107,"x_max":685,"o":"m 107 972 l 285 972 l 285 158 l 685 158 l 685 0 l 107 0 l 107 972 m 168 -126 l 624 -126 l 624 -239 l 168 -239 l 168 -126 z "},"Ł":{"ha":694,"x_min":17,"x_max":685,"o":"m 685 172 l 685 0 l 107 0 l 107 513 l 17 489 l 17 628 l 107 651 l 107 972 l 285 972 l 285 697 l 568 769 l 568 631 l 285 558 l 285 172 l 685 172 z "},"M":{"ha":1157,"x_min":61,"x_max":1096,"o":"m 196 972 l 342 972 l 579 529 l 815 972 l 961 972 l 1096 0 l 911 0 l 828 651 l 579 204 l 329 650 l 246 0 l 61 0 l 196 972 z "},"Ṃ":{"ha":1157,"x_min":61,"x_max":1096,"o":"m 196 972 l 342 972 l 579 529 l 815 972 l 961 972 l 1096 0 l 911 0 l 828 651 l 579 204 l 329 650 l 246 0 l 61 0 l 196 972 m 507 -112 l 651 -112 l 651 -247 l 507 -247 l 507 -112 z "},"N":{"ha":982,"x_min":107,"x_max":875,"o":"m 107 972 l 282 972 l 697 344 l 697 972 l 875 972 l 875 0 l 729 0 l 285 667 l 285 0 l 107 0 l 107 972 z "},"Ǌ":{"ha":1374,"x_min":107,"x_max":1267,"o":"m 107 972 l 282 972 l 697 344 l 697 972 l 875 972 l 875 0 l 729 0 l 285 667 l 285 0 l 107 0 l 107 972 m 976 -86 q 1063 -60 1038 -86 q 1089 33 1089 -33 l 1089 972 l 1267 972 l 1267 -6 q 1208 -183 1267 -128 q 1042 -239 1150 -239 l 992 -239 l 976 -86 z "},"Ń":{"ha":982,"x_min":107,"x_max":875,"o":"m 107 972 l 282 972 l 697 344 l 697 972 l 875 972 l 875 0 l 729 0 l 285 667 l 285 0 l 107 0 l 107 972 m 354 1150 l 628 1282 l 628 1135 l 354 1054 l 354 1150 z "},"Ň":{"ha":982,"x_min":107,"x_max":875,"o":"m 107 972 l 282 972 l 697 344 l 697 972 l 875 972 l 875 0 l 729 0 l 285 667 l 285 0 l 107 0 l 107 972 m 307 1203 l 307 1306 l 490 1206 l 674 1306 l 674 1203 l 490 1075 l 307 1203 z "},"Ņ":{"ha":982,"x_min":107,"x_max":875,"o":"m 107 972 l 282 972 l 697 344 l 697 972 l 875 972 l 875 0 l 729 0 l 285 667 l 285 0 l 107 0 l 107 972 m 435 -436 l 488 -283 l 424 -283 l 424 -126 l 594 -126 l 594 -267 l 508 -436 l 435 -436 z "},"Ṅ":{"ha":982,"x_min":107,"x_max":875,"o":"m 107 972 l 282 972 l 697 344 l 697 972 l 875 972 l 875 0 l 729 0 l 285 667 l 285 0 l 107 0 l 107 972 m 418 1235 l 563 1235 l 563 1100 l 418 1100 l 418 1235 z "},"Ṇ":{"ha":982,"x_min":107,"x_max":875,"o":"m 107 972 l 282 972 l 697 344 l 697 972 l 875 972 l 875 0 l 729 0 l 285 667 l 285 0 l 107 0 l 107 972 m 435 -112 l 579 -112 l 579 -247 l 435 -247 l 435 -112 z "},"Ŋ":{"ha":1000,"x_min":107,"x_max":903,"o":"m 903 69 q 808 -194 903 -104 q 554 -285 713 -285 q 435 -268 492 -285 l 453 -104 q 556 -114 500 -114 q 679 -70 633 -114 q 725 58 725 -26 l 725 553 q 669 752 725 683 q 504 821 613 821 q 375 794 431 821 q 285 721 319 768 l 285 0 l 107 0 l 107 972 l 258 972 l 267 879 q 393 963 321 933 q 547 992 465 992 q 812 881 721 992 q 903 581 903 771 l 903 69 z "},"ǋ":{"ha":1303,"x_min":107,"x_max":1222,"o":"m 107 972 l 282 972 l 697 344 l 697 972 l 875 972 l 875 0 l 729 0 l 285 667 l 285 0 l 107 0 l 107 972 m 1050 972 l 1222 972 l 1222 800 l 1050 800 l 1050 972 m 967 -194 q 1033 -171 1015 -194 q 1050 -83 1050 -147 l 1050 694 l 1222 694 l 1222 -154 q 1177 -297 1222 -258 q 1036 -336 1132 -336 l 982 -336 l 967 -194 z "},"Ṉ":{"ha":982,"x_min":107,"x_max":875,"o":"m 107 972 l 282 972 l 697 344 l 697 972 l 875 972 l 875 0 l 729 0 l 285 667 l 285 0 l 107 0 l 107 972 m 279 -126 l 735 -126 l 735 -239 l 279 -239 l 279 -126 z "},"Ñ":{"ha":982,"x_min":107,"x_max":875,"o":"m 107 972 l 282 972 l 697 344 l 697 972 l 875 972 l 875 0 l 729 0 l 285 667 l 285 0 l 107 0 l 107 972 m 611 1079 q 566 1087 589 1079 q 504 1111 543 1094 q 467 1126 497 1114 q 417 1138 438 1138 q 371 1089 371 1138 l 265 1089 q 369 1235 265 1235 q 415 1227 392 1235 q 476 1203 438 1219 q 513 1188 483 1200 q 564 1176 543 1176 q 610 1225 610 1176 l 715 1225 q 611 1079 715 1079 z "},"O":{"ha":1056,"x_min":49,"x_max":1007,"o":"m 528 -19 q 281 44 390 -19 q 110 222 172 107 q 49 486 49 336 q 110 751 49 636 q 281 928 172 865 q 528 992 390 992 q 774 928 665 992 q 945 751 883 865 q 1007 486 1007 636 q 945 222 1007 336 q 774 44 883 107 q 528 -19 665 -19 m 528 153 q 745 244 669 153 q 821 486 821 336 q 745 728 821 636 q 528 819 669 819 q 310 728 386 819 q 235 486 235 636 q 310 244 235 336 q 528 153 386 153 z "},"Ó":{"ha":1056,"x_min":49,"x_max":1007,"o":"m 528 -19 q 281 44 390 -19 q 110 222 172 107 q 49 486 49 336 q 110 751 49 636 q 281 928 172 865 q 528 992 390 992 q 774 928 665 992 q 945 751 883 865 q 1007 486 1007 636 q 945 222 1007 336 q 774 44 883 107 q 528 -19 665 -19 m 528 153 q 745 244 669 153 q 821 486 821 336 q 745 728 821 636 q 528 819 669 819 q 310 728 386 819 q 235 486 235 636 q 310 244 235 336 q 528 153 386 153 m 392 1150 l 665 1282 l 665 1135 l 392 1054 l 392 1150 z "},"Ŏ":{"ha":1056,"x_min":49,"x_max":1007,"o":"m 528 -19 q 281 44 390 -19 q 110 222 172 107 q 49 486 49 336 q 110 751 49 636 q 281 928 172 865 q 528 992 390 992 q 774 928 665 992 q 945 751 883 865 q 1007 486 1007 636 q 945 222 1007 336 q 774 44 883 107 q 528 -19 665 -19 m 528 153 q 745 244 669 153 q 821 486 821 336 q 745 728 821 636 q 528 819 669 819 q 310 728 386 819 q 235 486 235 636 q 310 244 235 336 q 528 153 386 153 m 528 1063 q 415 1087 464 1063 q 340 1153 367 1111 q 314 1246 314 1196 l 432 1246 q 458 1181 432 1204 q 528 1157 483 1157 q 598 1181 572 1157 q 624 1246 624 1204 l 742 1246 q 683 1115 742 1168 q 528 1063 625 1063 z "},"Ô":{"ha":1056,"x_min":49,"x_max":1007,"o":"m 528 -19 q 281 44 390 -19 q 110 222 172 107 q 49 486 49 336 q 110 751 49 636 q 281 928 172 865 q 528 992 390 992 q 774 928 665 992 q 945 751 883 865 q 1007 486 1007 636 q 945 222 1007 336 q 774 44 883 107 q 528 -19 665 -19 m 528 153 q 745 244 669 153 q 821 486 821 336 q 745 728 821 636 q 528 819 669 819 q 310 728 386 819 q 235 486 235 636 q 310 244 235 336 q 528 153 386 153 m 711 1138 l 711 1035 l 528 1135 l 344 1035 l 344 1138 l 528 1265 l 711 1138 z "},"Ố":{"ha":1056,"x_min":49,"x_max":1007,"o":"m 528 -19 q 281 44 390 -19 q 110 222 172 107 q 49 486 49 336 q 110 751 49 636 q 281 928 172 865 q 528 992 390 992 q 774 928 665 992 q 945 751 883 865 q 1007 486 1007 636 q 945 222 1007 336 q 774 44 883 107 q 528 -19 665 -19 m 528 153 q 745 244 669 153 q 821 486 821 336 q 745 728 821 636 q 528 819 669 819 q 310 728 386 819 q 235 486 235 636 q 310 244 235 336 q 528 153 386 153 m 725 1435 l 885 1435 l 743 1258 l 633 1258 l 725 1435 m 711 1151 l 711 1049 l 528 1149 l 344 1049 l 344 1151 l 528 1279 l 711 1151 z "},"Ộ":{"ha":1056,"x_min":49,"x_max":1007,"o":"m 528 -19 q 281 44 390 -19 q 110 222 172 107 q 49 486 49 336 q 110 751 49 636 q 281 928 172 865 q 528 992 390 992 q 774 928 665 992 q 945 751 883 865 q 1007 486 1007 636 q 945 222 1007 336 q 774 44 883 107 q 528 -19 665 -19 m 528 153 q 745 244 669 153 q 821 486 821 336 q 745 728 821 636 q 528 819 669 819 q 310 728 386 819 q 235 486 235 636 q 310 244 235 336 q 528 153 386 153 m 344 1157 l 528 1313 l 711 1157 l 711 1047 l 528 1163 l 344 1047 l 344 1157 m 456 -112 l 600 -112 l 600 -247 l 456 -247 l 456 -112 z "},"Ồ":{"ha":1056,"x_min":49,"x_max":1007,"o":"m 528 -19 q 281 44 390 -19 q 110 222 172 107 q 49 486 49 336 q 110 751 49 636 q 281 928 172 865 q 528 992 390 992 q 774 928 665 992 q 945 751 883 865 q 1007 486 1007 636 q 945 222 1007 336 q 774 44 883 107 q 528 -19 665 -19 m 528 153 q 745 244 669 153 q 821 486 821 336 q 745 728 821 636 q 528 819 669 819 q 310 728 386 819 q 235 486 235 636 q 310 244 235 336 q 528 153 386 153 m 664 1258 l 550 1435 l 699 1435 l 769 1258 l 664 1258 m 711 1151 l 711 1049 l 528 1149 l 344 1049 l 344 1151 l 528 1279 l 711 1151 z "},"Ổ":{"ha":1056,"x_min":49,"x_max":1007,"o":"m 528 -19 q 281 44 390 -19 q 110 222 172 107 q 49 486 49 336 q 110 751 49 636 q 281 928 172 865 q 528 992 390 992 q 774 928 665 992 q 945 751 883 865 q 1007 486 1007 636 q 945 222 1007 336 q 774 44 883 107 q 528 -19 665 -19 m 528 153 q 745 244 669 153 q 821 486 821 336 q 745 728 821 636 q 528 819 669 819 q 310 728 386 819 q 235 486 235 636 q 310 244 235 336 q 528 153 386 153 m 711 1138 l 711 1035 l 528 1135 l 344 1035 l 344 1138 l 528 1265 l 711 1138 m 646 1272 q 685 1290 672 1279 q 697 1319 697 1300 q 646 1358 697 1358 q 561 1332 610 1358 l 538 1417 q 649 1443 590 1443 q 747 1413 708 1443 q 786 1328 786 1382 q 756 1252 786 1281 q 661 1211 726 1224 l 646 1272 z "},"Ỗ":{"ha":1056,"x_min":49,"x_max":1007,"o":"m 528 -19 q 281 44 390 -19 q 110 222 172 107 q 49 486 49 336 q 110 751 49 636 q 281 928 172 865 q 528 992 390 992 q 774 928 665 992 q 945 751 883 865 q 1007 486 1007 636 q 945 222 1007 336 q 774 44 883 107 q 528 -19 665 -19 m 528 153 q 745 244 669 153 q 821 486 821 336 q 745 728 821 636 q 528 819 669 819 q 310 728 386 819 q 235 486 235 636 q 310 244 235 336 q 528 153 386 153 m 711 1138 l 711 1035 l 528 1135 l 344 1035 l 344 1138 l 528 1265 l 711 1138 m 649 1315 q 603 1323 626 1315 q 542 1347 581 1331 q 505 1362 535 1350 q 454 1374 475 1374 q 408 1325 408 1374 l 303 1325 q 407 1471 303 1471 q 452 1463 429 1471 q 514 1439 475 1456 q 551 1424 521 1436 q 601 1413 581 1413 q 647 1461 647 1413 l 753 1461 q 649 1315 753 1315 z "},"Ȍ":{"ha":1056,"x_min":49,"x_max":1007,"o":"m 528 -19 q 281 44 390 -19 q 110 222 172 107 q 49 486 49 336 q 110 751 49 636 q 281 928 172 865 q 528 992 390 992 q 774 928 665 992 q 945 751 883 865 q 1007 486 1007 636 q 945 222 1007 336 q 774 44 883 107 q 528 -19 665 -19 m 528 153 q 745 244 669 153 q 821 486 821 336 q 745 728 821 636 q 528 819 669 819 q 310 728 386 819 q 235 486 235 636 q 310 244 235 336 q 528 153 386 153 m 368 1094 l 229 1313 l 389 1313 l 478 1094 l 368 1094 m 572 1094 l 444 1313 l 604 1313 l 682 1094 l 572 1094 z "},"Ö":{"ha":1056,"x_min":49,"x_max":1007,"o":"m 528 -19 q 281 44 390 -19 q 110 222 172 107 q 49 486 49 336 q 110 751 49 636 q 281 928 172 865 q 528 992 390 992 q 774 928 665 992 q 945 751 883 865 q 1007 486 1007 636 q 945 222 1007 336 q 774 44 883 107 q 528 -19 665 -19 m 528 153 q 745 244 669 153 q 821 486 821 336 q 745 728 821 636 q 528 819 669 819 q 310 728 386 819 q 235 486 235 636 q 310 244 235 336 q 528 153 386 153 m 321 1207 l 454 1207 l 454 1088 l 321 1088 l 321 1207 m 601 1207 l 735 1207 l 735 1088 l 601 1088 l 601 1207 z "},"Ȫ":{"ha":1056,"x_min":49,"x_max":1007,"o":"m 528 -19 q 281 44 390 -19 q 110 222 172 107 q 49 486 49 336 q 110 751 49 636 q 281 928 172 865 q 528 992 390 992 q 774 928 665 992 q 945 751 883 865 q 1007 486 1007 636 q 945 222 1007 336 q 774 44 883 107 q 528 -19 665 -19 m 528 153 q 745 244 669 153 q 821 486 821 336 q 745 728 821 636 q 528 819 669 819 q 310 728 386 819 q 235 486 235 636 q 310 244 235 336 q 528 153 386 153 m 321 1207 l 454 1207 l 454 1088 l 321 1088 l 321 1207 m 601 1207 l 735 1207 l 735 1088 l 601 1088 l 601 1207 m 300 1415 l 756 1415 l 756 1310 l 300 1310 l 300 1415 z "},"Ȱ":{"ha":1056,"x_min":49,"x_max":1007,"o":"m 528 -19 q 281 44 390 -19 q 110 222 172 107 q 49 486 49 336 q 110 751 49 636 q 281 928 172 865 q 528 992 390 992 q 774 928 665 992 q 945 751 883 865 q 1007 486 1007 636 q 945 222 1007 336 q 774 44 883 107 q 528 -19 665 -19 m 528 153 q 745 244 669 153 q 821 486 821 336 q 745 728 821 636 q 528 819 669 819 q 310 728 386 819 q 235 486 235 636 q 310 244 235 336 q 528 153 386 153 m 456 1235 l 600 1235 l 600 1100 l 456 1100 l 456 1235 m 300 1457 l 756 1457 l 756 1351 l 300 1351 l 300 1457 z "},"Ọ":{"ha":1056,"x_min":49,"x_max":1007,"o":"m 528 -19 q 281 44 390 -19 q 110 222 172 107 q 49 486 49 336 q 110 751 49 636 q 281 928 172 865 q 528 992 390 992 q 774 928 665 992 q 945 751 883 865 q 1007 486 1007 636 q 945 222 1007 336 q 774 44 883 107 q 528 -19 665 -19 m 528 153 q 745 244 669 153 q 821 486 821 336 q 745 728 821 636 q 528 819 669 819 q 310 728 386 819 q 235 486 235 636 q 310 244 235 336 q 528 153 386 153 m 456 -112 l 600 -112 l 600 -247 l 456 -247 l 456 -112 z "},"Ò":{"ha":1056,"x_min":49,"x_max":1007,"o":"m 528 -19 q 281 44 390 -19 q 110 222 172 107 q 49 486 49 336 q 110 751 49 636 q 281 928 172 865 q 528 992 390 992 q 774 928 665 992 q 945 751 883 865 q 1007 486 1007 636 q 945 222 1007 336 q 774 44 883 107 q 528 -19 665 -19 m 528 153 q 745 244 669 153 q 821 486 821 336 q 745 728 821 636 q 528 819 669 819 q 310 728 386 819 q 235 486 235 636 q 310 244 235 336 q 528 153 386 153 m 390 1135 l 390 1282 l 664 1150 l 664 1054 l 390 1135 z "},"Ỏ":{"ha":1056,"x_min":49,"x_max":1007,"o":"m 528 -19 q 281 44 390 -19 q 110 222 172 107 q 49 486 49 336 q 110 751 49 636 q 281 928 172 865 q 528 992 390 992 q 774 928 665 992 q 945 751 883 865 q 1007 486 1007 636 q 945 222 1007 336 q 774 44 883 107 q 528 -19 665 -19 m 528 153 q 745 244 669 153 q 821 486 821 336 q 745 728 821 636 q 528 819 669 819 q 310 728 386 819 q 235 486 235 636 q 310 244 235 336 q 528 153 386 153 m 506 1117 q 544 1134 532 1124 q 557 1164 557 1144 q 506 1203 557 1203 q 421 1176 469 1203 l 397 1261 q 508 1288 450 1288 q 607 1257 568 1288 q 646 1172 646 1226 q 616 1097 646 1125 q 521 1056 586 1068 l 506 1117 z "},"Ơ":{"ha":1056,"x_min":49,"x_max":1007,"o":"m 821 899 q 958 726 908 832 q 1007 486 1007 619 q 945 222 1007 336 q 774 44 883 107 q 528 -19 665 -19 q 281 44 390 -19 q 110 222 172 107 q 49 486 49 336 q 110 751 49 636 q 281 928 172 865 q 528 992 390 992 q 672 972 601 992 q 782 1075 782 972 l 929 1075 q 900 972 929 1018 q 821 899 871 926 m 528 153 q 745 244 669 153 q 821 486 821 336 q 745 728 821 636 q 528 819 669 819 q 310 728 386 819 q 235 486 235 636 q 310 244 235 336 q 528 153 386 153 z "},"Ớ":{"ha":1056,"x_min":49,"x_max":1007,"o":"m 821 899 q 958 726 908 832 q 1007 486 1007 619 q 945 222 1007 336 q 774 44 883 107 q 528 -19 665 -19 q 281 44 390 -19 q 110 222 172 107 q 49 486 49 336 q 110 751 49 636 q 281 928 172 865 q 528 992 390 992 q 672 972 601 992 q 782 1075 782 972 l 929 1075 q 900 972 929 1018 q 821 899 871 926 m 528 153 q 745 244 669 153 q 821 486 821 336 q 745 728 821 636 q 528 819 669 819 q 310 728 386 819 q 235 486 235 636 q 310 244 235 336 q 528 153 386 153 m 392 1179 l 665 1335 l 665 1175 l 392 1069 l 392 1179 z "},"Ợ":{"ha":1056,"x_min":49,"x_max":1007,"o":"m 821 899 q 958 726 908 832 q 1007 486 1007 619 q 945 222 1007 336 q 774 44 883 107 q 528 -19 665 -19 q 281 44 390 -19 q 110 222 172 107 q 49 486 49 336 q 110 751 49 636 q 281 928 172 865 q 528 992 390 992 q 672 972 601 992 q 782 1075 782 972 l 929 1075 q 900 972 929 1018 q 821 899 871 926 m 528 153 q 745 244 669 153 q 821 486 821 336 q 745 728 821 636 q 528 819 669 819 q 310 728 386 819 q 235 486 235 636 q 310 244 235 336 q 528 153 386 153 m 456 -112 l 600 -112 l 600 -247 l 456 -247 l 456 -112 z "},"Ờ":{"ha":1056,"x_min":49,"x_max":1007,"o":"m 821 899 q 958 726 908 832 q 1007 486 1007 619 q 945 222 1007 336 q 774 44 883 107 q 528 -19 665 -19 q 281 44 390 -19 q 110 222 172 107 q 49 486 49 336 q 110 751 49 636 q 281 928 172 865 q 528 992 390 992 q 672 972 601 992 q 782 1075 782 972 l 929 1075 q 900 972 929 1018 q 821 899 871 926 m 528 153 q 745 244 669 153 q 821 486 821 336 q 745 728 821 636 q 528 819 669 819 q 310 728 386 819 q 235 486 235 636 q 310 244 235 336 q 528 153 386 153 m 390 1175 l 390 1335 l 664 1179 l 664 1069 l 390 1175 z "},"Ở":{"ha":1056,"x_min":49,"x_max":1007,"o":"m 821 899 q 958 726 908 832 q 1007 486 1007 619 q 945 222 1007 336 q 774 44 883 107 q 528 -19 665 -19 q 281 44 390 -19 q 110 222 172 107 q 49 486 49 336 q 110 751 49 636 q 281 928 172 865 q 528 992 390 992 q 672 972 601 992 q 782 1075 782 972 l 929 1075 q 900 972 929 1018 q 821 899 871 926 m 528 153 q 745 244 669 153 q 821 486 821 336 q 745 728 821 636 q 528 819 669 819 q 310 728 386 819 q 235 486 235 636 q 310 244 235 336 q 528 153 386 153 m 506 1117 q 544 1134 532 1124 q 557 1164 557 1144 q 506 1203 557 1203 q 421 1176 469 1203 l 397 1261 q 508 1288 450 1288 q 607 1257 568 1288 q 646 1172 646 1226 q 616 1097 646 1125 q 521 1056 586 1068 l 506 1117 z "},"Ỡ":{"ha":1056,"x_min":49,"x_max":1007,"o":"m 821 899 q 958 726 908 832 q 1007 486 1007 619 q 945 222 1007 336 q 774 44 883 107 q 528 -19 665 -19 q 281 44 390 -19 q 110 222 172 107 q 49 486 49 336 q 110 751 49 636 q 281 928 172 865 q 528 992 390 992 q 672 972 601 992 q 782 1075 782 972 l 929 1075 q 900 972 929 1018 q 821 899 871 926 m 528 153 q 745 244 669 153 q 821 486 821 336 q 745 728 821 636 q 528 819 669 819 q 310 728 386 819 q 235 486 235 636 q 310 244 235 336 q 528 153 386 153 m 646 1081 q 599 1089 622 1081 q 543 1113 576 1097 q 494 1134 514 1126 q 456 1142 474 1142 q 421 1128 433 1142 q 408 1092 408 1115 l 290 1092 q 324 1217 293 1174 q 410 1260 354 1260 q 456 1251 433 1260 q 513 1228 479 1243 q 562 1206 542 1214 q 600 1199 582 1199 q 635 1212 622 1199 q 647 1249 647 1225 l 765 1249 q 732 1124 763 1167 q 646 1081 701 1081 z "},"Ő":{"ha":1056,"x_min":49,"x_max":1007,"o":"m 528 -19 q 281 44 390 -19 q 110 222 172 107 q 49 486 49 336 q 110 751 49 636 q 281 928 172 865 q 528 992 390 992 q 774 928 665 992 q 945 751 883 865 q 1007 486 1007 636 q 945 222 1007 336 q 774 44 883 107 q 528 -19 665 -19 m 528 153 q 745 244 669 153 q 821 486 821 336 q 745 728 821 636 q 528 819 669 819 q 310 728 386 819 q 235 486 235 636 q 310 244 235 336 q 528 153 386 153 m 457 1313 l 617 1313 l 475 1094 l 365 1094 l 457 1313 m 672 1313 l 832 1313 l 679 1094 l 569 1094 l 672 1313 z "},"Ȏ":{"ha":1056,"x_min":49,"x_max":1007,"o":"m 528 -19 q 281 44 390 -19 q 110 222 172 107 q 49 486 49 336 q 110 751 49 636 q 281 928 172 865 q 528 992 390 992 q 774 928 665 992 q 945 751 883 865 q 1007 486 1007 636 q 945 222 1007 336 q 774 44 883 107 q 528 -19 665 -19 m 528 153 q 745 244 669 153 q 821 486 821 336 q 745 728 821 636 q 528 819 669 819 q 310 728 386 819 q 235 486 235 636 q 310 244 235 336 q 528 153 386 153 m 528 1267 q 683 1214 625 1267 q 742 1083 742 1161 l 624 1083 q 598 1149 624 1125 q 528 1172 572 1172 q 458 1149 483 1172 q 432 1083 432 1125 l 314 1083 q 340 1176 314 1133 q 415 1242 367 1218 q 528 1267 464 1267 z "},"Ō":{"ha":1056,"x_min":49,"x_max":1007,"o":"m 528 -19 q 281 44 390 -19 q 110 222 172 107 q 49 486 49 336 q 110 751 49 636 q 281 928 172 865 q 528 992 390 992 q 774 928 665 992 q 945 751 883 865 q 1007 486 1007 636 q 945 222 1007 336 q 774 44 883 107 q 528 -19 665 -19 m 528 153 q 745 244 669 153 q 821 486 821 336 q 745 728 821 636 q 528 819 669 819 q 310 728 386 819 q 235 486 235 636 q 310 244 235 336 q 528 153 386 153 m 300 1207 l 756 1207 l 756 1101 l 300 1101 l 300 1207 z "},"Ṓ":{"ha":1056,"x_min":49,"x_max":1007,"o":"m 528 -19 q 281 44 390 -19 q 110 222 172 107 q 49 486 49 336 q 110 751 49 636 q 281 928 172 865 q 528 992 390 992 q 774 928 665 992 q 945 751 883 865 q 1007 486 1007 636 q 945 222 1007 336 q 774 44 883 107 q 528 -19 665 -19 m 528 153 q 745 244 669 153 q 821 486 821 336 q 745 728 821 636 q 528 819 669 819 q 310 728 386 819 q 235 486 235 636 q 310 244 235 336 q 528 153 386 153 m 300 1207 l 756 1207 l 756 1101 l 300 1101 l 300 1207 m 392 1389 l 665 1521 l 665 1374 l 392 1293 l 392 1389 z "},"Ṑ":{"ha":1056,"x_min":49,"x_max":1007,"o":"m 528 -19 q 281 44 390 -19 q 110 222 172 107 q 49 486 49 336 q 110 751 49 636 q 281 928 172 865 q 528 992 390 992 q 774 928 665 992 q 945 751 883 865 q 1007 486 1007 636 q 945 222 1007 336 q 774 44 883 107 q 528 -19 665 -19 m 528 153 q 745 244 669 153 q 821 486 821 336 q 745 728 821 636 q 528 819 669 819 q 310 728 386 819 q 235 486 235 636 q 310 244 235 336 q 528 153 386 153 m 300 1207 l 756 1207 l 756 1101 l 300 1101 l 300 1207 m 390 1374 l 390 1521 l 664 1389 l 664 1293 l 390 1374 z "},"Ǫ":{"ha":1056,"x_min":49,"x_max":1007,"o":"m 656 -4 q 580 -76 606 -43 q 554 -144 554 -110 q 572 -192 554 -176 q 621 -208 590 -208 q 704 -189 663 -208 l 728 -265 q 607 -293 675 -293 q 505 -261 544 -293 q 465 -171 465 -229 q 550 -19 465 -90 l 528 -19 q 281 44 390 -19 q 110 222 172 107 q 49 486 49 336 q 110 751 49 636 q 281 928 172 865 q 528 992 390 992 q 774 928 665 992 q 945 751 883 865 q 1007 486 1007 636 q 963 258 1007 360 q 840 89 919 156 q 656 -4 761 22 m 235 486 q 310 244 235 336 q 528 153 386 153 q 745 244 669 153 q 821 486 821 336 q 745 728 821 636 q 528 819 669 819 q 310 728 386 819 q 235 486 235 636 z "},"Ø":{"ha":1056,"x_min":49,"x_max":1007,"o":"m 858 867 q 968 703 929 800 q 1007 486 1007 606 q 945 222 1007 336 q 774 44 883 107 q 528 -19 665 -19 q 292 38 394 -19 l 225 -61 l 85 -61 l 197 106 q 88 269 126 172 q 49 486 49 367 q 110 751 49 636 q 281 928 172 865 q 528 992 390 992 q 764 935 661 992 l 831 1033 l 971 1033 l 858 867 m 235 486 q 301 257 235 344 l 665 790 q 528 819 607 819 q 310 728 386 819 q 235 486 235 636 m 528 153 q 745 244 669 153 q 821 486 821 336 q 754 715 821 628 l 390 182 q 528 153 449 153 z "},"Ǿ":{"ha":1056,"x_min":49,"x_max":1007,"o":"m 858 867 q 968 703 929 800 q 1007 486 1007 606 q 945 222 1007 336 q 774 44 883 107 q 528 -19 665 -19 q 292 38 394 -19 l 225 -61 l 85 -61 l 197 106 q 88 269 126 172 q 49 486 49 367 q 110 751 49 636 q 281 928 172 865 q 528 992 390 992 q 764 935 661 992 l 831 1033 l 971 1033 l 858 867 m 235 486 q 301 257 235 344 l 665 790 q 528 819 607 819 q 310 728 386 819 q 235 486 235 636 m 528 153 q 745 244 669 153 q 821 486 821 336 q 754 715 821 628 l 390 182 q 528 153 449 153 m 392 1179 l 665 1335 l 665 1175 l 392 1069 l 392 1179 z "},"Õ":{"ha":1056,"x_min":49,"x_max":1007,"o":"m 528 -19 q 281 44 390 -19 q 110 222 172 107 q 49 486 49 336 q 110 751 49 636 q 281 928 172 865 q 528 992 390 992 q 774 928 665 992 q 945 751 883 865 q 1007 486 1007 636 q 945 222 1007 336 q 774 44 883 107 q 528 -19 665 -19 m 528 153 q 745 244 669 153 q 821 486 821 336 q 745 728 821 636 q 528 819 669 819 q 310 728 386 819 q 235 486 235 636 q 310 244 235 336 q 528 153 386 153 m 649 1079 q 603 1087 626 1079 q 542 1111 581 1094 q 505 1126 535 1114 q 454 1138 475 1138 q 408 1089 408 1138 l 303 1089 q 407 1235 303 1235 q 452 1227 429 1235 q 514 1203 475 1219 q 551 1188 521 1200 q 601 1176 581 1176 q 647 1225 647 1176 l 753 1225 q 649 1079 753 1079 z "},"Ṍ":{"ha":1056,"x_min":49,"x_max":1007,"o":"m 528 -19 q 281 44 390 -19 q 110 222 172 107 q 49 486 49 336 q 110 751 49 636 q 281 928 172 865 q 528 992 390 992 q 774 928 665 992 q 945 751 883 865 q 1007 486 1007 636 q 945 222 1007 336 q 774 44 883 107 q 528 -19 665 -19 m 528 153 q 745 244 669 153 q 821 486 821 336 q 745 728 821 636 q 528 819 669 819 q 310 728 386 819 q 235 486 235 636 q 310 244 235 336 q 528 153 386 153 m 649 1079 q 603 1087 626 1079 q 542 1111 581 1094 q 505 1126 535 1114 q 454 1138 475 1138 q 408 1089 408 1138 l 303 1089 q 407 1235 303 1235 q 452 1227 429 1235 q 514 1203 475 1219 q 551 1188 521 1200 q 601 1176 581 1176 q 647 1225 647 1176 l 753 1225 q 649 1079 753 1079 m 392 1378 l 665 1510 l 665 1363 l 392 1282 l 392 1378 z "},"Ṏ":{"ha":1056,"x_min":49,"x_max":1007,"o":"m 528 -19 q 281 44 390 -19 q 110 222 172 107 q 49 486 49 336 q 110 751 49 636 q 281 928 172 865 q 528 992 390 992 q 774 928 665 992 q 945 751 883 865 q 1007 486 1007 636 q 945 222 1007 336 q 774 44 883 107 q 528 -19 665 -19 m 528 153 q 745 244 669 153 q 821 486 821 336 q 745 728 821 636 q 528 819 669 819 q 310 728 386 819 q 235 486 235 636 q 310 244 235 336 q 528 153 386 153 m 649 1079 q 603 1087 626 1079 q 542 1111 581 1094 q 505 1126 535 1114 q 454 1138 475 1138 q 408 1089 408 1138 l 303 1089 q 407 1235 303 1235 q 452 1227 429 1235 q 514 1203 475 1219 q 551 1188 521 1200 q 601 1176 581 1176 q 647 1225 647 1176 l 753 1225 q 649 1079 753 1079 m 321 1435 l 454 1435 l 454 1315 l 321 1315 l 321 1435 m 601 1435 l 735 1435 l 735 1315 l 601 1315 l 601 1435 z "},"Ȭ":{"ha":1056,"x_min":49,"x_max":1007,"o":"m 528 -19 q 281 44 390 -19 q 110 222 172 107 q 49 486 49 336 q 110 751 49 636 q 281 928 172 865 q 528 992 390 992 q 774 928 665 992 q 945 751 883 865 q 1007 486 1007 636 q 945 222 1007 336 q 774 44 883 107 q 528 -19 665 -19 m 528 153 q 745 244 669 153 q 821 486 821 336 q 745 728 821 636 q 528 819 669 819 q 310 728 386 819 q 235 486 235 636 q 310 244 235 336 q 528 153 386 153 m 649 1079 q 603 1087 626 1079 q 542 1111 581 1094 q 505 1126 535 1114 q 454 1138 475 1138 q 408 1089 408 1138 l 303 1089 q 407 1235 303 1235 q 452 1227 429 1235 q 514 1203 475 1219 q 551 1188 521 1200 q 601 1176 581 1176 q 647 1225 647 1176 l 753 1225 q 649 1079 753 1079 m 300 1435 l 756 1435 l 756 1329 l 300 1329 l 300 1435 z "},"Œ":{"ha":1476,"x_min":49,"x_max":1429,"o":"m 1429 172 l 1429 0 l 824 0 l 824 101 q 688 12 764 43 q 528 -19 613 -19 q 281 44 390 -19 q 110 222 172 107 q 49 486 49 336 q 110 751 49 636 q 281 928 172 865 q 528 992 390 992 q 688 960 613 992 q 824 871 764 929 l 824 972 l 1417 972 l 1417 800 l 1006 800 l 1006 593 l 1322 593 l 1322 421 l 1006 421 l 1006 172 l 1429 172 m 528 151 q 739 243 665 151 q 813 486 813 335 q 739 729 813 638 q 528 821 665 821 q 317 729 390 821 q 243 486 243 638 q 317 243 243 335 q 528 151 390 151 z "},"P":{"ha":828,"x_min":107,"x_max":799,"o":"m 107 972 l 453 972 q 799 658 799 972 q 711 417 799 496 q 457 338 624 338 l 285 338 l 285 0 l 107 0 l 107 972 m 436 486 q 573 528 528 486 q 618 656 618 569 q 572 783 618 742 q 432 824 526 824 l 285 824 l 285 486 l 436 486 z "},"Þ":{"ha":789,"x_min":107,"x_max":760,"o":"m 107 972 l 285 972 l 285 771 l 449 771 q 681 701 601 771 q 760 500 760 631 q 681 299 760 369 q 449 229 601 229 l 285 229 l 285 0 l 107 0 l 107 972 m 428 378 q 545 408 511 378 q 579 500 579 439 q 546 594 579 567 q 428 622 513 622 l 285 622 l 285 378 l 428 378 z "},"Q":{"ha":1056,"x_min":49,"x_max":1007,"o":"m 1007 486 q 918 175 1007 306 l 1006 92 l 896 -26 l 804 61 q 528 -19 682 -19 q 281 44 390 -19 q 110 222 172 107 q 49 486 49 336 q 110 751 49 636 q 281 928 172 865 q 528 992 390 992 q 774 928 665 992 q 945 751 883 865 q 1007 486 1007 636 m 528 153 q 672 186 613 153 l 557 296 l 667 414 l 783 303 q 821 486 821 381 q 745 728 821 636 q 528 819 669 819 q 310 728 386 819 q 235 486 235 636 q 310 244 235 336 q 528 153 386 153 z "},"R":{"ha":869,"x_min":107,"x_max":851,"o":"m 107 972 l 463 972 q 708 898 618 972 q 797 678 797 824 q 754 512 797 576 q 632 408 711 447 l 851 0 l 653 0 l 465 361 l 285 361 l 285 0 l 107 0 l 107 972 m 415 510 q 611 668 611 510 q 567 784 611 744 q 422 824 522 824 l 285 824 l 285 510 l 415 510 z "},"Ŕ":{"ha":869,"x_min":107,"x_max":851,"o":"m 107 972 l 463 972 q 708 898 618 972 q 797 678 797 824 q 754 512 797 576 q 632 408 711 447 l 851 0 l 653 0 l 465 361 l 285 361 l 285 0 l 107 0 l 107 972 m 415 510 q 611 668 611 510 q 567 784 611 744 q 422 824 522 824 l 285 824 l 285 510 l 415 510 m 307 1150 l 581 1282 l 581 1135 l 307 1054 l 307 1150 z "},"Ř":{"ha":869,"x_min":107,"x_max":851,"o":"m 107 972 l 463 972 q 708 898 618 972 q 797 678 797 824 q 754 512 797 576 q 632 408 711 447 l 851 0 l 653 0 l 465 361 l 285 361 l 285 0 l 107 0 l 107 972 m 415 510 q 611 668 611 510 q 567 784 611 744 q 422 824 522 824 l 285 824 l 285 510 l 415 510 m 260 1203 l 260 1306 l 443 1206 l 626 1306 l 626 1203 l 443 1075 l 260 1203 z "},"Ŗ":{"ha":869,"x_min":107,"x_max":851,"o":"m 107 972 l 463 972 q 708 898 618 972 q 797 678 797 824 q 754 512 797 576 q 632 408 711 447 l 851 0 l 653 0 l 465 361 l 285 361 l 285 0 l 107 0 l 107 972 m 415 510 q 611 668 611 510 q 567 784 611 744 q 422 824 522 824 l 285 824 l 285 510 l 415 510 m 404 -436 l 457 -283 l 393 -283 l 393 -126 l 564 -126 l 564 -267 l 478 -436 l 404 -436 z "},"Ȑ":{"ha":869,"x_min":107,"x_max":851,"o":"m 107 972 l 463 972 q 708 898 618 972 q 797 678 797 824 q 754 512 797 576 q 632 408 711 447 l 851 0 l 653 0 l 465 361 l 285 361 l 285 0 l 107 0 l 107 972 m 415 510 q 611 668 611 510 q 567 784 611 744 q 422 824 522 824 l 285 824 l 285 510 l 415 510 m 283 1094 l 144 1313 l 304 1313 l 393 1094 l 283 1094 m 488 1094 l 360 1313 l 519 1313 l 597 1094 l 488 1094 z "},"Ṛ":{"ha":869,"x_min":107,"x_max":851,"o":"m 107 972 l 463 972 q 708 898 618 972 q 797 678 797 824 q 754 512 797 576 q 632 408 711 447 l 851 0 l 653 0 l 465 361 l 285 361 l 285 0 l 107 0 l 107 972 m 415 510 q 611 668 611 510 q 567 784 611 744 q 422 824 522 824 l 285 824 l 285 510 l 415 510 m 404 -112 l 549 -112 l 549 -247 l 404 -247 l 404 -112 z "},"Ȓ":{"ha":869,"x_min":107,"x_max":851,"o":"m 107 972 l 463 972 q 708 898 618 972 q 797 678 797 824 q 754 512 797 576 q 632 408 711 447 l 851 0 l 653 0 l 465 361 l 285 361 l 285 0 l 107 0 l 107 972 m 415 510 q 611 668 611 510 q 567 784 611 744 q 422 824 522 824 l 285 824 l 285 510 l 415 510 m 443 1267 q 599 1214 540 1267 q 657 1083 657 1161 l 539 1083 q 513 1149 539 1125 q 443 1172 488 1172 q 373 1149 399 1172 q 347 1083 347 1125 l 229 1083 q 256 1176 229 1133 q 331 1242 282 1218 q 443 1267 379 1267 z "},"Ṟ":{"ha":869,"x_min":107,"x_max":851,"o":"m 107 972 l 463 972 q 708 898 618 972 q 797 678 797 824 q 754 512 797 576 q 632 408 711 447 l 851 0 l 653 0 l 465 361 l 285 361 l 285 0 l 107 0 l 107 972 m 415 510 q 611 668 611 510 q 567 784 611 744 q 422 824 522 824 l 285 824 l 285 510 l 415 510 m 249 -126 l 704 -126 l 704 -239 l 249 -239 l 249 -126 z "},"S":{"ha":806,"x_min":67,"x_max":765,"o":"m 389 -19 q 213 3 307 -19 q 67 51 119 25 l 88 240 q 410 151 271 151 q 525 180 483 151 q 567 264 567 208 q 544 333 567 306 q 478 378 521 360 q 340 431 435 397 q 193 495 251 461 q 101 583 135 529 q 67 714 67 636 q 158 915 67 839 q 421 992 250 992 q 581 974 501 992 q 728 929 661 956 l 710 747 q 552 803 624 785 q 410 822 481 822 q 289 796 331 822 q 247 719 247 769 q 269 656 247 681 q 330 614 292 631 q 443 574 368 597 q 688 452 611 521 q 765 264 765 383 q 686 65 765 150 q 389 -19 607 -19 z "},"Ś":{"ha":806,"x_min":67,"x_max":765,"o":"m 389 -19 q 213 3 307 -19 q 67 51 119 25 l 88 240 q 410 151 271 151 q 525 180 483 151 q 567 264 567 208 q 544 333 567 306 q 478 378 521 360 q 340 431 435 397 q 193 495 251 461 q 101 583 135 529 q 67 714 67 636 q 158 915 67 839 q 421 992 250 992 q 581 974 501 992 q 728 929 661 956 l 710 747 q 552 803 624 785 q 410 822 481 822 q 289 796 331 822 q 247 719 247 769 q 269 656 247 681 q 330 614 292 631 q 443 574 368 597 q 688 452 611 521 q 765 264 765 383 q 686 65 765 150 q 389 -19 607 -19 m 296 1150 l 569 1282 l 569 1135 l 296 1054 l 296 1150 z "},"Ṥ":{"ha":806,"x_min":67,"x_max":765,"o":"m 389 -19 q 213 3 307 -19 q 67 51 119 25 l 88 240 q 410 151 271 151 q 525 180 483 151 q 567 264 567 208 q 544 333 567 306 q 478 378 521 360 q 340 431 435 397 q 193 495 251 461 q 101 583 135 529 q 67 714 67 636 q 158 915 67 839 q 421 992 250 992 q 581 974 501 992 q 728 929 661 956 l 710 747 q 552 803 624 785 q 410 822 481 822 q 289 796 331 822 q 247 719 247 769 q 269 656 247 681 q 330 614 292 631 q 443 574 368 597 q 688 452 611 521 q 765 264 765 383 q 686 65 765 150 q 389 -19 607 -19 m 296 1150 l 569 1282 l 569 1135 l 296 1054 l 296 1150 m 360 1474 l 504 1474 l 504 1339 l 360 1339 l 360 1474 z "},"Š":{"ha":806,"x_min":67,"x_max":765,"o":"m 389 -19 q 213 3 307 -19 q 67 51 119 25 l 88 240 q 410 151 271 151 q 525 180 483 151 q 567 264 567 208 q 544 333 567 306 q 478 378 521 360 q 340 431 435 397 q 193 495 251 461 q 101 583 135 529 q 67 714 67 636 q 158 915 67 839 q 421 992 250 992 q 581 974 501 992 q 728 929 661 956 l 710 747 q 552 803 624 785 q 410 822 481 822 q 289 796 331 822 q 247 719 247 769 q 269 656 247 681 q 330 614 292 631 q 443 574 368 597 q 688 452 611 521 q 765 264 765 383 q 686 65 765 150 q 389 -19 607 -19 m 249 1203 l 249 1306 l 432 1206 l 615 1306 l 615 1203 l 432 1075 l 249 1203 z "},"Ṧ":{"ha":806,"x_min":67,"x_max":765,"o":"m 389 -19 q 213 3 307 -19 q 67 51 119 25 l 88 240 q 410 151 271 151 q 525 180 483 151 q 567 264 567 208 q 544 333 567 306 q 478 378 521 360 q 340 431 435 397 q 193 495 251 461 q 101 583 135 529 q 67 714 67 636 q 158 915 67 839 q 421 992 250 992 q 581 974 501 992 q 728 929 661 956 l 710 747 q 552 803 624 785 q 410 822 481 822 q 289 796 331 822 q 247 719 247 769 q 269 656 247 681 q 330 614 292 631 q 443 574 368 597 q 688 452 611 521 q 765 264 765 383 q 686 65 765 150 q 389 -19 607 -19 m 249 1203 l 249 1306 l 432 1206 l 615 1306 l 615 1203 l 432 1075 l 249 1203 m 360 1492 l 504 1492 l 504 1357 l 360 1357 l 360 1492 z "},"Ş":{"ha":806,"x_min":67,"x_max":765,"o":"m 765 264 q 697 76 765 158 q 443 -18 629 -6 l 426 -75 l 429 -75 q 525 -107 490 -75 q 560 -196 560 -139 q 515 -297 560 -261 q 403 -332 471 -332 q 289 -306 339 -332 l 315 -224 q 406 -247 365 -247 q 453 -235 436 -247 q 471 -201 471 -224 q 400 -153 471 -153 q 333 -162 368 -153 l 368 -19 q 202 5 289 -17 q 67 51 115 26 l 88 240 q 410 151 271 151 q 525 180 483 151 q 567 264 567 208 q 544 333 567 306 q 478 378 521 360 q 340 431 435 397 q 193 495 251 461 q 101 583 135 529 q 67 714 67 636 q 158 915 67 839 q 421 992 250 992 q 581 974 501 992 q 728 929 661 956 l 710 747 q 552 803 624 785 q 410 822 481 822 q 289 796 331 822 q 247 719 247 769 q 269 656 247 681 q 330 614 292 631 q 443 574 368 597 q 688 452 611 521 q 765 264 765 383 z "},"Ŝ":{"ha":806,"x_min":67,"x_max":765,"o":"m 389 -19 q 213 3 307 -19 q 67 51 119 25 l 88 240 q 410 151 271 151 q 525 180 483 151 q 567 264 567 208 q 544 333 567 306 q 478 378 521 360 q 340 431 435 397 q 193 495 251 461 q 101 583 135 529 q 67 714 67 636 q 158 915 67 839 q 421 992 250 992 q 581 974 501 992 q 728 929 661 956 l 710 747 q 552 803 624 785 q 410 822 481 822 q 289 796 331 822 q 247 719 247 769 q 269 656 247 681 q 330 614 292 631 q 443 574 368 597 q 688 452 611 521 q 765 264 765 383 q 686 65 765 150 q 389 -19 607 -19 m 615 1138 l 615 1035 l 432 1135 l 249 1035 l 249 1138 l 432 1265 l 615 1138 z "},"Ș":{"ha":806,"x_min":67,"x_max":765,"o":"m 389 -19 q 213 3 307 -19 q 67 51 119 25 l 88 240 q 410 151 271 151 q 525 180 483 151 q 567 264 567 208 q 544 333 567 306 q 478 378 521 360 q 340 431 435 397 q 193 495 251 461 q 101 583 135 529 q 67 714 67 636 q 158 915 67 839 q 421 992 250 992 q 581 974 501 992 q 728 929 661 956 l 710 747 q 552 803 624 785 q 410 822 481 822 q 289 796 331 822 q 247 719 247 769 q 269 656 247 681 q 330 614 292 631 q 443 574 368 597 q 688 452 611 521 q 765 264 765 383 q 686 65 765 150 q 389 -19 607 -19 m 335 -436 l 388 -283 l 324 -283 l 324 -126 l 494 -126 l 494 -267 l 408 -436 l 335 -436 z "},"Ṡ":{"ha":806,"x_min":67,"x_max":765,"o":"m 389 -19 q 213 3 307 -19 q 67 51 119 25 l 88 240 q 410 151 271 151 q 525 180 483 151 q 567 264 567 208 q 544 333 567 306 q 478 378 521 360 q 340 431 435 397 q 193 495 251 461 q 101 583 135 529 q 67 714 67 636 q 158 915 67 839 q 421 992 250 992 q 581 974 501 992 q 728 929 661 956 l 710 747 q 552 803 624 785 q 410 822 481 822 q 289 796 331 822 q 247 719 247 769 q 269 656 247 681 q 330 614 292 631 q 443 574 368 597 q 688 452 611 521 q 765 264 765 383 q 686 65 765 150 q 389 -19 607 -19 m 360 1235 l 504 1235 l 504 1100 l 360 1100 l 360 1235 z "},"Ṣ":{"ha":806,"x_min":67,"x_max":765,"o":"m 389 -19 q 213 3 307 -19 q 67 51 119 25 l 88 240 q 410 151 271 151 q 525 180 483 151 q 567 264 567 208 q 544 333 567 306 q 478 378 521 360 q 340 431 435 397 q 193 495 251 461 q 101 583 135 529 q 67 714 67 636 q 158 915 67 839 q 421 992 250 992 q 581 974 501 992 q 728 929 661 956 l 710 747 q 552 803 624 785 q 410 822 481 822 q 289 796 331 822 q 247 719 247 769 q 269 656 247 681 q 330 614 292 631 q 443 574 368 597 q 688 452 611 521 q 765 264 765 383 q 686 65 765 150 q 389 -19 607 -19 m 335 -112 l 479 -112 l 479 -247 l 335 -247 l 335 -112 z "},"Ṩ":{"ha":806,"x_min":67,"x_max":765,"o":"m 389 -19 q 213 3 307 -19 q 67 51 119 25 l 88 240 q 410 151 271 151 q 525 180 483 151 q 567 264 567 208 q 544 333 567 306 q 478 378 521 360 q 340 431 435 397 q 193 495 251 461 q 101 583 135 529 q 67 714 67 636 q 158 915 67 839 q 421 992 250 992 q 581 974 501 992 q 728 929 661 956 l 710 747 q 552 803 624 785 q 410 822 481 822 q 289 796 331 822 q 247 719 247 769 q 269 656 247 681 q 330 614 292 631 q 443 574 368 597 q 688 452 611 521 q 765 264 765 383 q 686 65 765 150 q 389 -19 607 -19 m 360 1235 l 504 1235 l 504 1100 l 360 1100 l 360 1235 m 335 -112 l 479 -112 l 479 -247 l 335 -247 l 335 -112 z "},"ẞ":{"ha":931,"x_min":107,"x_max":897,"o":"m 633 574 q 828 482 758 553 q 897 285 897 411 q 804 59 897 138 q 565 -19 711 -19 q 399 0 479 -19 l 399 165 q 539 151 464 151 q 658 190 614 151 q 703 294 703 228 q 656 403 703 365 q 517 442 608 442 l 451 442 l 451 589 l 663 808 q 507 835 590 835 q 345 780 406 835 q 285 629 285 725 l 285 0 l 107 0 l 107 626 q 215 899 107 806 q 507 992 322 992 q 677 969 599 992 q 814 910 756 947 l 814 763 l 633 574 z "},"Ə":{"ha":992,"x_min":42,"x_max":943,"o":"m 443 992 q 712 924 599 992 q 884 738 825 856 q 943 472 943 619 q 887 220 943 332 q 724 44 831 108 q 474 -19 618 -19 q 248 33 346 -19 q 96 183 150 86 q 42 408 42 281 q 53 522 42 468 l 747 522 q 653 743 735 665 q 428 821 571 821 q 110 743 272 821 l 99 910 q 260 969 171 947 q 443 992 349 992 m 479 151 q 648 206 581 151 q 738 364 715 260 l 236 364 q 305 210 243 269 q 479 151 367 151 z "},"T":{"ha":769,"x_min":21,"x_max":749,"o":"m 296 800 l 21 800 l 21 972 l 749 972 l 749 800 l 474 800 l 474 0 l 296 0 l 296 800 z "},"Ŧ":{"ha":769,"x_min":21,"x_max":749,"o":"m 474 800 l 474 540 l 668 540 l 668 425 l 474 425 l 474 0 l 296 0 l 296 425 l 101 425 l 101 540 l 296 540 l 296 800 l 21 800 l 21 972 l 749 972 l 749 800 l 474 800 z "},"Ť":{"ha":769,"x_min":21,"x_max":749,"o":"m 296 800 l 21 800 l 21 972 l 749 972 l 749 800 l 474 800 l 474 0 l 296 0 l 296 800 m 201 1210 l 201 1319 l 385 1204 l 568 1319 l 568 1210 l 385 1054 l 201 1210 z "},"Ţ":{"ha":769,"x_min":21,"x_max":749,"o":"m 296 800 l 21 800 l 21 972 l 749 972 l 749 800 l 474 800 l 474 0 l 296 0 l 296 800 m 407 -75 q 503 -107 468 -75 q 538 -196 538 -139 q 493 -297 538 -261 q 381 -332 449 -332 q 267 -306 317 -332 l 293 -224 q 383 -247 343 -247 q 431 -235 414 -247 q 449 -201 449 -224 q 378 -153 449 -153 q 311 -162 346 -153 l 350 0 l 426 0 l 404 -75 l 407 -75 z "},"Ț":{"ha":769,"x_min":21,"x_max":749,"o":"m 296 800 l 21 800 l 21 972 l 749 972 l 749 800 l 474 800 l 474 0 l 296 0 l 296 800 m 313 -436 l 365 -283 l 301 -283 l 301 -126 l 472 -126 l 472 -267 l 386 -436 l 313 -436 z "},"Ṭ":{"ha":769,"x_min":21,"x_max":749,"o":"m 296 800 l 21 800 l 21 972 l 749 972 l 749 800 l 474 800 l 474 0 l 296 0 l 296 800 m 313 -112 l 457 -112 l 457 -247 l 313 -247 l 313 -112 z "},"Ṯ":{"ha":769,"x_min":21,"x_max":749,"o":"m 296 800 l 21 800 l 21 972 l 749 972 l 749 800 l 474 800 l 474 0 l 296 0 l 296 800 m 157 -126 l 613 -126 l 613 -239 l 157 -239 l 157 -126 z "},"U":{"ha":997,"x_min":96,"x_max":901,"o":"m 499 -19 q 197 97 299 -19 q 96 417 96 213 l 96 972 l 274 972 l 274 463 q 292 294 274 361 q 359 189 310 226 q 499 151 408 151 q 638 189 589 151 q 706 294 688 226 q 724 463 724 361 l 724 972 l 901 972 l 901 417 q 800 97 901 213 q 499 -19 699 -19 z "},"Ú":{"ha":997,"x_min":96,"x_max":901,"o":"m 499 -19 q 197 97 299 -19 q 96 417 96 213 l 96 972 l 274 972 l 274 463 q 292 294 274 361 q 359 189 310 226 q 499 151 408 151 q 638 189 589 151 q 706 294 688 226 q 724 463 724 361 l 724 972 l 901 972 l 901 417 q 800 97 901 213 q 499 -19 699 -19 m 363 1150 l 636 1282 l 636 1135 l 363 1054 l 363 1150 z "},"Ŭ":{"ha":997,"x_min":96,"x_max":901,"o":"m 499 -19 q 197 97 299 -19 q 96 417 96 213 l 96 972 l 274 972 l 274 463 q 292 294 274 361 q 359 189 310 226 q 499 151 408 151 q 638 189 589 151 q 706 294 688 226 q 724 463 724 361 l 724 972 l 901 972 l 901 417 q 800 97 901 213 q 499 -19 699 -19 m 499 1063 q 386 1087 435 1063 q 311 1153 338 1111 q 285 1246 285 1196 l 403 1246 q 428 1181 403 1204 q 499 1157 454 1157 q 569 1181 543 1157 q 594 1246 594 1204 l 713 1246 q 654 1115 713 1168 q 499 1063 596 1063 z "},"Û":{"ha":997,"x_min":96,"x_max":901,"o":"m 499 -19 q 197 97 299 -19 q 96 417 96 213 l 96 972 l 274 972 l 274 463 q 292 294 274 361 q 359 189 310 226 q 499 151 408 151 q 638 189 589 151 q 706 294 688 226 q 724 463 724 361 l 724 972 l 901 972 l 901 417 q 800 97 901 213 q 499 -19 699 -19 m 682 1138 l 682 1035 l 499 1135 l 315 1035 l 315 1138 l 499 1265 l 682 1138 z "},"Ȕ":{"ha":997,"x_min":96,"x_max":901,"o":"m 499 -19 q 197 97 299 -19 q 96 417 96 213 l 96 972 l 274 972 l 274 463 q 292 294 274 361 q 359 189 310 226 q 499 151 408 151 q 638 189 589 151 q 706 294 688 226 q 724 463 724 361 l 724 972 l 901 972 l 901 417 q 800 97 901 213 q 499 -19 699 -19 m 350 1094 l 200 1340 l 360 1340 l 460 1094 l 350 1094 m 554 1094 l 415 1340 l 575 1340 l 664 1094 l 554 1094 z "},"Ü":{"ha":997,"x_min":96,"x_max":901,"o":"m 499 -19 q 197 97 299 -19 q 96 417 96 213 l 96 972 l 274 972 l 274 463 q 292 294 274 361 q 359 189 310 226 q 499 151 408 151 q 638 189 589 151 q 706 294 688 226 q 724 463 724 361 l 724 972 l 901 972 l 901 417 q 800 97 901 213 q 499 -19 699 -19 m 292 1207 l 425 1207 l 425 1088 l 292 1088 l 292 1207 m 572 1207 l 706 1207 l 706 1088 l 572 1088 l 572 1207 z "},"Ụ":{"ha":997,"x_min":96,"x_max":901,"o":"m 499 -19 q 197 97 299 -19 q 96 417 96 213 l 96 972 l 274 972 l 274 463 q 292 294 274 361 q 359 189 310 226 q 499 151 408 151 q 638 189 589 151 q 706 294 688 226 q 724 463 724 361 l 724 972 l 901 972 l 901 417 q 800 97 901 213 q 499 -19 699 -19 m 426 -112 l 571 -112 l 571 -247 l 426 -247 l 426 -112 z "},"Ù":{"ha":997,"x_min":96,"x_max":901,"o":"m 499 -19 q 197 97 299 -19 q 96 417 96 213 l 96 972 l 274 972 l 274 463 q 292 294 274 361 q 359 189 310 226 q 499 151 408 151 q 638 189 589 151 q 706 294 688 226 q 724 463 724 361 l 724 972 l 901 972 l 901 417 q 800 97 901 213 q 499 -19 699 -19 m 361 1135 l 361 1282 l 635 1150 l 635 1054 l 361 1135 z "},"Ủ":{"ha":997,"x_min":96,"x_max":901,"o":"m 499 -19 q 197 97 299 -19 q 96 417 96 213 l 96 972 l 274 972 l 274 463 q 292 294 274 361 q 359 189 310 226 q 499 151 408 151 q 638 189 589 151 q 706 294 688 226 q 724 463 724 361 l 724 972 l 901 972 l 901 417 q 800 97 901 213 q 499 -19 699 -19 m 476 1117 q 515 1134 503 1124 q 528 1164 528 1144 q 476 1203 528 1203 q 392 1176 440 1203 l 368 1261 q 479 1288 421 1288 q 578 1257 539 1288 q 617 1172 617 1226 q 587 1097 617 1125 q 492 1056 557 1068 l 476 1117 z "},"Ư":{"ha":997,"x_min":96,"x_max":1060,"o":"m 1060 1075 q 1015 951 1060 1004 q 901 875 971 899 l 901 417 q 800 97 901 213 q 499 -19 699 -19 q 197 97 299 -19 q 96 417 96 213 l 96 972 l 274 972 l 274 463 q 292 294 274 361 q 359 189 310 226 q 499 151 408 151 q 638 189 589 151 q 706 294 688 226 q 724 463 724 361 l 724 972 l 801 972 q 913 1075 913 972 l 1060 1075 z "},"Ứ":{"ha":997,"x_min":96,"x_max":1060,"o":"m 1060 1075 q 1015 951 1060 1004 q 901 875 971 899 l 901 417 q 800 97 901 213 q 499 -19 699 -19 q 197 97 299 -19 q 96 417 96 213 l 96 972 l 274 972 l 274 463 q 292 294 274 361 q 359 189 310 226 q 499 151 408 151 q 638 189 589 151 q 706 294 688 226 q 724 463 724 361 l 724 972 l 801 972 q 913 1075 913 972 l 1060 1075 m 363 1179 l 636 1335 l 636 1175 l 363 1069 l 363 1179 z "},"Ự":{"ha":997,"x_min":96,"x_max":1060,"o":"m 1060 1075 q 1015 951 1060 1004 q 901 875 971 899 l 901 417 q 800 97 901 213 q 499 -19 699 -19 q 197 97 299 -19 q 96 417 96 213 l 96 972 l 274 972 l 274 463 q 292 294 274 361 q 359 189 310 226 q 499 151 408 151 q 638 189 589 151 q 706 294 688 226 q 724 463 724 361 l 724 972 l 801 972 q 913 1075 913 972 l 1060 1075 m 426 -112 l 571 -112 l 571 -247 l 426 -247 l 426 -112 z "},"Ừ":{"ha":997,"x_min":96,"x_max":1060,"o":"m 1060 1075 q 1015 951 1060 1004 q 901 875 971 899 l 901 417 q 800 97 901 213 q 499 -19 699 -19 q 197 97 299 -19 q 96 417 96 213 l 96 972 l 274 972 l 274 463 q 292 294 274 361 q 359 189 310 226 q 499 151 408 151 q 638 189 589 151 q 706 294 688 226 q 724 463 724 361 l 724 972 l 801 972 q 913 1075 913 972 l 1060 1075 m 361 1175 l 361 1335 l 635 1179 l 635 1069 l 361 1175 z "},"Ử":{"ha":997,"x_min":96,"x_max":1060,"o":"m 1060 1075 q 1015 951 1060 1004 q 901 875 971 899 l 901 417 q 800 97 901 213 q 499 -19 699 -19 q 197 97 299 -19 q 96 417 96 213 l 96 972 l 274 972 l 274 463 q 292 294 274 361 q 359 189 310 226 q 499 151 408 151 q 638 189 589 151 q 706 294 688 226 q 724 463 724 361 l 724 972 l 801 972 q 913 1075 913 972 l 1060 1075 m 476 1117 q 515 1134 503 1124 q 528 1164 528 1144 q 476 1203 528 1203 q 392 1176 440 1203 l 368 1261 q 479 1288 421 1288 q 578 1257 539 1288 q 617 1172 617 1226 q 587 1097 617 1125 q 492 1056 557 1068 l 476 1117 z "},"Ữ":{"ha":997,"x_min":96,"x_max":1060,"o":"m 1060 1075 q 1015 951 1060 1004 q 901 875 971 899 l 901 417 q 800 97 901 213 q 499 -19 699 -19 q 197 97 299 -19 q 96 417 96 213 l 96 972 l 274 972 l 274 463 q 292 294 274 361 q 359 189 310 226 q 499 151 408 151 q 638 189 589 151 q 706 294 688 226 q 724 463 724 361 l 724 972 l 801 972 q 913 1075 913 972 l 1060 1075 m 617 1081 q 570 1089 593 1081 q 514 1113 547 1097 q 465 1134 485 1126 q 426 1142 444 1142 q 392 1128 404 1142 q 379 1092 379 1115 l 261 1092 q 294 1217 264 1174 q 381 1260 325 1260 q 427 1251 404 1260 q 483 1228 450 1243 q 533 1206 513 1214 q 571 1199 553 1199 q 606 1212 593 1199 q 618 1249 618 1225 l 736 1249 q 703 1124 733 1167 q 617 1081 672 1081 z "},"Ű":{"ha":997,"x_min":96,"x_max":901,"o":"m 499 -19 q 197 97 299 -19 q 96 417 96 213 l 96 972 l 274 972 l 274 463 q 292 294 274 361 q 359 189 310 226 q 499 151 408 151 q 638 189 589 151 q 706 294 688 226 q 724 463 724 361 l 724 972 l 901 972 l 901 417 q 800 97 901 213 q 499 -19 699 -19 m 428 1313 l 588 1313 l 446 1094 l 336 1094 l 428 1313 m 643 1313 l 803 1313 l 650 1094 l 540 1094 l 643 1313 z "},"Ȗ":{"ha":997,"x_min":96,"x_max":901,"o":"m 499 -19 q 197 97 299 -19 q 96 417 96 213 l 96 972 l 274 972 l 274 463 q 292 294 274 361 q 359 189 310 226 q 499 151 408 151 q 638 189 589 151 q 706 294 688 226 q 724 463 724 361 l 724 972 l 901 972 l 901 417 q 800 97 901 213 q 499 -19 699 -19 m 499 1267 q 654 1214 596 1267 q 713 1083 713 1161 l 594 1083 q 569 1149 594 1125 q 499 1172 543 1172 q 428 1149 454 1172 q 403 1083 403 1125 l 285 1083 q 311 1176 285 1133 q 386 1242 338 1218 q 499 1267 435 1267 z "},"Ū":{"ha":997,"x_min":96,"x_max":901,"o":"m 499 -19 q 197 97 299 -19 q 96 417 96 213 l 96 972 l 274 972 l 274 463 q 292 294 274 361 q 359 189 310 226 q 499 151 408 151 q 638 189 589 151 q 706 294 688 226 q 724 463 724 361 l 724 972 l 901 972 l 901 417 q 800 97 901 213 q 499 -19 699 -19 m 271 1207 l 726 1207 l 726 1101 l 271 1101 l 271 1207 z "},"Ṻ":{"ha":997,"x_min":96,"x_max":901,"o":"m 499 -19 q 197 97 299 -19 q 96 417 96 213 l 96 972 l 274 972 l 274 463 q 292 294 274 361 q 359 189 310 226 q 499 151 408 151 q 638 189 589 151 q 706 294 688 226 q 724 463 724 361 l 724 972 l 901 972 l 901 417 q 800 97 901 213 q 499 -19 699 -19 m 271 1207 l 726 1207 l 726 1101 l 271 1101 l 271 1207 m 292 1446 l 425 1446 l 425 1326 l 292 1326 l 292 1446 m 572 1446 l 706 1446 l 706 1326 l 572 1326 l 572 1446 z "},"Ų":{"ha":997,"x_min":96,"x_max":901,"o":"m 901 972 l 901 417 q 834 142 901 251 q 633 -3 767 33 q 557 -76 583 -42 q 531 -144 531 -110 q 549 -192 531 -176 q 597 -208 567 -208 q 681 -189 639 -208 l 704 -265 q 583 -293 651 -293 q 481 -261 521 -293 q 442 -171 442 -229 q 526 -19 442 -90 l 499 -19 q 197 97 299 -19 q 96 417 96 213 l 96 972 l 274 972 l 274 463 q 292 294 274 361 q 359 189 310 226 q 499 151 408 151 q 638 189 589 151 q 706 294 688 226 q 724 463 724 361 l 724 972 l 901 972 z "},"Ů":{"ha":997,"x_min":96,"x_max":901,"o":"m 499 -19 q 197 97 299 -19 q 96 417 96 213 l 96 972 l 274 972 l 274 463 q 292 294 274 361 q 359 189 310 226 q 499 151 408 151 q 638 189 589 151 q 706 294 688 226 q 724 463 724 361 l 724 972 l 901 972 l 901 417 q 800 97 901 213 q 499 -19 699 -19 m 499 1047 q 392 1086 432 1047 q 351 1182 351 1125 q 392 1278 351 1239 q 499 1318 433 1318 q 606 1278 565 1318 q 646 1182 646 1239 q 606 1086 646 1125 q 499 1047 565 1047 m 499 1119 q 544 1137 526 1119 q 563 1182 563 1154 q 544 1226 563 1208 q 499 1244 526 1244 q 453 1226 471 1244 q 435 1182 435 1208 q 453 1137 435 1154 q 499 1119 471 1119 z "},"Ũ":{"ha":997,"x_min":96,"x_max":901,"o":"m 499 -19 q 197 97 299 -19 q 96 417 96 213 l 96 972 l 274 972 l 274 463 q 292 294 274 361 q 359 189 310 226 q 499 151 408 151 q 638 189 589 151 q 706 294 688 226 q 724 463 724 361 l 724 972 l 901 972 l 901 417 q 800 97 901 213 q 499 -19 699 -19 m 619 1079 q 574 1087 597 1079 q 513 1111 551 1094 q 476 1126 506 1114 q 425 1138 446 1138 q 379 1089 379 1138 l 274 1089 q 378 1235 274 1235 q 423 1227 400 1235 q 485 1203 446 1219 q 522 1188 492 1200 q 572 1176 551 1176 q 618 1225 618 1176 l 724 1225 q 619 1079 724 1079 z "},"Ṹ":{"ha":997,"x_min":96,"x_max":901,"o":"m 499 -19 q 197 97 299 -19 q 96 417 96 213 l 96 972 l 274 972 l 274 463 q 292 294 274 361 q 359 189 310 226 q 499 151 408 151 q 638 189 589 151 q 706 294 688 226 q 724 463 724 361 l 724 972 l 901 972 l 901 417 q 800 97 901 213 q 499 -19 699 -19 m 619 1079 q 574 1087 597 1079 q 513 1111 551 1094 q 476 1126 506 1114 q 425 1138 446 1138 q 379 1089 379 1138 l 274 1089 q 378 1235 274 1235 q 423 1227 400 1235 q 485 1203 446 1219 q 522 1188 492 1200 q 572 1176 551 1176 q 618 1225 618 1176 l 724 1225 q 619 1079 724 1079 m 363 1378 l 636 1510 l 636 1363 l 363 1282 l 363 1378 z "},"V":{"ha":860,"x_min":0,"x_max":860,"o":"m 860 972 l 514 0 l 346 0 l 0 972 l 179 972 l 429 257 l 681 972 l 860 972 z "},"W":{"ha":1338,"x_min":14,"x_max":1329,"o":"m 14 972 l 199 972 l 393 282 l 610 972 l 733 972 l 958 300 l 1144 972 l 1329 972 l 1044 0 l 888 0 l 671 649 l 456 0 l 288 0 l 14 972 z "},"Ẃ":{"ha":1338,"x_min":14,"x_max":1329,"o":"m 14 972 l 199 972 l 393 282 l 610 972 l 733 972 l 958 300 l 1144 972 l 1329 972 l 1044 0 l 888 0 l 671 649 l 456 0 l 288 0 l 14 972 m 533 1150 l 807 1282 l 807 1135 l 533 1054 l 533 1150 z "},"Ŵ":{"ha":1338,"x_min":14,"x_max":1329,"o":"m 14 972 l 199 972 l 393 282 l 610 972 l 733 972 l 958 300 l 1144 972 l 1329 972 l 1044 0 l 888 0 l 671 649 l 456 0 l 288 0 l 14 972 m 853 1138 l 853 1035 l 669 1135 l 486 1035 l 486 1138 l 669 1265 l 853 1138 z "},"Ẅ":{"ha":1338,"x_min":14,"x_max":1329,"o":"m 14 972 l 199 972 l 393 282 l 610 972 l 733 972 l 958 300 l 1144 972 l 1329 972 l 1044 0 l 888 0 l 671 649 l 456 0 l 288 0 l 14 972 m 463 1207 l 596 1207 l 596 1088 l 463 1088 l 463 1207 m 743 1207 l 876 1207 l 876 1088 l 743 1088 l 743 1207 z "},"Ẁ":{"ha":1338,"x_min":14,"x_max":1329,"o":"m 14 972 l 199 972 l 393 282 l 610 972 l 733 972 l 958 300 l 1144 972 l 1329 972 l 1044 0 l 888 0 l 671 649 l 456 0 l 288 0 l 14 972 m 532 1135 l 532 1282 l 806 1150 l 806 1054 l 532 1135 z "},"X":{"ha":869,"x_min":-3,"x_max":872,"o":"m 338 499 l 14 972 l 211 972 l 435 642 l 658 972 l 856 972 l 532 499 l 872 0 l 675 0 l 435 354 l 194 0 l -3 0 l 338 499 z "},"Y":{"ha":839,"x_min":-11,"x_max":850,"o":"m 850 972 l 508 393 l 508 0 l 331 0 l 331 393 l -11 972 l 183 972 l 419 553 l 656 972 l 850 972 z "},"Ý":{"ha":839,"x_min":-11,"x_max":850,"o":"m 850 972 l 508 393 l 508 0 l 331 0 l 331 393 l -11 972 l 183 972 l 419 553 l 656 972 l 850 972 m 283 1150 l 557 1282 l 557 1135 l 283 1054 l 283 1150 z "},"Ŷ":{"ha":839,"x_min":-11,"x_max":850,"o":"m 850 972 l 508 393 l 508 0 l 331 0 l 331 393 l -11 972 l 183 972 l 419 553 l 656 972 l 850 972 m 603 1138 l 603 1035 l 419 1135 l 236 1035 l 236 1138 l 419 1265 l 603 1138 z "},"Ÿ":{"ha":839,"x_min":-11,"x_max":850,"o":"m 850 972 l 508 393 l 508 0 l 331 0 l 331 393 l -11 972 l 183 972 l 419 553 l 656 972 l 850 972 m 213 1207 l 346 1207 l 346 1088 l 213 1088 l 213 1207 m 493 1207 l 626 1207 l 626 1088 l 493 1088 l 493 1207 z "},"Ẏ":{"ha":839,"x_min":-11,"x_max":850,"o":"m 850 972 l 508 393 l 508 0 l 331 0 l 331 393 l -11 972 l 183 972 l 419 553 l 656 972 l 850 972 m 347 1235 l 492 1235 l 492 1100 l 347 1100 l 347 1235 z "},"Ỵ":{"ha":839,"x_min":-11,"x_max":850,"o":"m 850 972 l 508 393 l 508 0 l 331 0 l 331 393 l -11 972 l 183 972 l 419 553 l 656 972 l 850 972 m 347 -112 l 492 -112 l 492 -247 l 347 -247 l 347 -112 z "},"Ỳ":{"ha":839,"x_min":-11,"x_max":850,"o":"m 850 972 l 508 393 l 508 0 l 331 0 l 331 393 l -11 972 l 183 972 l 419 553 l 656 972 l 850 972 m 282 1135 l 282 1282 l 556 1150 l 556 1054 l 282 1135 z "},"Ỷ":{"ha":839,"x_min":-11,"x_max":850,"o":"m 850 972 l 508 393 l 508 0 l 331 0 l 331 393 l -11 972 l 183 972 l 419 553 l 656 972 l 850 972 m 397 1117 q 436 1134 424 1124 q 449 1164 449 1144 q 397 1203 449 1203 q 313 1176 361 1203 l 289 1261 q 400 1288 342 1288 q 499 1257 460 1288 q 538 1172 538 1226 q 508 1097 538 1125 q 413 1056 478 1068 l 397 1117 z "},"Ȳ":{"ha":839,"x_min":-11,"x_max":850,"o":"m 850 972 l 508 393 l 508 0 l 331 0 l 331 393 l -11 972 l 183 972 l 419 553 l 656 972 l 850 972 m 192 1207 l 647 1207 l 647 1101 l 192 1101 l 192 1207 z "},"Ỹ":{"ha":839,"x_min":-11,"x_max":850,"o":"m 850 972 l 508 393 l 508 0 l 331 0 l 331 393 l -11 972 l 183 972 l 419 553 l 656 972 l 850 972 m 540 1079 q 495 1087 518 1079 q 433 1111 472 1094 q 397 1126 426 1114 q 346 1138 367 1138 q 300 1089 300 1138 l 194 1089 q 299 1235 194 1235 q 344 1227 321 1235 q 406 1203 367 1219 q 442 1188 413 1200 q 493 1176 472 1176 q 539 1225 539 1176 l 644 1225 q 540 1079 644 1079 z "},"Z":{"ha":761,"x_min":11,"x_max":751,"o":"m 286 158 l 744 158 l 744 0 l 11 0 l 476 814 l 74 814 l 74 972 l 751 972 l 286 158 z "},"Ź":{"ha":761,"x_min":11,"x_max":751,"o":"m 286 158 l 744 158 l 744 0 l 11 0 l 476 814 l 74 814 l 74 972 l 751 972 l 286 158 m 276 1150 l 550 1282 l 550 1135 l 276 1054 l 276 1150 z "},"Ž":{"ha":761,"x_min":11,"x_max":751,"o":"m 286 158 l 744 158 l 744 0 l 11 0 l 476 814 l 74 814 l 74 972 l 751 972 l 286 158 m 229 1203 l 229 1306 l 413 1206 l 596 1306 l 596 1203 l 413 1075 l 229 1203 z "},"Ż":{"ha":761,"x_min":11,"x_max":751,"o":"m 286 158 l 744 158 l 744 0 l 11 0 l 476 814 l 74 814 l 74 972 l 751 972 l 286 158 m 340 1235 l 485 1235 l 485 1100 l 340 1100 l 340 1235 z "},"Ẓ":{"ha":761,"x_min":11,"x_max":751,"o":"m 286 158 l 744 158 l 744 0 l 11 0 l 476 814 l 74 814 l 74 972 l 751 972 l 286 158 m 279 -112 l 424 -112 l 424 -247 l 279 -247 l 279 -112 z "},"a":{"ha":692,"x_min":29,"x_max":676,"o":"m 231 -14 q 87 42 144 -14 q 29 194 29 99 q 94 340 29 285 q 249 417 160 394 q 419 443 338 440 q 388 531 417 504 q 294 557 360 557 q 205 544 249 557 q 104 504 161 532 l 89 644 q 342 706 215 706 q 528 639 464 706 q 593 426 593 572 l 593 239 q 598 163 593 186 q 615 134 603 140 q 654 128 626 128 l 676 128 l 661 -14 l 599 -14 q 503 8 542 -14 q 443 67 464 29 q 352 8 410 29 q 231 -14 294 -14 m 303 118 q 363 131 329 118 q 421 168 396 144 l 421 326 q 274 290 338 322 q 210 201 210 258 q 232 138 210 158 q 303 118 254 118 z "},"á":{"ha":692,"x_min":29,"x_max":676,"o":"m 231 -14 q 87 42 144 -14 q 29 194 29 99 q 94 340 29 285 q 249 417 160 394 q 419 443 338 440 q 388 531 417 504 q 294 557 360 557 q 205 544 249 557 q 104 504 161 532 l 89 644 q 342 706 215 706 q 528 639 464 706 q 593 426 593 572 l 593 239 q 598 163 593 186 q 615 134 603 140 q 654 128 626 128 l 676 128 l 661 -14 l 599 -14 q 503 8 542 -14 q 443 67 464 29 q 352 8 410 29 q 231 -14 294 -14 m 303 118 q 363 131 329 118 q 421 168 396 144 l 421 326 q 274 290 338 322 q 210 201 210 258 q 232 138 210 158 q 303 118 254 118 m 206 901 l 479 1057 l 479 897 l 206 792 l 206 901 z "},"ă":{"ha":692,"x_min":29,"x_max":676,"o":"m 231 -14 q 87 42 144 -14 q 29 194 29 99 q 94 340 29 285 q 249 417 160 394 q 419 443 338 440 q 388 531 417 504 q 294 557 360 557 q 205 544 249 557 q 104 504 161 532 l 89 644 q 342 706 215 706 q 528 639 464 706 q 593 426 593 572 l 593 239 q 598 163 593 186 q 615 134 603 140 q 654 128 626 128 l 676 128 l 661 -14 l 599 -14 q 503 8 542 -14 q 443 67 464 29 q 352 8 410 29 q 231 -14 294 -14 m 303 118 q 363 131 329 118 q 421 168 396 144 l 421 326 q 274 290 338 322 q 210 201 210 258 q 232 138 210 158 q 303 118 254 118 m 342 815 q 229 841 278 815 q 154 911 181 867 q 128 1008 128 956 l 246 1008 q 272 943 246 967 q 342 919 297 919 q 412 943 386 919 q 438 1008 438 967 l 556 1008 q 497 871 556 926 q 342 815 439 815 z "},"ắ":{"ha":692,"x_min":29,"x_max":676,"o":"m 231 -14 q 87 42 144 -14 q 29 194 29 99 q 94 340 29 285 q 249 417 160 394 q 419 443 338 440 q 388 531 417 504 q 294 557 360 557 q 205 544 249 557 q 104 504 161 532 l 89 644 q 342 706 215 706 q 528 639 464 706 q 593 426 593 572 l 593 239 q 598 163 593 186 q 615 134 603 140 q 654 128 626 128 l 676 128 l 661 -14 l 599 -14 q 503 8 542 -14 q 443 67 464 29 q 352 8 410 29 q 231 -14 294 -14 m 303 118 q 363 131 329 118 q 421 168 396 144 l 421 326 q 274 290 338 322 q 210 201 210 258 q 232 138 210 158 q 303 118 254 118 m 342 785 q 229 809 278 785 q 154 876 181 833 q 128 968 128 918 l 246 968 q 272 903 246 926 q 342 879 297 879 q 412 903 386 879 q 438 968 438 926 l 556 968 q 497 838 556 890 q 342 785 439 785 m 206 1128 l 479 1260 l 479 1113 l 206 1032 l 206 1128 z "},"ặ":{"ha":692,"x_min":29,"x_max":676,"o":"m 231 -14 q 87 42 144 -14 q 29 194 29 99 q 94 340 29 285 q 249 417 160 394 q 419 443 338 440 q 388 531 417 504 q 294 557 360 557 q 205 544 249 557 q 104 504 161 532 l 89 644 q 342 706 215 706 q 528 639 464 706 q 593 426 593 572 l 593 239 q 598 163 593 186 q 615 134 603 140 q 654 128 626 128 l 676 128 l 661 -14 l 599 -14 q 503 8 542 -14 q 443 67 464 29 q 352 8 410 29 q 231 -14 294 -14 m 303 118 q 363 131 329 118 q 421 168 396 144 l 421 326 q 274 290 338 322 q 210 201 210 258 q 232 138 210 158 q 303 118 254 118 m 342 815 q 229 841 278 815 q 154 911 181 867 q 128 1008 128 956 l 246 1008 q 272 943 246 967 q 342 919 297 919 q 412 943 386 919 q 438 1008 438 967 l 556 1008 q 497 871 556 926 q 342 815 439 815 m 274 -112 l 418 -112 l 418 -247 l 274 -247 l 274 -112 z "},"ằ":{"ha":692,"x_min":29,"x_max":676,"o":"m 231 -14 q 87 42 144 -14 q 29 194 29 99 q 94 340 29 285 q 249 417 160 394 q 419 443 338 440 q 388 531 417 504 q 294 557 360 557 q 205 544 249 557 q 104 504 161 532 l 89 644 q 342 706 215 706 q 528 639 464 706 q 593 426 593 572 l 593 239 q 598 163 593 186 q 615 134 603 140 q 654 128 626 128 l 676 128 l 661 -14 l 599 -14 q 503 8 542 -14 q 443 67 464 29 q 352 8 410 29 q 231 -14 294 -14 m 303 118 q 363 131 329 118 q 421 168 396 144 l 421 326 q 274 290 338 322 q 210 201 210 258 q 232 138 210 158 q 303 118 254 118 m 342 785 q 229 809 278 785 q 154 876 181 833 q 128 968 128 918 l 246 968 q 272 903 246 926 q 342 879 297 879 q 412 903 386 879 q 438 968 438 926 l 556 968 q 497 838 556 890 q 342 785 439 785 m 204 1113 l 204 1260 l 478 1128 l 478 1032 l 204 1113 z "},"ẳ":{"ha":692,"x_min":29,"x_max":676,"o":"m 231 -14 q 87 42 144 -14 q 29 194 29 99 q 94 340 29 285 q 249 417 160 394 q 419 443 338 440 q 388 531 417 504 q 294 557 360 557 q 205 544 249 557 q 104 504 161 532 l 89 644 q 342 706 215 706 q 528 639 464 706 q 593 426 593 572 l 593 239 q 598 163 593 186 q 615 134 603 140 q 654 128 626 128 l 676 128 l 661 -14 l 599 -14 q 503 8 542 -14 q 443 67 464 29 q 352 8 410 29 q 231 -14 294 -14 m 303 118 q 363 131 329 118 q 421 168 396 144 l 421 326 q 274 290 338 322 q 210 201 210 258 q 232 138 210 158 q 303 118 254 118 m 342 785 q 229 809 278 785 q 154 876 181 833 q 128 968 128 918 l 246 968 q 272 903 246 926 q 342 879 297 879 q 412 903 386 879 q 438 968 438 926 l 556 968 q 497 838 556 890 q 342 785 439 785 m 333 1050 q 372 1067 360 1057 q 385 1097 385 1078 q 333 1136 385 1136 q 249 1110 297 1136 l 225 1194 q 336 1221 278 1221 q 435 1190 396 1221 q 474 1106 474 1160 q 444 1030 474 1058 q 349 989 414 1001 l 333 1050 z "},"ẵ":{"ha":692,"x_min":29,"x_max":676,"o":"m 231 -14 q 87 42 144 -14 q 29 194 29 99 q 94 340 29 285 q 249 417 160 394 q 419 443 338 440 q 388 531 417 504 q 294 557 360 557 q 205 544 249 557 q 104 504 161 532 l 89 644 q 342 706 215 706 q 528 639 464 706 q 593 426 593 572 l 593 239 q 598 163 593 186 q 615 134 603 140 q 654 128 626 128 l 676 128 l 661 -14 l 599 -14 q 503 8 542 -14 q 443 67 464 29 q 352 8 410 29 q 231 -14 294 -14 m 303 118 q 363 131 329 118 q 421 168 396 144 l 421 326 q 274 290 338 322 q 210 201 210 258 q 232 138 210 158 q 303 118 254 118 m 342 785 q 229 809 278 785 q 154 876 181 833 q 128 968 128 918 l 246 968 q 272 903 246 926 q 342 879 297 879 q 412 903 386 879 q 438 968 438 926 l 556 968 q 497 838 556 890 q 342 785 439 785 m 463 1036 q 417 1044 440 1036 q 356 1068 394 1051 q 319 1083 349 1071 q 268 1094 289 1094 q 222 1046 222 1094 l 117 1046 q 221 1192 117 1192 q 266 1184 243 1192 q 328 1160 289 1176 q 365 1145 335 1157 q 415 1133 394 1133 q 461 1182 461 1133 l 567 1182 q 463 1036 567 1036 z "},"â":{"ha":692,"x_min":29,"x_max":676,"o":"m 231 -14 q 87 42 144 -14 q 29 194 29 99 q 94 340 29 285 q 249 417 160 394 q 419 443 338 440 q 388 531 417 504 q 294 557 360 557 q 205 544 249 557 q 104 504 161 532 l 89 644 q 342 706 215 706 q 528 639 464 706 q 593 426 593 572 l 593 239 q 598 163 593 186 q 615 134 603 140 q 654 128 626 128 l 676 128 l 661 -14 l 599 -14 q 503 8 542 -14 q 443 67 464 29 q 352 8 410 29 q 231 -14 294 -14 m 303 118 q 363 131 329 118 q 421 168 396 144 l 421 326 q 274 290 338 322 q 210 201 210 258 q 232 138 210 158 q 303 118 254 118 m 158 879 l 342 1035 l 525 879 l 525 769 l 342 885 l 158 769 l 158 879 z "},"ấ":{"ha":692,"x_min":29,"x_max":699,"o":"m 231 -14 q 87 42 144 -14 q 29 194 29 99 q 94 340 29 285 q 249 417 160 394 q 419 443 338 440 q 388 531 417 504 q 294 557 360 557 q 205 544 249 557 q 104 504 161 532 l 89 644 q 342 706 215 706 q 528 639 464 706 q 593 426 593 572 l 593 239 q 598 163 593 186 q 615 134 603 140 q 654 128 626 128 l 676 128 l 661 -14 l 599 -14 q 503 8 542 -14 q 443 67 464 29 q 352 8 410 29 q 231 -14 294 -14 m 303 118 q 363 131 329 118 q 421 168 396 144 l 421 326 q 274 290 338 322 q 210 201 210 258 q 232 138 210 158 q 303 118 254 118 m 539 1157 l 699 1157 l 557 981 l 447 981 l 539 1157 m 525 874 l 525 771 l 342 871 l 158 771 l 158 874 l 342 1001 l 525 874 z "},"ậ":{"ha":692,"x_min":29,"x_max":676,"o":"m 231 -14 q 87 42 144 -14 q 29 194 29 99 q 94 340 29 285 q 249 417 160 394 q 419 443 338 440 q 388 531 417 504 q 294 557 360 557 q 205 544 249 557 q 104 504 161 532 l 89 644 q 342 706 215 706 q 528 639 464 706 q 593 426 593 572 l 593 239 q 598 163 593 186 q 615 134 603 140 q 654 128 626 128 l 676 128 l 661 -14 l 599 -14 q 503 8 542 -14 q 443 67 464 29 q 352 8 410 29 q 231 -14 294 -14 m 303 118 q 363 131 329 118 q 421 168 396 144 l 421 326 q 274 290 338 322 q 210 201 210 258 q 232 138 210 158 q 303 118 254 118 m 158 879 l 342 1035 l 525 879 l 525 769 l 342 885 l 158 769 l 158 879 m 274 -112 l 418 -112 l 418 -247 l 274 -247 l 274 -112 z "},"ầ":{"ha":692,"x_min":29,"x_max":676,"o":"m 231 -14 q 87 42 144 -14 q 29 194 29 99 q 94 340 29 285 q 249 417 160 394 q 419 443 338 440 q 388 531 417 504 q 294 557 360 557 q 205 544 249 557 q 104 504 161 532 l 89 644 q 342 706 215 706 q 528 639 464 706 q 593 426 593 572 l 593 239 q 598 163 593 186 q 615 134 603 140 q 654 128 626 128 l 676 128 l 661 -14 l 599 -14 q 503 8 542 -14 q 443 67 464 29 q 352 8 410 29 q 231 -14 294 -14 m 303 118 q 363 131 329 118 q 421 168 396 144 l 421 326 q 274 290 338 322 q 210 201 210 258 q 232 138 210 158 q 303 118 254 118 m 478 981 l 364 1157 l 513 1157 l 583 981 l 478 981 m 525 874 l 525 771 l 342 871 l 158 771 l 158 874 l 342 1001 l 525 874 z "},"ẩ":{"ha":692,"x_min":29,"x_max":676,"o":"m 231 -14 q 87 42 144 -14 q 29 194 29 99 q 94 340 29 285 q 249 417 160 394 q 419 443 338 440 q 388 531 417 504 q 294 557 360 557 q 205 544 249 557 q 104 504 161 532 l 89 644 q 342 706 215 706 q 528 639 464 706 q 593 426 593 572 l 593 239 q 598 163 593 186 q 615 134 603 140 q 654 128 626 128 l 676 128 l 661 -14 l 599 -14 q 503 8 542 -14 q 443 67 464 29 q 352 8 410 29 q 231 -14 294 -14 m 303 118 q 363 131 329 118 q 421 168 396 144 l 421 326 q 274 290 338 322 q 210 201 210 258 q 232 138 210 158 q 303 118 254 118 m 525 860 l 525 757 l 342 857 l 158 757 l 158 860 l 342 988 l 525 860 m 460 994 q 499 1012 486 1001 q 511 1042 511 1022 q 460 1081 511 1081 q 375 1054 424 1081 l 351 1139 q 463 1165 404 1165 q 561 1135 522 1165 q 600 1050 600 1104 q 570 974 600 1003 q 475 933 540 946 l 460 994 z "},"ẫ":{"ha":692,"x_min":29,"x_max":676,"o":"m 231 -14 q 87 42 144 -14 q 29 194 29 99 q 94 340 29 285 q 249 417 160 394 q 419 443 338 440 q 388 531 417 504 q 294 557 360 557 q 205 544 249 557 q 104 504 161 532 l 89 644 q 342 706 215 706 q 528 639 464 706 q 593 426 593 572 l 593 239 q 598 163 593 186 q 615 134 603 140 q 654 128 626 128 l 676 128 l 661 -14 l 599 -14 q 503 8 542 -14 q 443 67 464 29 q 352 8 410 29 q 231 -14 294 -14 m 303 118 q 363 131 329 118 q 421 168 396 144 l 421 326 q 274 290 338 322 q 210 201 210 258 q 232 138 210 158 q 303 118 254 118 m 525 860 l 525 757 l 342 857 l 158 757 l 158 860 l 342 988 l 525 860 m 463 1038 q 417 1045 440 1038 q 356 1069 394 1053 q 319 1084 349 1072 q 268 1096 289 1096 q 222 1047 222 1096 l 117 1047 q 221 1193 117 1193 q 266 1185 243 1193 q 328 1161 289 1178 q 365 1147 335 1158 q 415 1135 394 1135 q 461 1183 461 1135 l 567 1183 q 463 1038 567 1038 z "},"ȁ":{"ha":692,"x_min":29,"x_max":676,"o":"m 231 -14 q 87 42 144 -14 q 29 194 29 99 q 94 340 29 285 q 249 417 160 394 q 419 443 338 440 q 388 531 417 504 q 294 557 360 557 q 205 544 249 557 q 104 504 161 532 l 89 644 q 342 706 215 706 q 528 639 464 706 q 593 426 593 572 l 593 239 q 598 163 593 186 q 615 134 603 140 q 654 128 626 128 l 676 128 l 661 -14 l 599 -14 q 503 8 542 -14 q 443 67 464 29 q 352 8 410 29 q 231 -14 294 -14 m 303 118 q 363 131 329 118 q 421 168 396 144 l 421 326 q 274 290 338 322 q 210 201 210 258 q 232 138 210 158 q 303 118 254 118 m 193 817 l 43 1063 l 203 1063 l 303 817 l 193 817 m 397 817 l 258 1063 l 418 1063 l 507 817 l 397 817 z "},"ä":{"ha":692,"x_min":29,"x_max":676,"o":"m 231 -14 q 87 42 144 -14 q 29 194 29 99 q 94 340 29 285 q 249 417 160 394 q 419 443 338 440 q 388 531 417 504 q 294 557 360 557 q 205 544 249 557 q 104 504 161 532 l 89 644 q 342 706 215 706 q 528 639 464 706 q 593 426 593 572 l 593 239 q 598 163 593 186 q 615 134 603 140 q 654 128 626 128 l 676 128 l 661 -14 l 599 -14 q 503 8 542 -14 q 443 67 464 29 q 352 8 410 29 q 231 -14 294 -14 m 303 118 q 363 131 329 118 q 421 168 396 144 l 421 326 q 274 290 338 322 q 210 201 210 258 q 232 138 210 158 q 303 118 254 118 m 135 946 l 268 946 l 268 821 l 135 821 l 135 946 m 415 946 l 549 946 l 549 821 l 415 821 l 415 946 z "},"ạ":{"ha":692,"x_min":29,"x_max":676,"o":"m 231 -14 q 87 42 144 -14 q 29 194 29 99 q 94 340 29 285 q 249 417 160 394 q 419 443 338 440 q 388 531 417 504 q 294 557 360 557 q 205 544 249 557 q 104 504 161 532 l 89 644 q 342 706 215 706 q 528 639 464 706 q 593 426 593 572 l 593 239 q 598 163 593 186 q 615 134 603 140 q 654 128 626 128 l 676 128 l 661 -14 l 599 -14 q 503 8 542 -14 q 443 67 464 29 q 352 8 410 29 q 231 -14 294 -14 m 303 118 q 363 131 329 118 q 421 168 396 144 l 421 326 q 274 290 338 322 q 210 201 210 258 q 232 138 210 158 q 303 118 254 118 m 274 -112 l 418 -112 l 418 -247 l 274 -247 l 274 -112 z "},"à":{"ha":692,"x_min":29,"x_max":676,"o":"m 231 -14 q 87 42 144 -14 q 29 194 29 99 q 94 340 29 285 q 249 417 160 394 q 419 443 338 440 q 388 531 417 504 q 294 557 360 557 q 205 544 249 557 q 104 504 161 532 l 89 644 q 342 706 215 706 q 528 639 464 706 q 593 426 593 572 l 593 239 q 598 163 593 186 q 615 134 603 140 q 654 128 626 128 l 676 128 l 661 -14 l 599 -14 q 503 8 542 -14 q 443 67 464 29 q 352 8 410 29 q 231 -14 294 -14 m 303 118 q 363 131 329 118 q 421 168 396 144 l 421 326 q 274 290 338 322 q 210 201 210 258 q 232 138 210 158 q 303 118 254 118 m 204 897 l 204 1057 l 478 901 l 478 792 l 204 897 z "},"ả":{"ha":692,"x_min":29,"x_max":676,"o":"m 231 -14 q 87 42 144 -14 q 29 194 29 99 q 94 340 29 285 q 249 417 160 394 q 419 443 338 440 q 388 531 417 504 q 294 557 360 557 q 205 544 249 557 q 104 504 161 532 l 89 644 q 342 706 215 706 q 528 639 464 706 q 593 426 593 572 l 593 239 q 598 163 593 186 q 615 134 603 140 q 654 128 626 128 l 676 128 l 661 -14 l 599 -14 q 503 8 542 -14 q 443 67 464 29 q 352 8 410 29 q 231 -14 294 -14 m 303 118 q 363 131 329 118 q 421 168 396 144 l 421 326 q 274 290 338 322 q 210 201 210 258 q 232 138 210 158 q 303 118 254 118 m 313 793 q 358 839 344 821 q 371 881 371 857 q 357 914 371 903 q 319 925 343 925 q 235 899 283 925 l 211 983 q 322 1010 264 1010 q 421 976 382 1010 q 460 886 460 943 q 437 810 460 843 q 364 742 414 778 l 313 793 z "},"ȃ":{"ha":692,"x_min":29,"x_max":676,"o":"m 231 -14 q 87 42 144 -14 q 29 194 29 99 q 94 340 29 285 q 249 417 160 394 q 419 443 338 440 q 388 531 417 504 q 294 557 360 557 q 205 544 249 557 q 104 504 161 532 l 89 644 q 342 706 215 706 q 528 639 464 706 q 593 426 593 572 l 593 239 q 598 163 593 186 q 615 134 603 140 q 654 128 626 128 l 676 128 l 661 -14 l 599 -14 q 503 8 542 -14 q 443 67 464 29 q 352 8 410 29 q 231 -14 294 -14 m 303 118 q 363 131 329 118 q 421 168 396 144 l 421 326 q 274 290 338 322 q 210 201 210 258 q 232 138 210 158 q 303 118 254 118 m 342 1008 q 497 953 439 1008 q 556 815 556 897 l 438 815 q 412 881 438 857 q 342 904 386 904 q 272 881 297 904 q 246 815 246 857 l 128 815 q 154 913 128 868 q 229 983 181 957 q 342 1008 278 1008 z "},"ā":{"ha":692,"x_min":29,"x_max":676,"o":"m 231 -14 q 87 42 144 -14 q 29 194 29 99 q 94 340 29 285 q 249 417 160 394 q 419 443 338 440 q 388 531 417 504 q 294 557 360 557 q 205 544 249 557 q 104 504 161 532 l 89 644 q 342 706 215 706 q 528 639 464 706 q 593 426 593 572 l 593 239 q 598 163 593 186 q 615 134 603 140 q 654 128 626 128 l 676 128 l 661 -14 l 599 -14 q 503 8 542 -14 q 443 67 464 29 q 352 8 410 29 q 231 -14 294 -14 m 303 118 q 363 131 329 118 q 421 168 396 144 l 421 326 q 274 290 338 322 q 210 201 210 258 q 232 138 210 158 q 303 118 254 118 m 114 947 l 569 947 l 569 835 l 114 835 l 114 947 z "},"ą":{"ha":692,"x_min":29,"x_max":722,"o":"m 722 -265 q 601 -293 669 -293 q 499 -261 539 -293 q 460 -171 460 -229 q 487 -84 460 -125 q 556 -10 514 -43 q 443 67 476 4 q 352 8 410 29 q 231 -14 294 -14 q 87 42 144 -14 q 29 194 29 99 q 94 340 29 285 q 249 417 160 394 q 419 443 338 440 q 388 531 417 504 q 294 557 360 557 q 205 544 249 557 q 104 504 161 532 l 89 644 q 342 706 215 706 q 528 639 464 706 q 593 426 593 572 l 593 239 q 598 163 593 186 q 615 134 603 140 q 654 128 626 128 l 676 128 l 661 -14 l 638 -14 q 572 -80 594 -49 q 549 -144 549 -111 q 567 -192 549 -176 q 615 -208 585 -208 q 699 -189 657 -208 l 722 -265 m 421 326 q 274 290 338 322 q 210 201 210 258 q 232 138 210 158 q 303 118 254 118 q 363 131 329 118 q 421 168 396 144 l 421 326 z "},"å":{"ha":692,"x_min":29,"x_max":676,"o":"m 231 -14 q 87 42 144 -14 q 29 194 29 99 q 94 340 29 285 q 249 417 160 394 q 419 443 338 440 q 388 531 417 504 q 294 557 360 557 q 205 544 249 557 q 104 504 161 532 l 89 644 q 342 706 215 706 q 528 639 464 706 q 593 426 593 572 l 593 239 q 598 163 593 186 q 615 134 603 140 q 654 128 626 128 l 676 128 l 661 -14 l 599 -14 q 503 8 542 -14 q 443 67 464 29 q 352 8 410 29 q 231 -14 294 -14 m 303 118 q 363 131 329 118 q 421 168 396 144 l 421 326 q 274 290 338 322 q 210 201 210 258 q 232 138 210 158 q 303 118 254 118 m 342 792 q 237 831 276 792 q 197 926 197 869 q 237 1023 197 983 q 342 1063 276 1063 q 447 1023 407 1063 q 486 926 486 983 q 447 831 486 869 q 342 792 407 792 m 342 864 q 385 881 368 864 q 403 926 403 899 q 385 971 403 953 q 342 989 368 989 q 298 971 315 989 q 281 926 281 953 q 298 881 281 899 q 342 864 315 864 z "},"ǻ":{"ha":692,"x_min":29,"x_max":676,"o":"m 231 -14 q 87 42 144 -14 q 29 194 29 99 q 94 340 29 285 q 249 417 160 394 q 419 443 338 440 q 388 531 417 504 q 294 557 360 557 q 205 544 249 557 q 104 504 161 532 l 89 644 q 342 706 215 706 q 528 639 464 706 q 593 426 593 572 l 593 239 q 598 163 593 186 q 615 134 603 140 q 654 128 626 128 l 676 128 l 661 -14 l 599 -14 q 503 8 542 -14 q 443 67 464 29 q 352 8 410 29 q 231 -14 294 -14 m 303 118 q 363 131 329 118 q 421 168 396 144 l 421 326 q 274 290 338 322 q 210 201 210 258 q 232 138 210 158 q 303 118 254 118 m 342 792 q 237 831 276 792 q 197 926 197 869 q 237 1023 197 983 q 342 1063 276 1063 q 447 1023 407 1063 q 486 926 486 983 q 447 831 486 869 q 342 792 407 792 m 342 864 q 385 881 368 864 q 403 926 403 899 q 385 971 403 953 q 342 989 368 989 q 298 971 315 989 q 281 926 281 953 q 298 881 281 899 q 342 864 315 864 m 206 1213 l 479 1344 l 479 1197 l 206 1117 l 206 1213 z "},"ã":{"ha":692,"x_min":29,"x_max":676,"o":"m 231 -14 q 87 42 144 -14 q 29 194 29 99 q 94 340 29 285 q 249 417 160 394 q 419 443 338 440 q 388 531 417 504 q 294 557 360 557 q 205 544 249 557 q 104 504 161 532 l 89 644 q 342 706 215 706 q 528 639 464 706 q 593 426 593 572 l 593 239 q 598 163 593 186 q 615 134 603 140 q 654 128 626 128 l 676 128 l 661 -14 l 599 -14 q 503 8 542 -14 q 443 67 464 29 q 352 8 410 29 q 231 -14 294 -14 m 303 118 q 363 131 329 118 q 421 168 396 144 l 421 326 q 274 290 338 322 q 210 201 210 258 q 232 138 210 158 q 303 118 254 118 m 460 803 q 413 811 436 803 q 357 835 390 819 q 308 856 328 849 q 269 864 288 864 q 235 851 247 864 q 222 814 222 838 l 104 814 q 138 939 107 896 q 224 982 168 982 q 270 974 247 982 q 326 950 293 965 q 376 928 356 936 q 414 921 396 921 q 449 934 436 921 q 461 971 461 947 l 579 971 q 546 846 576 889 q 460 803 515 803 z "},"æ":{"ha":1088,"x_min":29,"x_max":1050,"o":"m 1050 404 q 1039 310 1050 363 l 606 310 q 674 174 618 219 q 804 128 729 128 q 910 144 856 128 q 1011 185 964 160 l 1019 39 q 794 -14 917 -14 q 631 16 703 -14 q 513 100 560 46 q 394 17 463 47 q 257 -14 326 -14 q 92 38 154 -14 q 29 181 29 89 q 142 366 29 306 q 415 426 256 426 l 424 426 q 389 524 418 492 q 294 557 360 557 q 205 544 249 557 q 104 504 161 532 l 89 644 q 342 706 215 706 q 538 628 475 706 q 757 706 624 706 q 917 665 851 706 q 1017 557 983 625 q 1050 404 1050 489 m 875 426 q 845 525 875 486 q 757 564 815 564 q 658 528 696 564 q 607 426 619 492 l 875 426 m 314 118 q 461 181 393 118 q 426 310 433 236 q 265 280 321 308 q 210 200 210 251 q 239 139 210 160 q 314 118 268 118 z "},"ǽ":{"ha":1088,"x_min":29,"x_max":1050,"o":"m 1050 404 q 1039 310 1050 363 l 606 310 q 674 174 618 219 q 804 128 729 128 q 910 144 856 128 q 1011 185 964 160 l 1019 39 q 794 -14 917 -14 q 631 16 703 -14 q 513 100 560 46 q 394 17 463 47 q 257 -14 326 -14 q 92 38 154 -14 q 29 181 29 89 q 142 366 29 306 q 415 426 256 426 l 424 426 q 389 524 418 492 q 294 557 360 557 q 205 544 249 557 q 104 504 161 532 l 89 644 q 342 706 215 706 q 538 628 475 706 q 757 706 624 706 q 917 665 851 706 q 1017 557 983 625 q 1050 404 1050 489 m 875 426 q 845 525 875 486 q 757 564 815 564 q 658 528 696 564 q 607 426 619 492 l 875 426 m 314 118 q 461 181 393 118 q 426 310 433 236 q 265 280 321 308 q 210 200 210 251 q 239 139 210 160 q 314 118 268 118 m 421 901 l 694 1057 l 694 897 l 421 792 l 421 901 z "},"b":{"ha":793,"x_min":79,"x_max":754,"o":"m 442 706 q 611 657 540 706 q 718 526 682 608 q 754 346 754 444 q 718 165 754 247 q 611 35 682 83 q 442 -14 540 -14 q 243 46 332 -14 l 240 0 l 79 0 l 79 1042 l 251 1042 l 251 643 q 442 706 336 706 m 417 128 q 535 188 493 128 q 578 346 578 247 q 535 504 578 444 q 417 564 493 564 q 286 506 329 564 q 243 346 243 447 q 286 186 243 244 q 417 128 329 128 z "},"c":{"ha":632,"x_min":39,"x_max":597,"o":"m 403 -14 q 205 34 288 -14 q 81 164 122 82 q 39 346 39 246 q 81 530 39 447 q 206 660 122 613 q 408 708 289 708 q 594 664 515 708 l 581 525 q 425 564 506 564 q 271 504 326 564 q 215 346 215 444 q 272 190 215 251 q 424 128 329 128 q 582 174 503 128 l 597 28 q 509 -3 560 8 q 403 -14 458 -14 z "},"ć":{"ha":632,"x_min":39,"x_max":597,"o":"m 403 -14 q 205 34 288 -14 q 81 164 122 82 q 39 346 39 246 q 81 530 39 447 q 206 660 122 613 q 408 708 289 708 q 594 664 515 708 l 581 525 q 425 564 506 564 q 271 504 326 564 q 215 346 215 444 q 272 190 215 251 q 424 128 329 128 q 582 174 503 128 l 597 28 q 509 -3 560 8 q 403 -14 458 -14 m 240 901 l 514 1057 l 514 897 l 240 792 l 240 901 z "},"č":{"ha":632,"x_min":39,"x_max":597,"o":"m 403 -14 q 205 34 288 -14 q 81 164 122 82 q 39 346 39 246 q 81 530 39 447 q 206 660 122 613 q 408 708 289 708 q 594 664 515 708 l 581 525 q 425 564 506 564 q 271 504 326 564 q 215 346 215 444 q 272 190 215 251 q 424 128 329 128 q 582 174 503 128 l 597 28 q 509 -3 560 8 q 403 -14 458 -14 m 193 932 l 193 1042 l 376 926 l 560 1042 l 560 932 l 376 776 l 193 932 z "},"ç":{"ha":632,"x_min":39,"x_max":597,"o":"m 401 -75 q 497 -107 463 -75 q 532 -196 532 -139 q 488 -297 532 -261 q 375 -332 443 -332 q 261 -306 311 -332 l 288 -224 q 378 -247 338 -247 q 426 -235 408 -247 q 443 -201 443 -224 q 372 -153 443 -153 q 306 -162 340 -153 l 342 -10 q 177 53 246 3 q 74 178 108 103 q 39 346 39 254 q 81 530 39 447 q 206 660 122 613 q 408 708 289 708 q 594 664 515 708 l 581 525 q 425 564 506 564 q 271 504 326 564 q 215 346 215 444 q 272 190 215 251 q 424 128 329 128 q 582 174 503 128 l 597 28 q 417 -14 525 -10 l 399 -75 l 401 -75 z "},"ḉ":{"ha":632,"x_min":39,"x_max":597,"o":"m 514 897 l 240 792 l 240 901 l 514 1057 l 514 897 m 401 -75 q 497 -107 463 -75 q 532 -196 532 -139 q 488 -297 532 -261 q 375 -332 443 -332 q 261 -306 311 -332 l 288 -224 q 378 -247 338 -247 q 426 -235 408 -247 q 443 -201 443 -224 q 372 -153 443 -153 q 306 -162 340 -153 l 342 -10 q 177 53 246 3 q 74 178 108 103 q 39 346 39 254 q 81 530 39 447 q 206 660 122 613 q 408 708 289 708 q 594 664 515 708 l 581 525 q 425 564 506 564 q 271 504 326 564 q 215 346 215 444 q 272 190 215 251 q 424 128 329 128 q 582 174 503 128 l 597 28 q 417 -14 525 -10 l 399 -75 l 401 -75 z "},"ĉ":{"ha":632,"x_min":39,"x_max":597,"o":"m 403 -14 q 205 34 288 -14 q 81 164 122 82 q 39 346 39 246 q 81 530 39 447 q 206 660 122 613 q 408 708 289 708 q 594 664 515 708 l 581 525 q 425 564 506 564 q 271 504 326 564 q 215 346 215 444 q 272 190 215 251 q 424 128 329 128 q 582 174 503 128 l 597 28 q 509 -3 560 8 q 403 -14 458 -14 m 193 879 l 376 1035 l 560 879 l 560 769 l 376 885 l 193 769 l 193 879 z "},"ċ":{"ha":632,"x_min":39,"x_max":597,"o":"m 403 -14 q 205 34 288 -14 q 81 164 122 82 q 39 346 39 246 q 81 530 39 447 q 206 660 122 613 q 408 708 289 708 q 594 664 515 708 l 581 525 q 425 564 506 564 q 271 504 326 564 q 215 346 215 444 q 272 190 215 251 q 424 128 329 128 q 582 174 503 128 l 597 28 q 509 -3 560 8 q 403 -14 458 -14 m 304 971 l 449 971 l 449 836 l 304 836 l 304 971 z "},"d":{"ha":793,"x_min":39,"x_max":714,"o":"m 714 1042 l 714 0 l 551 0 l 549 44 q 465 1 508 15 q 361 -14 421 -14 q 187 35 260 -14 q 76 165 114 83 q 39 346 39 247 q 76 526 39 444 q 187 657 114 608 q 361 706 260 706 q 542 650 463 706 l 542 1042 l 714 1042 m 386 128 q 509 186 468 128 q 550 346 550 244 q 509 506 550 447 q 386 564 468 564 q 260 504 306 564 q 215 346 215 444 q 260 188 215 247 q 386 128 306 128 z "},"ð":{"ha":696,"x_min":22,"x_max":656,"o":"m 482 825 q 656 358 656 657 q 608 135 656 219 q 489 17 561 51 q 336 -18 417 -18 q 176 21 249 -18 q 63 129 104 60 q 22 285 22 199 q 56 433 22 363 q 157 548 90 504 q 317 592 224 592 q 409 577 371 592 q 479 538 447 563 q 378 767 463 681 l 224 681 l 171 768 l 289 833 q 171 882 238 863 l 200 974 q 394 893 308 947 l 538 972 l 589 885 l 482 825 m 339 122 q 445 164 401 122 q 489 288 489 206 q 449 413 489 368 q 335 457 410 457 q 225 410 264 457 q 186 306 186 364 q 226 176 186 229 q 339 122 265 122 z "},"ď":{"ha":886,"x_min":39,"x_max":914,"o":"m 714 1042 l 714 0 l 551 0 l 549 44 q 465 1 508 15 q 361 -14 421 -14 q 187 35 260 -14 q 76 165 114 83 q 39 346 39 247 q 76 526 39 444 q 187 657 114 608 q 361 706 260 706 q 542 650 463 706 l 542 1042 l 714 1042 m 386 128 q 509 186 468 128 q 550 346 550 244 q 509 506 550 447 q 386 564 468 564 q 260 504 306 564 q 215 346 215 444 q 260 188 215 247 q 386 128 306 128 m 776 1042 l 914 1042 l 874 796 l 776 796 l 776 1042 z "},"đ":{"ha":799,"x_min":39,"x_max":811,"o":"m 811 815 l 714 815 l 714 0 l 551 0 l 549 44 q 465 1 508 15 q 361 -14 421 -14 q 187 35 260 -14 q 76 165 114 83 q 39 346 39 247 q 76 526 39 444 q 187 657 114 608 q 361 706 260 706 q 542 650 463 706 l 542 815 l 333 815 l 333 931 l 542 931 l 542 1042 l 714 1042 l 714 931 l 811 931 l 811 815 m 386 128 q 509 186 468 128 q 550 346 550 244 q 509 506 550 447 q 386 564 468 564 q 260 504 306 564 q 215 346 215 444 q 260 188 215 247 q 386 128 306 128 z "},"ḍ":{"ha":793,"x_min":39,"x_max":714,"o":"m 714 1042 l 714 0 l 551 0 l 549 44 q 465 1 508 15 q 361 -14 421 -14 q 187 35 260 -14 q 76 165 114 83 q 39 346 39 247 q 76 526 39 444 q 187 657 114 608 q 361 706 260 706 q 542 650 463 706 l 542 1042 l 714 1042 m 386 128 q 509 186 468 128 q 550 346 550 244 q 509 506 550 447 q 386 564 468 564 q 260 504 306 564 q 215 346 215 444 q 260 188 215 247 q 386 128 306 128 m 325 -112 l 469 -112 l 469 -247 l 325 -247 l 325 -112 z "},"ḏ":{"ha":793,"x_min":39,"x_max":714,"o":"m 714 1042 l 714 0 l 551 0 l 549 44 q 465 1 508 15 q 361 -14 421 -14 q 187 35 260 -14 q 76 165 114 83 q 39 346 39 247 q 76 526 39 444 q 187 657 114 608 q 361 706 260 706 q 542 650 463 706 l 542 1042 l 714 1042 m 386 128 q 509 186 468 128 q 550 346 550 244 q 509 506 550 447 q 386 564 468 564 q 260 504 306 564 q 215 346 215 444 q 260 188 215 247 q 386 128 306 128 m 169 -126 l 625 -126 l 625 -239 l 169 -239 l 169 -126 z "},"ǆ":{"ha":1449,"x_min":39,"x_max":1428,"o":"m 714 1042 l 714 0 l 551 0 l 549 44 q 465 1 508 15 q 361 -14 421 -14 q 187 35 260 -14 q 76 165 114 83 q 39 346 39 247 q 76 526 39 444 q 187 657 114 608 q 361 706 260 706 q 542 650 463 706 l 542 1042 l 714 1042 m 386 128 q 509 186 468 128 q 550 346 550 244 q 509 506 550 447 q 386 564 468 564 q 260 504 306 564 q 215 346 215 444 q 260 188 215 247 q 386 128 306 128 m 1428 146 l 1428 0 l 818 0 l 1156 549 l 850 549 l 850 694 l 1425 694 l 1088 146 l 1428 146 m 946 932 l 946 1042 l 1129 926 l 1313 1042 l 1313 932 l 1129 776 l 946 932 z "},"e":{"ha":715,"x_min":39,"x_max":678,"o":"m 415 -14 q 209 35 294 -14 q 81 167 124 85 q 39 351 39 250 q 79 529 39 449 q 196 658 119 610 q 378 706 272 706 q 542 665 475 706 q 644 557 610 625 q 678 404 678 489 q 667 310 678 363 l 218 310 q 290 173 232 218 q 431 128 349 128 q 639 185 543 128 l 647 39 q 544 1 603 15 q 415 -14 485 -14 m 503 426 q 472 522 503 481 q 378 564 442 564 q 275 526 314 564 q 222 426 236 489 l 503 426 z "},"é":{"ha":715,"x_min":39,"x_max":678,"o":"m 415 -14 q 209 35 294 -14 q 81 167 124 85 q 39 351 39 250 q 79 529 39 449 q 196 658 119 610 q 378 706 272 706 q 542 665 475 706 q 644 557 610 625 q 678 404 678 489 q 667 310 678 363 l 218 310 q 290 173 232 218 q 431 128 349 128 q 639 185 543 128 l 647 39 q 544 1 603 15 q 415 -14 485 -14 m 503 426 q 472 522 503 481 q 378 564 442 564 q 275 526 314 564 q 222 426 236 489 l 503 426 m 254 901 l 528 1057 l 528 897 l 254 792 l 254 901 z "},"ĕ":{"ha":715,"x_min":39,"x_max":678,"o":"m 415 -14 q 209 35 294 -14 q 81 167 124 85 q 39 351 39 250 q 79 529 39 449 q 196 658 119 610 q 378 706 272 706 q 542 665 475 706 q 644 557 610 625 q 678 404 678 489 q 667 310 678 363 l 218 310 q 290 173 232 218 q 431 128 349 128 q 639 185 543 128 l 647 39 q 544 1 603 15 q 415 -14 485 -14 m 503 426 q 472 522 503 481 q 378 564 442 564 q 275 526 314 564 q 222 426 236 489 l 503 426 m 390 815 q 278 841 326 815 q 203 911 229 867 q 176 1008 176 956 l 294 1008 q 320 943 294 967 q 390 919 346 919 q 460 943 435 919 q 486 1008 486 967 l 604 1008 q 546 871 604 926 q 390 815 488 815 z "},"ě":{"ha":715,"x_min":39,"x_max":678,"o":"m 415 -14 q 209 35 294 -14 q 81 167 124 85 q 39 351 39 250 q 79 529 39 449 q 196 658 119 610 q 378 706 272 706 q 542 665 475 706 q 644 557 610 625 q 678 404 678 489 q 667 310 678 363 l 218 310 q 290 173 232 218 q 431 128 349 128 q 639 185 543 128 l 647 39 q 544 1 603 15 q 415 -14 485 -14 m 503 426 q 472 522 503 481 q 378 564 442 564 q 275 526 314 564 q 222 426 236 489 l 503 426 m 207 932 l 207 1042 l 390 926 l 574 1042 l 574 932 l 390 776 l 207 932 z "},"ḝ":{"ha":715,"x_min":39,"x_max":678,"o":"m 390 815 q 278 841 326 815 q 203 911 229 867 q 176 1008 176 956 l 294 1008 q 320 943 294 967 q 390 919 346 919 q 460 943 435 919 q 486 1008 486 967 l 604 1008 q 546 871 604 926 q 390 815 488 815 m 678 404 q 667 310 678 363 l 218 310 q 290 173 232 218 q 431 128 349 128 q 639 185 543 128 l 647 39 q 544 1 603 15 q 415 -14 485 -14 l 396 -14 l 378 -75 l 381 -75 q 476 -107 442 -75 q 511 -196 511 -139 q 467 -297 511 -261 q 354 -332 422 -332 q 240 -306 290 -332 l 267 -224 q 357 -247 317 -247 q 405 -235 388 -247 q 422 -201 422 -224 q 351 -153 422 -153 q 285 -162 319 -153 l 322 -6 q 113 119 186 21 q 39 351 39 218 q 79 529 39 449 q 196 658 119 610 q 378 706 272 706 q 542 665 475 706 q 644 557 610 625 q 678 404 678 489 m 503 426 q 472 522 503 481 q 378 564 442 564 q 275 526 314 564 q 222 426 236 489 l 503 426 z "},"ê":{"ha":715,"x_min":39,"x_max":678,"o":"m 415 -14 q 209 35 294 -14 q 81 167 124 85 q 39 351 39 250 q 79 529 39 449 q 196 658 119 610 q 378 706 272 706 q 542 665 475 706 q 644 557 610 625 q 678 404 678 489 q 667 310 678 363 l 218 310 q 290 173 232 218 q 431 128 349 128 q 639 185 543 128 l 647 39 q 544 1 603 15 q 415 -14 485 -14 m 503 426 q 472 522 503 481 q 378 564 442 564 q 275 526 314 564 q 222 426 236 489 l 503 426 m 207 879 l 390 1035 l 574 879 l 574 769 l 390 885 l 207 769 l 207 879 z "},"ế":{"ha":715,"x_min":39,"x_max":747,"o":"m 415 -14 q 209 35 294 -14 q 81 167 124 85 q 39 351 39 250 q 79 529 39 449 q 196 658 119 610 q 378 706 272 706 q 542 665 475 706 q 644 557 610 625 q 678 404 678 489 q 667 310 678 363 l 218 310 q 290 173 232 218 q 431 128 349 128 q 639 185 543 128 l 647 39 q 544 1 603 15 q 415 -14 485 -14 m 503 426 q 472 522 503 481 q 378 564 442 564 q 275 526 314 564 q 222 426 236 489 l 503 426 m 588 1157 l 747 1157 l 606 981 l 496 981 l 588 1157 m 574 874 l 574 771 l 390 871 l 207 771 l 207 874 l 390 1001 l 574 874 z "},"ệ":{"ha":715,"x_min":39,"x_max":678,"o":"m 415 -14 q 209 35 294 -14 q 81 167 124 85 q 39 351 39 250 q 79 529 39 449 q 196 658 119 610 q 378 706 272 706 q 542 665 475 706 q 644 557 610 625 q 678 404 678 489 q 667 310 678 363 l 218 310 q 290 173 232 218 q 431 128 349 128 q 639 185 543 128 l 647 39 q 544 1 603 15 q 415 -14 485 -14 m 503 426 q 472 522 503 481 q 378 564 442 564 q 275 526 314 564 q 222 426 236 489 l 503 426 m 207 879 l 390 1035 l 574 879 l 574 769 l 390 885 l 207 769 l 207 879 m 286 -112 l 431 -112 l 431 -247 l 286 -247 l 286 -112 z "},"ề":{"ha":715,"x_min":39,"x_max":678,"o":"m 415 -14 q 209 35 294 -14 q 81 167 124 85 q 39 351 39 250 q 79 529 39 449 q 196 658 119 610 q 378 706 272 706 q 542 665 475 706 q 644 557 610 625 q 678 404 678 489 q 667 310 678 363 l 218 310 q 290 173 232 218 q 431 128 349 128 q 639 185 543 128 l 647 39 q 544 1 603 15 q 415 -14 485 -14 m 503 426 q 472 522 503 481 q 378 564 442 564 q 275 526 314 564 q 222 426 236 489 l 503 426 m 526 981 l 413 1157 l 561 1157 l 632 981 l 526 981 m 574 874 l 574 771 l 390 871 l 207 771 l 207 874 l 390 1001 l 574 874 z "},"ể":{"ha":715,"x_min":39,"x_max":678,"o":"m 415 -14 q 209 35 294 -14 q 81 167 124 85 q 39 351 39 250 q 79 529 39 449 q 196 658 119 610 q 378 706 272 706 q 542 665 475 706 q 644 557 610 625 q 678 404 678 489 q 667 310 678 363 l 218 310 q 290 173 232 218 q 431 128 349 128 q 639 185 543 128 l 647 39 q 544 1 603 15 q 415 -14 485 -14 m 503 426 q 472 522 503 481 q 378 564 442 564 q 275 526 314 564 q 222 426 236 489 l 503 426 m 574 860 l 574 757 l 390 857 l 207 757 l 207 860 l 390 988 l 574 860 m 508 994 q 547 1012 535 1001 q 560 1042 560 1022 q 508 1081 560 1081 q 424 1054 472 1081 l 400 1139 q 511 1165 453 1165 q 610 1135 571 1165 q 649 1050 649 1104 q 619 974 649 1003 q 524 933 589 946 l 508 994 z "},"ễ":{"ha":715,"x_min":39,"x_max":678,"o":"m 415 -14 q 209 35 294 -14 q 81 167 124 85 q 39 351 39 250 q 79 529 39 449 q 196 658 119 610 q 378 706 272 706 q 542 665 475 706 q 644 557 610 625 q 678 404 678 489 q 667 310 678 363 l 218 310 q 290 173 232 218 q 431 128 349 128 q 639 185 543 128 l 647 39 q 544 1 603 15 q 415 -14 485 -14 m 503 426 q 472 522 503 481 q 378 564 442 564 q 275 526 314 564 q 222 426 236 489 l 503 426 m 574 860 l 574 757 l 390 857 l 207 757 l 207 860 l 390 988 l 574 860 m 511 1038 q 466 1045 489 1038 q 404 1069 443 1053 q 367 1084 397 1072 q 317 1096 338 1096 q 271 1047 271 1096 l 165 1047 q 269 1193 165 1193 q 315 1185 292 1193 q 376 1161 338 1178 q 413 1147 383 1158 q 464 1135 443 1135 q 510 1183 510 1135 l 615 1183 q 511 1038 615 1038 z "},"ȅ":{"ha":715,"x_min":39,"x_max":678,"o":"m 415 -14 q 209 35 294 -14 q 81 167 124 85 q 39 351 39 250 q 79 529 39 449 q 196 658 119 610 q 378 706 272 706 q 542 665 475 706 q 644 557 610 625 q 678 404 678 489 q 667 310 678 363 l 218 310 q 290 173 232 218 q 431 128 349 128 q 639 185 543 128 l 647 39 q 544 1 603 15 q 415 -14 485 -14 m 503 426 q 472 522 503 481 q 378 564 442 564 q 275 526 314 564 q 222 426 236 489 l 503 426 m 242 817 l 92 1063 l 251 1063 l 351 817 l 242 817 m 446 817 l 307 1063 l 467 1063 l 556 817 l 446 817 z "},"ë":{"ha":715,"x_min":39,"x_max":678,"o":"m 415 -14 q 209 35 294 -14 q 81 167 124 85 q 39 351 39 250 q 79 529 39 449 q 196 658 119 610 q 378 706 272 706 q 542 665 475 706 q 644 557 610 625 q 678 404 678 489 q 667 310 678 363 l 218 310 q 290 173 232 218 q 431 128 349 128 q 639 185 543 128 l 647 39 q 544 1 603 15 q 415 -14 485 -14 m 503 426 q 472 522 503 481 q 378 564 442 564 q 275 526 314 564 q 222 426 236 489 l 503 426 m 183 946 l 317 946 l 317 821 l 183 821 l 183 946 m 464 946 l 597 946 l 597 821 l 464 821 l 464 946 z "},"ė":{"ha":715,"x_min":39,"x_max":678,"o":"m 415 -14 q 209 35 294 -14 q 81 167 124 85 q 39 351 39 250 q 79 529 39 449 q 196 658 119 610 q 378 706 272 706 q 542 665 475 706 q 644 557 610 625 q 678 404 678 489 q 667 310 678 363 l 218 310 q 290 173 232 218 q 431 128 349 128 q 639 185 543 128 l 647 39 q 544 1 603 15 q 415 -14 485 -14 m 503 426 q 472 522 503 481 q 378 564 442 564 q 275 526 314 564 q 222 426 236 489 l 503 426 m 318 971 l 463 971 l 463 836 l 318 836 l 318 971 z "},"ẹ":{"ha":715,"x_min":39,"x_max":678,"o":"m 415 -14 q 209 35 294 -14 q 81 167 124 85 q 39 351 39 250 q 79 529 39 449 q 196 658 119 610 q 378 706 272 706 q 542 665 475 706 q 644 557 610 625 q 678 404 678 489 q 667 310 678 363 l 218 310 q 290 173 232 218 q 431 128 349 128 q 639 185 543 128 l 647 39 q 544 1 603 15 q 415 -14 485 -14 m 503 426 q 472 522 503 481 q 378 564 442 564 q 275 526 314 564 q 222 426 236 489 l 503 426 m 286 -112 l 431 -112 l 431 -247 l 286 -247 l 286 -112 z "},"è":{"ha":715,"x_min":39,"x_max":678,"o":"m 415 -14 q 209 35 294 -14 q 81 167 124 85 q 39 351 39 250 q 79 529 39 449 q 196 658 119 610 q 378 706 272 706 q 542 665 475 706 q 644 557 610 625 q 678 404 678 489 q 667 310 678 363 l 218 310 q 290 173 232 218 q 431 128 349 128 q 639 185 543 128 l 647 39 q 544 1 603 15 q 415 -14 485 -14 m 503 426 q 472 522 503 481 q 378 564 442 564 q 275 526 314 564 q 222 426 236 489 l 503 426 m 253 897 l 253 1057 l 526 901 l 526 792 l 253 897 z "},"ẻ":{"ha":715,"x_min":39,"x_max":678,"o":"m 415 -14 q 209 35 294 -14 q 81 167 124 85 q 39 351 39 250 q 79 529 39 449 q 196 658 119 610 q 378 706 272 706 q 542 665 475 706 q 644 557 610 625 q 678 404 678 489 q 667 310 678 363 l 218 310 q 290 173 232 218 q 431 128 349 128 q 639 185 543 128 l 647 39 q 544 1 603 15 q 415 -14 485 -14 m 503 426 q 472 522 503 481 q 378 564 442 564 q 275 526 314 564 q 222 426 236 489 l 503 426 m 361 793 q 406 839 393 821 q 419 881 419 857 q 406 914 419 903 q 368 925 392 925 q 283 899 332 925 l 260 983 q 371 1010 313 1010 q 469 976 431 1010 q 508 886 508 943 q 485 810 508 843 q 413 742 463 778 l 361 793 z "},"ȇ":{"ha":715,"x_min":39,"x_max":678,"o":"m 415 -14 q 209 35 294 -14 q 81 167 124 85 q 39 351 39 250 q 79 529 39 449 q 196 658 119 610 q 378 706 272 706 q 542 665 475 706 q 644 557 610 625 q 678 404 678 489 q 667 310 678 363 l 218 310 q 290 173 232 218 q 431 128 349 128 q 639 185 543 128 l 647 39 q 544 1 603 15 q 415 -14 485 -14 m 503 426 q 472 522 503 481 q 378 564 442 564 q 275 526 314 564 q 222 426 236 489 l 503 426 m 390 1008 q 546 953 488 1008 q 604 815 604 897 l 486 815 q 460 881 486 857 q 390 904 435 904 q 320 881 346 904 q 294 815 294 857 l 176 815 q 203 913 176 868 q 278 983 229 957 q 390 1008 326 1008 z "},"ē":{"ha":715,"x_min":39,"x_max":678,"o":"m 415 -14 q 209 35 294 -14 q 81 167 124 85 q 39 351 39 250 q 79 529 39 449 q 196 658 119 610 q 378 706 272 706 q 542 665 475 706 q 644 557 610 625 q 678 404 678 489 q 667 310 678 363 l 218 310 q 290 173 232 218 q 431 128 349 128 q 639 185 543 128 l 647 39 q 544 1 603 15 q 415 -14 485 -14 m 503 426 q 472 522 503 481 q 378 564 442 564 q 275 526 314 564 q 222 426 236 489 l 503 426 m 163 947 l 618 947 l 618 835 l 163 835 l 163 947 z "},"ḗ":{"ha":715,"x_min":39,"x_max":678,"o":"m 415 -14 q 209 35 294 -14 q 81 167 124 85 q 39 351 39 250 q 79 529 39 449 q 196 658 119 610 q 378 706 272 706 q 542 665 475 706 q 644 557 610 625 q 678 404 678 489 q 667 310 678 363 l 218 310 q 290 173 232 218 q 431 128 349 128 q 639 185 543 128 l 647 39 q 544 1 603 15 q 415 -14 485 -14 m 503 426 q 472 522 503 481 q 378 564 442 564 q 275 526 314 564 q 222 426 236 489 l 503 426 m 163 929 l 618 929 l 618 824 l 163 824 l 163 929 m 254 1111 l 528 1243 l 528 1096 l 254 1015 l 254 1111 z "},"ḕ":{"ha":715,"x_min":39,"x_max":678,"o":"m 415 -14 q 209 35 294 -14 q 81 167 124 85 q 39 351 39 250 q 79 529 39 449 q 196 658 119 610 q 378 706 272 706 q 542 665 475 706 q 644 557 610 625 q 678 404 678 489 q 667 310 678 363 l 218 310 q 290 173 232 218 q 431 128 349 128 q 639 185 543 128 l 647 39 q 544 1 603 15 q 415 -14 485 -14 m 503 426 q 472 522 503 481 q 378 564 442 564 q 275 526 314 564 q 222 426 236 489 l 503 426 m 163 929 l 618 929 l 618 824 l 163 824 l 163 929 m 253 1096 l 253 1243 l 526 1111 l 526 1015 l 253 1096 z "},"ę":{"ha":715,"x_min":39,"x_max":714,"o":"m 714 -226 q 593 -254 661 -254 q 491 -222 531 -254 q 451 -132 451 -190 q 508 -6 451 -68 q 415 -14 467 -14 q 209 35 294 -14 q 81 167 124 85 q 39 351 39 250 q 79 529 39 449 q 196 658 119 610 q 378 706 272 706 q 542 665 475 706 q 644 557 610 625 q 678 404 678 489 q 667 310 678 363 l 218 310 q 290 173 232 218 q 431 128 349 128 q 639 185 543 128 l 647 39 q 567 -36 594 -1 q 540 -106 540 -71 q 558 -153 540 -137 q 607 -169 576 -169 q 690 -150 649 -169 l 714 -226 m 378 564 q 275 526 314 564 q 222 426 236 489 l 503 426 q 472 522 503 481 q 378 564 442 564 z "},"ẽ":{"ha":715,"x_min":39,"x_max":678,"o":"m 415 -14 q 209 35 294 -14 q 81 167 124 85 q 39 351 39 250 q 79 529 39 449 q 196 658 119 610 q 378 706 272 706 q 542 665 475 706 q 644 557 610 625 q 678 404 678 489 q 667 310 678 363 l 218 310 q 290 173 232 218 q 431 128 349 128 q 639 185 543 128 l 647 39 q 544 1 603 15 q 415 -14 485 -14 m 503 426 q 472 522 503 481 q 378 564 442 564 q 275 526 314 564 q 222 426 236 489 l 503 426 m 508 803 q 462 811 485 803 q 406 835 439 819 q 356 856 376 849 q 318 864 336 864 q 283 851 296 864 q 271 814 271 838 l 153 814 q 186 939 156 896 q 272 982 217 982 q 319 974 296 982 q 375 950 342 965 q 424 928 404 936 q 463 921 444 921 q 497 934 485 921 q 510 971 510 947 l 628 971 q 594 846 625 889 q 508 803 564 803 z "},"ə":{"ha":715,"x_min":38,"x_max":676,"o":"m 300 708 q 506 659 421 708 q 634 527 592 610 q 676 343 676 444 q 636 165 676 246 q 519 37 596 85 q 338 -11 443 -11 q 173 29 240 -11 q 72 138 106 69 q 38 290 38 206 q 49 385 38 332 l 497 385 q 425 522 483 476 q 285 567 367 567 q 76 510 172 567 l 68 656 q 172 694 113 679 q 300 708 231 708 m 213 268 q 243 172 213 214 q 338 131 274 131 q 440 168 401 131 q 493 268 479 206 l 213 268 z "},"f":{"ha":472,"x_min":24,"x_max":447,"o":"m 122 553 l 24 553 l 39 694 l 122 694 l 122 842 q 177 988 122 935 q 333 1042 232 1042 q 446 1029 390 1042 l 431 890 q 376 897 407 897 q 294 811 294 897 l 294 694 l 447 694 l 447 553 l 294 553 l 294 0 l 122 0 l 122 553 z "},"g":{"ha":696,"x_min":33,"x_max":693,"o":"m 356 -350 q 121 -297 208 -350 q 33 -151 33 -243 q 146 13 33 -51 q 85 111 85 50 q 103 168 85 143 q 154 208 122 193 q 74 304 101 246 q 47 432 47 363 q 81 572 47 508 q 178 672 114 635 q 329 708 242 708 q 488 664 421 708 q 551 685 511 676 q 636 694 590 694 l 681 694 l 669 586 l 607 586 q 568 585 583 586 q 610 432 610 521 q 577 292 610 356 q 481 192 544 229 q 329 156 417 156 q 256 165 297 156 q 240 143 240 158 q 262 115 240 125 q 335 97 283 104 l 454 82 q 693 -119 693 50 q 603 -287 693 -225 q 356 -350 514 -350 m 329 283 q 422 323 389 283 q 454 432 454 363 q 422 541 454 501 q 329 581 389 581 q 235 541 268 581 q 203 432 203 501 q 235 323 203 363 q 329 283 268 283 m 363 -219 q 540 -132 540 -219 q 510 -74 540 -93 q 408 -44 479 -56 l 256 -22 q 176 -119 176 -54 q 225 -194 176 -169 q 363 -219 274 -219 z "},"ğ":{"ha":696,"x_min":33,"x_max":693,"o":"m 356 -350 q 121 -297 208 -350 q 33 -151 33 -243 q 146 13 33 -51 q 85 111 85 50 q 103 168 85 143 q 154 208 122 193 q 74 304 101 246 q 47 432 47 363 q 81 572 47 508 q 178 672 114 635 q 329 708 242 708 q 488 664 421 708 q 551 685 511 676 q 636 694 590 694 l 681 694 l 669 586 l 607 586 q 568 585 583 586 q 610 432 610 521 q 577 292 610 356 q 481 192 544 229 q 329 156 417 156 q 256 165 297 156 q 240 143 240 158 q 262 115 240 125 q 335 97 283 104 l 454 82 q 693 -119 693 50 q 603 -287 693 -225 q 356 -350 514 -350 m 329 283 q 422 323 389 283 q 454 432 454 363 q 422 541 454 501 q 329 581 389 581 q 235 541 268 581 q 203 432 203 501 q 235 323 203 363 q 329 283 268 283 m 363 -219 q 540 -132 540 -219 q 510 -74 540 -93 q 408 -44 479 -56 l 256 -22 q 176 -119 176 -54 q 225 -194 176 -169 q 363 -219 274 -219 m 349 815 q 236 841 285 815 q 161 911 188 867 q 135 1008 135 956 l 253 1008 q 278 943 253 967 q 349 919 304 919 q 419 943 393 919 q 444 1008 444 967 l 563 1008 q 504 871 563 926 q 349 815 446 815 z "},"ǧ":{"ha":696,"x_min":33,"x_max":693,"o":"m 356 -350 q 121 -297 208 -350 q 33 -151 33 -243 q 146 13 33 -51 q 85 111 85 50 q 103 168 85 143 q 154 208 122 193 q 74 304 101 246 q 47 432 47 363 q 81 572 47 508 q 178 672 114 635 q 329 708 242 708 q 488 664 421 708 q 551 685 511 676 q 636 694 590 694 l 681 694 l 669 586 l 607 586 q 568 585 583 586 q 610 432 610 521 q 577 292 610 356 q 481 192 544 229 q 329 156 417 156 q 256 165 297 156 q 240 143 240 158 q 262 115 240 125 q 335 97 283 104 l 454 82 q 693 -119 693 50 q 603 -287 693 -225 q 356 -350 514 -350 m 329 283 q 422 323 389 283 q 454 432 454 363 q 422 541 454 501 q 329 581 389 581 q 235 541 268 581 q 203 432 203 501 q 235 323 203 363 q 329 283 268 283 m 363 -219 q 540 -132 540 -219 q 510 -74 540 -93 q 408 -44 479 -56 l 256 -22 q 176 -119 176 -54 q 225 -194 176 -169 q 363 -219 274 -219 m 165 932 l 165 1042 l 349 926 l 532 1042 l 532 932 l 349 776 l 165 932 z "},"ĝ":{"ha":696,"x_min":33,"x_max":693,"o":"m 356 -350 q 121 -297 208 -350 q 33 -151 33 -243 q 146 13 33 -51 q 85 111 85 50 q 103 168 85 143 q 154 208 122 193 q 74 304 101 246 q 47 432 47 363 q 81 572 47 508 q 178 672 114 635 q 329 708 242 708 q 488 664 421 708 q 551 685 511 676 q 636 694 590 694 l 681 694 l 669 586 l 607 586 q 568 585 583 586 q 610 432 610 521 q 577 292 610 356 q 481 192 544 229 q 329 156 417 156 q 256 165 297 156 q 240 143 240 158 q 262 115 240 125 q 335 97 283 104 l 454 82 q 693 -119 693 50 q 603 -287 693 -225 q 356 -350 514 -350 m 329 283 q 422 323 389 283 q 454 432 454 363 q 422 541 454 501 q 329 581 389 581 q 235 541 268 581 q 203 432 203 501 q 235 323 203 363 q 329 283 268 283 m 363 -219 q 540 -132 540 -219 q 510 -74 540 -93 q 408 -44 479 -56 l 256 -22 q 176 -119 176 -54 q 225 -194 176 -169 q 363 -219 274 -219 m 165 879 l 349 1035 l 532 879 l 532 769 l 349 885 l 165 769 l 165 879 z "},"ģ":{"ha":696,"x_min":33,"x_max":693,"o":"m 356 -350 q 121 -297 208 -350 q 33 -151 33 -243 q 146 13 33 -51 q 85 111 85 50 q 103 168 85 143 q 154 208 122 193 q 74 304 101 246 q 47 432 47 363 q 81 572 47 508 q 178 672 114 635 q 329 708 242 708 q 488 664 421 708 q 551 685 511 676 q 636 694 590 694 l 681 694 l 669 586 l 607 586 q 568 585 583 586 q 610 432 610 521 q 577 292 610 356 q 481 192 544 229 q 329 156 417 156 q 256 165 297 156 q 240 143 240 158 q 262 115 240 125 q 335 97 283 104 l 454 82 q 693 -119 693 50 q 603 -287 693 -225 q 356 -350 514 -350 m 329 283 q 422 323 389 283 q 454 432 454 363 q 422 541 454 501 q 329 581 389 581 q 235 541 268 581 q 203 432 203 501 q 235 323 203 363 q 329 283 268 283 m 363 -219 q 540 -132 540 -219 q 510 -74 540 -93 q 408 -44 479 -56 l 256 -22 q 176 -119 176 -54 q 225 -194 176 -169 q 363 -219 274 -219 m 422 1125 l 369 972 l 433 972 l 433 815 l 263 815 l 263 956 l 349 1125 l 422 1125 z "},"ġ":{"ha":696,"x_min":33,"x_max":693,"o":"m 356 -350 q 121 -297 208 -350 q 33 -151 33 -243 q 146 13 33 -51 q 85 111 85 50 q 103 168 85 143 q 154 208 122 193 q 74 304 101 246 q 47 432 47 363 q 81 572 47 508 q 178 672 114 635 q 329 708 242 708 q 488 664 421 708 q 551 685 511 676 q 636 694 590 694 l 681 694 l 669 586 l 607 586 q 568 585 583 586 q 610 432 610 521 q 577 292 610 356 q 481 192 544 229 q 329 156 417 156 q 256 165 297 156 q 240 143 240 158 q 262 115 240 125 q 335 97 283 104 l 454 82 q 693 -119 693 50 q 603 -287 693 -225 q 356 -350 514 -350 m 329 283 q 422 323 389 283 q 454 432 454 363 q 422 541 454 501 q 329 581 389 581 q 235 541 268 581 q 203 432 203 501 q 235 323 203 363 q 329 283 268 283 m 363 -219 q 540 -132 540 -219 q 510 -74 540 -93 q 408 -44 479 -56 l 256 -22 q 176 -119 176 -54 q 225 -194 176 -169 q 363 -219 274 -219 m 276 971 l 421 971 l 421 836 l 276 836 l 276 971 z "},"ḡ":{"ha":696,"x_min":33,"x_max":693,"o":"m 356 -350 q 121 -297 208 -350 q 33 -151 33 -243 q 146 13 33 -51 q 85 111 85 50 q 103 168 85 143 q 154 208 122 193 q 74 304 101 246 q 47 432 47 363 q 81 572 47 508 q 178 672 114 635 q 329 708 242 708 q 488 664 421 708 q 551 685 511 676 q 636 694 590 694 l 681 694 l 669 586 l 607 586 q 568 585 583 586 q 610 432 610 521 q 577 292 610 356 q 481 192 544 229 q 329 156 417 156 q 256 165 297 156 q 240 143 240 158 q 262 115 240 125 q 335 97 283 104 l 454 82 q 693 -119 693 50 q 603 -287 693 -225 q 356 -350 514 -350 m 329 283 q 422 323 389 283 q 454 432 454 363 q 422 541 454 501 q 329 581 389 581 q 235 541 268 581 q 203 432 203 501 q 235 323 203 363 q 329 283 268 283 m 363 -219 q 540 -132 540 -219 q 510 -74 540 -93 q 408 -44 479 -56 l 256 -22 q 176 -119 176 -54 q 225 -194 176 -169 q 363 -219 274 -219 m 121 947 l 576 947 l 576 835 l 121 835 l 121 947 z "},"h":{"ha":765,"x_min":79,"x_max":692,"o":"m 431 706 q 627 620 563 706 q 692 386 692 535 l 692 0 l 519 0 l 519 374 q 488 518 519 472 q 386 564 456 564 q 251 504 304 564 l 251 0 l 79 0 l 79 1042 l 251 1042 l 251 650 q 336 691 293 676 q 431 706 379 706 z "},"ħ":{"ha":771,"x_min":-12,"x_max":697,"o":"m 436 706 q 633 620 568 706 q 697 386 697 535 l 697 0 l 525 0 l 525 374 q 493 518 525 472 q 392 564 461 564 q 257 504 310 564 l 257 0 l 85 0 l 85 815 l -12 815 l -12 931 l 85 931 l 85 1042 l 257 1042 l 257 931 l 465 931 l 465 815 l 257 815 l 257 650 q 342 691 299 676 q 436 706 385 706 z "},"ḫ":{"ha":765,"x_min":79,"x_max":692,"o":"m 431 706 q 627 620 563 706 q 692 386 692 535 l 692 0 l 519 0 l 519 374 q 488 518 519 472 q 386 564 456 564 q 251 504 304 564 l 251 0 l 79 0 l 79 1042 l 251 1042 l 251 650 q 336 691 293 676 q 431 706 379 706 m 383 -319 q 271 -294 319 -319 q 196 -224 222 -268 q 169 -126 169 -179 l 288 -126 q 313 -192 288 -168 q 383 -215 339 -215 q 453 -192 428 -215 q 479 -126 479 -168 l 597 -126 q 539 -264 597 -208 q 383 -319 481 -319 z "},"ĥ":{"ha":765,"x_min":-18,"x_max":692,"o":"m 431 706 q 627 620 563 706 q 692 386 692 535 l 692 0 l 519 0 l 519 374 q 488 518 519 472 q 386 564 456 564 q 251 504 304 564 l 251 0 l 79 0 l 79 1042 l 251 1042 l 251 650 q 336 691 293 676 q 431 706 379 706 m 349 1193 l 349 1090 l 165 1190 l -18 1090 l -18 1193 l 165 1321 l 349 1193 z "},"ḥ":{"ha":765,"x_min":79,"x_max":692,"o":"m 431 706 q 627 620 563 706 q 692 386 692 535 l 692 0 l 519 0 l 519 374 q 488 518 519 472 q 386 564 456 564 q 251 504 304 564 l 251 0 l 79 0 l 79 1042 l 251 1042 l 251 650 q 336 691 293 676 q 431 706 379 706 m 311 -112 l 456 -112 l 456 -247 l 311 -247 l 311 -112 z "},"i":{"ha":333,"x_min":81,"x_max":253,"o":"m 81 972 l 253 972 l 253 800 l 81 800 l 81 972 m 81 694 l 253 694 l 253 0 l 81 0 l 81 694 z "},"ı":{"ha":333,"x_min":81,"x_max":253,"o":"m 81 694 l 253 694 l 253 0 l 81 0 l 81 694 z "},"í":{"ha":333,"x_min":31,"x_max":304,"o":"m 81 694 l 253 694 l 253 0 l 81 0 l 81 694 m 31 901 l 304 1057 l 304 897 l 31 792 l 31 901 z "},"ĭ":{"ha":333,"x_min":-47,"x_max":381,"o":"m 81 694 l 253 694 l 253 0 l 81 0 l 81 694 m 167 815 q 54 841 103 815 q -21 911 6 867 q -47 1008 -47 956 l 71 1008 q 97 943 71 967 q 167 919 122 919 q 237 943 211 919 q 263 1008 263 967 l 381 1008 q 322 871 381 926 q 167 815 264 815 z "},"î":{"ha":333,"x_min":-17,"x_max":350,"o":"m 81 694 l 253 694 l 253 0 l 81 0 l 81 694 m -17 879 l 167 1035 l 350 879 l 350 769 l 167 885 l -17 769 l -17 879 z "},"ȉ":{"ha":333,"x_min":-132,"x_max":332,"o":"m 81 694 l 253 694 l 253 0 l 81 0 l 81 694 m 18 817 l -132 1063 l 28 1063 l 128 817 l 18 817 m 222 817 l 83 1063 l 243 1063 l 332 817 l 222 817 z "},"ï":{"ha":333,"x_min":-40,"x_max":374,"o":"m 81 694 l 253 694 l 253 0 l 81 0 l 81 694 m -40 946 l 93 946 l 93 821 l -40 821 l -40 946 m 240 946 l 374 946 l 374 821 l 240 821 l 240 946 z "},"ḯ":{"ha":333,"x_min":-40,"x_max":374,"o":"m 81 694 l 253 694 l 253 0 l 81 0 l 81 694 m -40 929 l 93 929 l 93 810 l -40 810 l -40 929 m 240 929 l 374 929 l 374 810 l 240 810 l 240 929 m 31 1081 l 304 1213 l 304 1065 l 31 985 l 31 1081 z "},"ị":{"ha":333,"x_min":81,"x_max":253,"o":"m 81 972 l 253 972 l 253 800 l 81 800 l 81 972 m 81 694 l 253 694 l 253 0 l 81 0 l 81 694 m 94 -112 l 239 -112 l 239 -247 l 94 -247 l 94 -112 z "},"ì":{"ha":333,"x_min":29,"x_max":303,"o":"m 81 694 l 253 694 l 253 0 l 81 0 l 81 694 m 29 897 l 29 1057 l 303 901 l 303 792 l 29 897 z "},"ỉ":{"ha":333,"x_min":36,"x_max":285,"o":"m 81 694 l 253 694 l 253 0 l 81 0 l 81 694 m 138 793 q 183 839 169 821 q 196 881 196 857 q 182 914 196 903 q 144 925 168 925 q 60 899 108 925 l 36 983 q 147 1010 89 1010 q 246 976 207 1010 q 285 886 285 943 q 262 810 285 843 q 189 742 239 778 l 138 793 z "},"ȋ":{"ha":333,"x_min":-47,"x_max":381,"o":"m 81 694 l 253 694 l 253 0 l 81 0 l 81 694 m 167 1008 q 322 953 264 1008 q 381 815 381 897 l 263 815 q 237 881 263 857 q 167 904 211 904 q 97 881 122 904 q 71 815 71 857 l -47 815 q -21 913 -47 868 q 54 983 6 957 q 167 1008 103 1008 z "},"ĳ":{"ha":667,"x_min":81,"x_max":586,"o":"m 81 972 l 253 972 l 253 800 l 81 800 l 81 972 m 81 694 l 253 694 l 253 0 l 81 0 l 81 694 m 414 972 l 586 972 l 586 800 l 414 800 l 414 972 m 331 -194 q 397 -171 379 -194 q 414 -83 414 -147 l 414 694 l 586 694 l 586 -154 q 541 -297 586 -258 q 400 -336 496 -336 l 346 -336 l 331 -194 z "},"ī":{"ha":333,"x_min":-61,"x_max":394,"o":"m 81 694 l 253 694 l 253 0 l 81 0 l 81 694 m -61 947 l 394 947 l 394 835 l -61 835 l -61 947 z "},"į":{"ha":333,"x_min":57,"x_max":319,"o":"m 81 972 l 253 972 l 253 800 l 81 800 l 81 972 m 81 694 l 253 694 l 253 0 l 81 0 l 81 694 m 253 0 q 173 -75 200 -40 q 146 -144 146 -110 q 164 -192 146 -176 q 213 -208 182 -208 q 296 -189 254 -208 l 319 -265 q 199 -293 267 -293 q 97 -261 136 -293 q 57 -171 57 -229 q 89 -76 57 -121 q 167 0 121 -32 l 253 0 z "},"ĩ":{"ha":333,"x_min":-71,"x_max":404,"o":"m 81 694 l 253 694 l 253 0 l 81 0 l 81 694 m 285 803 q 238 811 261 803 q 182 835 215 819 q 133 856 153 849 q 94 864 113 864 q 60 851 72 864 q 47 814 47 838 l -71 814 q -37 939 -68 896 q 49 982 -7 982 q 95 974 72 982 q 151 950 118 965 q 201 928 181 936 q 239 921 221 921 q 274 934 261 921 q 286 971 286 947 l 404 971 q 371 846 401 889 q 285 803 340 803 z "},"j":{"ha":333,"x_min":-3,"x_max":253,"o":"m 81 972 l 253 972 l 253 800 l 81 800 l 81 972 m -3 -194 q 63 -171 46 -194 q 81 -83 81 -147 l 81 694 l 253 694 l 253 -154 q 208 -297 253 -258 q 67 -336 163 -336 l 13 -336 l -3 -194 z "},"ȷ":{"ha":333,"x_min":-3,"x_max":253,"o":"m -3 -194 q 54 -189 39 -194 q 75 -162 69 -183 q 81 -83 81 -140 l 81 694 l 253 694 l 253 -154 q 208 -285 253 -235 q 75 -336 164 -336 l 13 -336 l -3 -194 z "},"ĵ":{"ha":333,"x_min":-17,"x_max":350,"o":"m -3 -194 q 54 -189 39 -194 q 75 -162 69 -183 q 81 -83 81 -140 l 81 694 l 253 694 l 253 -154 q 208 -285 253 -235 q 75 -336 164 -336 l 13 -336 l -3 -194 m -17 879 l 167 1035 l 350 879 l 350 769 l 167 885 l -17 769 l -17 879 z "},"k":{"ha":674,"x_min":79,"x_max":667,"o":"m 79 1042 l 251 1042 l 251 410 l 467 694 l 661 694 l 408 361 l 667 0 l 472 0 l 251 308 l 251 0 l 79 0 l 79 1042 z "},"ķ":{"ha":674,"x_min":79,"x_max":667,"o":"m 79 1042 l 251 1042 l 251 410 l 467 694 l 661 694 l 408 361 l 667 0 l 472 0 l 251 308 l 251 0 l 79 0 l 79 1042 m 290 -436 l 343 -283 l 279 -283 l 279 -126 l 450 -126 l 450 -267 l 364 -436 l 290 -436 z "},"ĸ":{"ha":718,"x_min":81,"x_max":710,"o":"m 81 694 l 253 694 l 253 406 l 515 694 l 710 694 l 392 361 l 710 0 l 515 0 l 253 304 l 253 0 l 81 0 l 81 694 z "},"l":{"ha":365,"x_min":81,"x_max":336,"o":"m 258 -14 q 125 37 169 -14 q 81 168 81 88 l 81 1042 l 253 1042 l 253 239 q 259 160 253 183 q 281 133 265 138 q 336 128 297 128 l 321 -14 l 258 -14 z "},"ĺ":{"ha":365,"x_min":31,"x_max":336,"o":"m 258 -14 q 125 37 169 -14 q 81 168 81 88 l 81 1042 l 253 1042 l 253 239 q 259 160 253 183 q 281 133 265 138 q 336 128 297 128 l 321 -14 l 258 -14 m 31 1219 l 304 1351 l 304 1204 l 31 1124 l 31 1219 z "},"ľ":{"ha":433,"x_min":81,"x_max":453,"o":"m 258 -14 q 125 37 169 -14 q 81 168 81 88 l 81 1042 l 253 1042 l 253 239 q 259 160 253 183 q 281 133 265 138 q 336 128 297 128 l 321 -14 l 258 -14 m 315 1042 l 453 1042 l 413 796 l 315 796 l 315 1042 z "},"ļ":{"ha":365,"x_min":81,"x_max":336,"o":"m 258 -14 q 125 37 169 -14 q 81 168 81 88 l 81 1042 l 253 1042 l 253 239 q 259 160 253 183 q 281 133 265 138 q 336 128 297 128 l 321 -14 l 258 -14 m 151 -436 l 204 -283 l 140 -283 l 140 -126 l 311 -126 l 311 -267 l 225 -436 l 151 -436 z "},"ŀ":{"ha":450,"x_min":81,"x_max":464,"o":"m 258 -14 q 125 37 169 -14 q 81 168 81 88 l 81 1042 l 253 1042 l 253 239 q 259 160 253 183 q 281 133 265 138 q 336 128 297 128 l 321 -14 l 258 -14 m 319 660 l 464 660 l 464 493 l 319 493 l 319 660 z "},"ḷ":{"ha":365,"x_min":81,"x_max":336,"o":"m 258 -14 q 125 37 169 -14 q 81 168 81 88 l 81 1042 l 253 1042 l 253 239 q 259 160 253 183 q 281 133 265 138 q 336 128 297 128 l 321 -14 l 258 -14 m 151 -112 l 296 -112 l 296 -247 l 151 -247 l 151 -112 z "},"ǉ":{"ha":699,"x_min":81,"x_max":618,"o":"m 258 -14 q 125 37 169 -14 q 81 168 81 88 l 81 1042 l 253 1042 l 253 239 q 259 160 253 183 q 281 133 265 138 q 336 128 297 128 l 321 -14 l 258 -14 m 446 972 l 618 972 l 618 800 l 446 800 l 446 972 m 363 -194 q 428 -171 411 -194 q 446 -83 446 -147 l 446 694 l 618 694 l 618 -154 q 573 -297 618 -258 q 432 -336 528 -336 l 378 -336 l 363 -194 z "},"ḻ":{"ha":365,"x_min":-4,"x_max":451,"o":"m 258 -14 q 125 37 169 -14 q 81 168 81 88 l 81 1042 l 253 1042 l 253 239 q 259 160 253 183 q 281 133 265 138 q 336 128 297 128 l 321 -14 l 258 -14 m -4 -126 l 451 -126 l 451 -239 l -4 -239 l -4 -126 z "},"ł":{"ha":357,"x_min":-28,"x_max":343,"o":"m 233 596 l 233 239 q 240 160 233 183 q 262 133 246 138 q 317 128 278 128 l 301 -14 l 239 -14 q 106 37 150 -14 q 61 168 61 88 l 61 551 l -28 528 l -28 649 l 61 672 l 61 1042 l 233 1042 l 233 717 l 343 744 l 343 624 l 233 596 z "},"m":{"ha":1207,"x_min":81,"x_max":1133,"o":"m 860 706 q 1066 622 999 706 q 1133 386 1133 538 l 1133 0 l 961 0 l 961 374 q 931 518 961 472 q 831 564 900 564 q 728 517 763 564 q 693 386 693 471 l 693 0 l 521 0 l 521 374 q 489 518 521 472 q 388 564 457 564 q 253 504 306 564 l 253 0 l 81 0 l 81 694 l 228 694 l 233 639 q 438 706 328 706 q 636 610 571 706 q 731 681 672 656 q 860 706 789 706 z "},"ṃ":{"ha":1207,"x_min":81,"x_max":1133,"o":"m 860 706 q 1066 622 999 706 q 1133 386 1133 538 l 1133 0 l 961 0 l 961 374 q 931 518 961 472 q 831 564 900 564 q 728 517 763 564 q 693 386 693 471 l 693 0 l 521 0 l 521 374 q 489 518 521 472 q 388 564 457 564 q 253 504 306 564 l 253 0 l 81 0 l 81 694 l 228 694 l 233 639 q 438 706 328 706 q 636 610 571 706 q 731 681 672 656 q 860 706 789 706 m 535 -112 l 679 -112 l 679 -247 l 535 -247 l 535 -112 z "},"n":{"ha":767,"x_min":81,"x_max":693,"o":"m 81 694 l 242 694 l 244 646 q 431 706 332 706 q 626 619 560 706 q 693 388 693 533 l 693 0 l 521 0 l 521 374 q 488 517 521 471 q 383 564 456 564 q 253 504 304 564 l 253 0 l 81 0 l 81 694 z "},"ń":{"ha":767,"x_min":81,"x_max":693,"o":"m 81 694 l 242 694 l 244 646 q 431 706 332 706 q 626 619 560 706 q 693 388 693 533 l 693 0 l 521 0 l 521 374 q 488 517 521 471 q 383 564 456 564 q 253 504 304 564 l 253 0 l 81 0 l 81 694 m 271 888 l 544 1043 l 544 883 l 271 778 l 271 888 z "},"ŉ":{"ha":969,"x_min":58,"x_max":896,"o":"m 69 663 l 122 815 l 58 815 l 58 972 l 229 972 l 229 832 l 143 663 l 69 663 m 283 694 l 444 694 l 447 646 q 633 706 535 706 q 829 619 763 706 q 896 388 896 533 l 896 0 l 724 0 l 724 374 q 691 517 724 471 q 586 564 658 564 q 456 504 507 564 l 456 0 l 283 0 l 283 694 z "},"ň":{"ha":767,"x_min":81,"x_max":693,"o":"m 81 694 l 242 694 l 244 646 q 431 706 332 706 q 626 619 560 706 q 693 388 693 533 l 693 0 l 521 0 l 521 374 q 488 517 521 471 q 383 564 456 564 q 253 504 304 564 l 253 0 l 81 0 l 81 694 m 224 918 l 224 1028 l 407 913 l 590 1028 l 590 918 l 407 763 l 224 918 z "},"ņ":{"ha":767,"x_min":81,"x_max":693,"o":"m 81 694 l 242 694 l 244 646 q 431 706 332 706 q 626 619 560 706 q 693 388 693 533 l 693 0 l 521 0 l 521 374 q 488 517 521 471 q 383 564 456 564 q 253 504 304 564 l 253 0 l 81 0 l 81 694 m 315 -436 l 368 -283 l 304 -283 l 304 -126 l 475 -126 l 475 -267 l 389 -436 l 315 -436 z "},"ṅ":{"ha":767,"x_min":81,"x_max":693,"o":"m 81 694 l 242 694 l 244 646 q 431 706 332 706 q 626 619 560 706 q 693 388 693 533 l 693 0 l 521 0 l 521 374 q 488 517 521 471 q 383 564 456 564 q 253 504 304 564 l 253 0 l 81 0 l 81 694 m 335 957 l 479 957 l 479 822 l 335 822 l 335 957 z "},"ṇ":{"ha":767,"x_min":81,"x_max":693,"o":"m 81 694 l 242 694 l 244 646 q 431 706 332 706 q 626 619 560 706 q 693 388 693 533 l 693 0 l 521 0 l 521 374 q 488 517 521 471 q 383 564 456 564 q 253 504 304 564 l 253 0 l 81 0 l 81 694 m 315 -112 l 460 -112 l 460 -247 l 315 -247 l 315 -112 z "},"ŋ":{"ha":767,"x_min":81,"x_max":693,"o":"m 693 24 q 613 -179 693 -110 q 403 -249 533 -249 q 290 -233 344 -249 l 308 -94 q 401 -107 354 -107 q 488 -77 456 -107 q 521 10 521 -47 l 521 374 q 488 517 521 471 q 383 564 456 564 q 253 504 304 564 l 253 0 l 81 0 l 81 694 l 242 694 l 244 646 q 431 706 332 706 q 626 619 560 706 q 693 388 693 533 l 693 24 z "},"ǌ":{"ha":1100,"x_min":81,"x_max":1019,"o":"m 81 694 l 242 694 l 244 646 q 431 706 332 706 q 626 619 560 706 q 693 388 693 533 l 693 0 l 521 0 l 521 374 q 488 517 521 471 q 383 564 456 564 q 253 504 304 564 l 253 0 l 81 0 l 81 694 m 847 972 l 1019 972 l 1019 800 l 847 800 l 847 972 m 764 -194 q 830 -171 813 -194 q 847 -83 847 -147 l 847 694 l 1019 694 l 1019 -154 q 974 -297 1019 -258 q 833 -336 929 -336 l 779 -336 l 764 -194 z "},"ṉ":{"ha":767,"x_min":81,"x_max":693,"o":"m 81 694 l 242 694 l 244 646 q 431 706 332 706 q 626 619 560 706 q 693 388 693 533 l 693 0 l 521 0 l 521 374 q 488 517 521 471 q 383 564 456 564 q 253 504 304 564 l 253 0 l 81 0 l 81 694 m 160 -126 l 615 -126 l 615 -239 l 160 -239 l 160 -126 z "},"ñ":{"ha":767,"x_min":81,"x_max":693,"o":"m 81 694 l 242 694 l 244 646 q 431 706 332 706 q 626 619 560 706 q 693 388 693 533 l 693 0 l 521 0 l 521 374 q 488 517 521 471 q 383 564 456 564 q 253 504 304 564 l 253 0 l 81 0 l 81 694 m 525 789 q 478 797 501 789 q 422 821 456 806 q 373 842 393 835 q 335 850 353 850 q 300 837 313 850 q 288 800 288 824 l 169 800 q 203 925 172 882 q 289 968 233 968 q 335 960 313 968 q 392 936 358 951 q 441 915 421 922 q 479 907 461 907 q 514 920 501 907 q 526 957 526 933 l 644 957 q 611 832 642 875 q 525 789 581 789 z "},"o":{"ha":792,"x_min":39,"x_max":753,"o":"m 396 -14 q 206 35 286 -14 q 82 165 125 83 q 39 346 39 247 q 82 528 39 444 q 206 660 125 611 q 396 708 286 708 q 586 660 506 708 q 710 528 667 611 q 753 346 753 444 q 710 165 753 247 q 586 35 667 83 q 396 -14 506 -14 m 396 128 q 528 188 481 128 q 576 346 576 247 q 528 506 576 446 q 396 567 481 567 q 263 506 311 567 q 215 346 215 446 q 263 188 215 247 q 396 128 311 128 z "},"ó":{"ha":792,"x_min":39,"x_max":753,"o":"m 396 -14 q 206 35 286 -14 q 82 165 125 83 q 39 346 39 247 q 82 528 39 444 q 206 660 125 611 q 396 708 286 708 q 586 660 506 708 q 710 528 667 611 q 753 346 753 444 q 710 165 753 247 q 586 35 667 83 q 396 -14 506 -14 m 396 128 q 528 188 481 128 q 576 346 576 247 q 528 506 576 446 q 396 567 481 567 q 263 506 311 567 q 215 346 215 446 q 263 188 215 247 q 396 128 311 128 m 260 901 l 533 1057 l 533 897 l 260 792 l 260 901 z "},"ŏ":{"ha":792,"x_min":39,"x_max":753,"o":"m 396 -14 q 206 35 286 -14 q 82 165 125 83 q 39 346 39 247 q 82 528 39 444 q 206 660 125 611 q 396 708 286 708 q 586 660 506 708 q 710 528 667 611 q 753 346 753 444 q 710 165 753 247 q 586 35 667 83 q 396 -14 506 -14 m 396 128 q 528 188 481 128 q 576 346 576 247 q 528 506 576 446 q 396 567 481 567 q 263 506 311 567 q 215 346 215 446 q 263 188 215 247 q 396 128 311 128 m 396 815 q 283 841 332 815 q 208 911 235 867 q 182 1008 182 956 l 300 1008 q 326 943 300 967 q 396 919 351 919 q 466 943 440 919 q 492 1008 492 967 l 610 1008 q 551 871 610 926 q 396 815 493 815 z "},"ô":{"ha":792,"x_min":39,"x_max":753,"o":"m 396 -14 q 206 35 286 -14 q 82 165 125 83 q 39 346 39 247 q 82 528 39 444 q 206 660 125 611 q 396 708 286 708 q 586 660 506 708 q 710 528 667 611 q 753 346 753 444 q 710 165 753 247 q 586 35 667 83 q 396 -14 506 -14 m 396 128 q 528 188 481 128 q 576 346 576 247 q 528 506 576 446 q 396 567 481 567 q 263 506 311 567 q 215 346 215 446 q 263 188 215 247 q 396 128 311 128 m 213 879 l 396 1035 l 579 879 l 579 769 l 396 885 l 213 769 l 213 879 z "},"ố":{"ha":792,"x_min":39,"x_max":753,"o":"m 396 -14 q 206 35 286 -14 q 82 165 125 83 q 39 346 39 247 q 82 528 39 444 q 206 660 125 611 q 396 708 286 708 q 586 660 506 708 q 710 528 667 611 q 753 346 753 444 q 710 165 753 247 q 586 35 667 83 q 396 -14 506 -14 m 396 128 q 528 188 481 128 q 576 346 576 247 q 528 506 576 446 q 396 567 481 567 q 263 506 311 567 q 215 346 215 446 q 263 188 215 247 q 396 128 311 128 m 593 1157 l 753 1157 l 611 981 l 501 981 l 593 1157 m 579 874 l 579 771 l 396 871 l 213 771 l 213 874 l 396 1001 l 579 874 z "},"ộ":{"ha":792,"x_min":39,"x_max":753,"o":"m 396 -14 q 206 35 286 -14 q 82 165 125 83 q 39 346 39 247 q 82 528 39 444 q 206 660 125 611 q 396 708 286 708 q 586 660 506 708 q 710 528 667 611 q 753 346 753 444 q 710 165 753 247 q 586 35 667 83 q 396 -14 506 -14 m 396 128 q 528 188 481 128 q 576 346 576 247 q 528 506 576 446 q 396 567 481 567 q 263 506 311 567 q 215 346 215 446 q 263 188 215 247 q 396 128 311 128 m 213 879 l 396 1035 l 579 879 l 579 769 l 396 885 l 213 769 l 213 879 m 324 -112 l 468 -112 l 468 -247 l 324 -247 l 324 -112 z "},"ồ":{"ha":792,"x_min":39,"x_max":753,"o":"m 396 -14 q 206 35 286 -14 q 82 165 125 83 q 39 346 39 247 q 82 528 39 444 q 206 660 125 611 q 396 708 286 708 q 586 660 506 708 q 710 528 667 611 q 753 346 753 444 q 710 165 753 247 q 586 35 667 83 q 396 -14 506 -14 m 396 128 q 528 188 481 128 q 576 346 576 247 q 528 506 576 446 q 396 567 481 567 q 263 506 311 567 q 215 346 215 446 q 263 188 215 247 q 396 128 311 128 m 532 981 l 418 1157 l 567 1157 l 638 981 l 532 981 m 579 874 l 579 771 l 396 871 l 213 771 l 213 874 l 396 1001 l 579 874 z "},"ổ":{"ha":792,"x_min":39,"x_max":753,"o":"m 396 -14 q 206 35 286 -14 q 82 165 125 83 q 39 346 39 247 q 82 528 39 444 q 206 660 125 611 q 396 708 286 708 q 586 660 506 708 q 710 528 667 611 q 753 346 753 444 q 710 165 753 247 q 586 35 667 83 q 396 -14 506 -14 m 396 128 q 528 188 481 128 q 576 346 576 247 q 528 506 576 446 q 396 567 481 567 q 263 506 311 567 q 215 346 215 446 q 263 188 215 247 q 396 128 311 128 m 579 860 l 579 757 l 396 857 l 213 757 l 213 860 l 396 988 l 579 860 m 514 994 q 553 1012 540 1001 q 565 1042 565 1022 q 514 1081 565 1081 q 429 1054 478 1081 l 406 1139 q 517 1165 458 1165 q 615 1135 576 1165 q 654 1050 654 1104 q 624 974 654 1003 q 529 933 594 946 l 514 994 z "},"ỗ":{"ha":792,"x_min":39,"x_max":753,"o":"m 396 -14 q 206 35 286 -14 q 82 165 125 83 q 39 346 39 247 q 82 528 39 444 q 206 660 125 611 q 396 708 286 708 q 586 660 506 708 q 710 528 667 611 q 753 346 753 444 q 710 165 753 247 q 586 35 667 83 q 396 -14 506 -14 m 396 128 q 528 188 481 128 q 576 346 576 247 q 528 506 576 446 q 396 567 481 567 q 263 506 311 567 q 215 346 215 446 q 263 188 215 247 q 396 128 311 128 m 579 860 l 579 757 l 396 857 l 213 757 l 213 860 l 396 988 l 579 860 m 517 1038 q 472 1045 494 1038 q 410 1069 449 1053 q 373 1084 403 1072 q 322 1096 343 1096 q 276 1047 276 1096 l 171 1047 q 275 1193 171 1193 q 320 1185 297 1193 q 382 1161 343 1178 q 419 1147 389 1158 q 469 1135 449 1135 q 515 1183 515 1135 l 621 1183 q 517 1038 621 1038 z "},"ȍ":{"ha":792,"x_min":39,"x_max":753,"o":"m 396 -14 q 206 35 286 -14 q 82 165 125 83 q 39 346 39 247 q 82 528 39 444 q 206 660 125 611 q 396 708 286 708 q 586 660 506 708 q 710 528 667 611 q 753 346 753 444 q 710 165 753 247 q 586 35 667 83 q 396 -14 506 -14 m 396 128 q 528 188 481 128 q 576 346 576 247 q 528 506 576 446 q 396 567 481 567 q 263 506 311 567 q 215 346 215 446 q 263 188 215 247 q 396 128 311 128 m 247 817 l 97 1063 l 257 1063 l 357 817 l 247 817 m 451 817 l 313 1063 l 472 1063 l 561 817 l 451 817 z "},"ö":{"ha":792,"x_min":39,"x_max":753,"o":"m 396 -14 q 206 35 286 -14 q 82 165 125 83 q 39 346 39 247 q 82 528 39 444 q 206 660 125 611 q 396 708 286 708 q 586 660 506 708 q 710 528 667 611 q 753 346 753 444 q 710 165 753 247 q 586 35 667 83 q 396 -14 506 -14 m 396 128 q 528 188 481 128 q 576 346 576 247 q 528 506 576 446 q 396 567 481 567 q 263 506 311 567 q 215 346 215 446 q 263 188 215 247 q 396 128 311 128 m 189 946 l 322 946 l 322 821 l 189 821 l 189 946 m 469 946 l 603 946 l 603 821 l 469 821 l 469 946 z "},"ȫ":{"ha":792,"x_min":39,"x_max":753,"o":"m 396 -14 q 206 35 286 -14 q 82 165 125 83 q 39 346 39 247 q 82 528 39 444 q 206 660 125 611 q 396 708 286 708 q 586 660 506 708 q 710 528 667 611 q 753 346 753 444 q 710 165 753 247 q 586 35 667 83 q 396 -14 506 -14 m 396 128 q 528 188 481 128 q 576 346 576 247 q 528 506 576 446 q 396 567 481 567 q 263 506 311 567 q 215 346 215 446 q 263 188 215 247 q 396 128 311 128 m 189 929 l 322 929 l 322 810 l 189 810 l 189 929 m 469 929 l 603 929 l 603 810 l 469 810 l 469 929 m 168 1138 l 624 1138 l 624 1032 l 168 1032 l 168 1138 z "},"ȱ":{"ha":792,"x_min":39,"x_max":753,"o":"m 396 -14 q 206 35 286 -14 q 82 165 125 83 q 39 346 39 247 q 82 528 39 444 q 206 660 125 611 q 396 708 286 708 q 586 660 506 708 q 710 528 667 611 q 753 346 753 444 q 710 165 753 247 q 586 35 667 83 q 396 -14 506 -14 m 396 128 q 528 188 481 128 q 576 346 576 247 q 528 506 576 446 q 396 567 481 567 q 263 506 311 567 q 215 346 215 446 q 263 188 215 247 q 396 128 311 128 m 324 957 l 468 957 l 468 822 l 324 822 l 324 957 m 168 1179 l 624 1179 l 624 1074 l 168 1074 l 168 1179 z "},"ọ":{"ha":792,"x_min":39,"x_max":753,"o":"m 396 -14 q 206 35 286 -14 q 82 165 125 83 q 39 346 39 247 q 82 528 39 444 q 206 660 125 611 q 396 708 286 708 q 586 660 506 708 q 710 528 667 611 q 753 346 753 444 q 710 165 753 247 q 586 35 667 83 q 396 -14 506 -14 m 396 128 q 528 188 481 128 q 576 346 576 247 q 528 506 576 446 q 396 567 481 567 q 263 506 311 567 q 215 346 215 446 q 263 188 215 247 q 396 128 311 128 m 324 -112 l 468 -112 l 468 -247 l 324 -247 l 324 -112 z "},"ò":{"ha":792,"x_min":39,"x_max":753,"o":"m 396 -14 q 206 35 286 -14 q 82 165 125 83 q 39 346 39 247 q 82 528 39 444 q 206 660 125 611 q 396 708 286 708 q 586 660 506 708 q 710 528 667 611 q 753 346 753 444 q 710 165 753 247 q 586 35 667 83 q 396 -14 506 -14 m 396 128 q 528 188 481 128 q 576 346 576 247 q 528 506 576 446 q 396 567 481 567 q 263 506 311 567 q 215 346 215 446 q 263 188 215 247 q 396 128 311 128 m 258 897 l 258 1057 l 532 901 l 532 792 l 258 897 z "},"ỏ":{"ha":792,"x_min":39,"x_max":753,"o":"m 396 -14 q 206 35 286 -14 q 82 165 125 83 q 39 346 39 247 q 82 528 39 444 q 206 660 125 611 q 396 708 286 708 q 586 660 506 708 q 710 528 667 611 q 753 346 753 444 q 710 165 753 247 q 586 35 667 83 q 396 -14 506 -14 m 396 128 q 528 188 481 128 q 576 346 576 247 q 528 506 576 446 q 396 567 481 567 q 263 506 311 567 q 215 346 215 446 q 263 188 215 247 q 396 128 311 128 m 367 793 q 412 839 399 821 q 425 881 425 857 q 411 914 425 903 q 374 925 397 925 q 289 899 338 925 l 265 983 q 376 1010 318 1010 q 475 976 436 1010 q 514 886 514 943 q 491 810 514 843 q 418 742 468 778 l 367 793 z "},"ơ":{"ha":792,"x_min":39,"x_max":753,"o":"m 639 621 q 724 499 694 569 q 753 346 753 428 q 710 165 753 247 q 586 35 667 83 q 396 -14 506 -14 q 206 35 286 -14 q 82 165 125 83 q 39 346 39 247 q 82 528 39 444 q 206 660 125 611 q 396 708 286 708 q 501 694 456 708 q 575 722 550 697 q 600 797 600 747 l 747 797 q 718 694 747 740 q 639 621 689 649 m 396 128 q 528 188 481 128 q 576 346 576 247 q 528 506 576 446 q 396 567 481 567 q 263 506 311 567 q 215 346 215 446 q 263 188 215 247 q 396 128 311 128 z "},"ớ":{"ha":792,"x_min":39,"x_max":753,"o":"m 639 621 q 724 499 694 569 q 753 346 753 428 q 710 165 753 247 q 586 35 667 83 q 396 -14 506 -14 q 206 35 286 -14 q 82 165 125 83 q 39 346 39 247 q 82 528 39 444 q 206 660 125 611 q 396 708 286 708 q 501 694 456 708 q 575 722 550 697 q 600 797 600 747 l 747 797 q 718 694 747 740 q 639 621 689 649 m 396 128 q 528 188 481 128 q 576 346 576 247 q 528 506 576 446 q 396 567 481 567 q 263 506 311 567 q 215 346 215 446 q 263 188 215 247 q 396 128 311 128 m 260 901 l 533 1057 l 533 897 l 260 792 l 260 901 z "},"ợ":{"ha":792,"x_min":39,"x_max":753,"o":"m 639 621 q 724 499 694 569 q 753 346 753 428 q 710 165 753 247 q 586 35 667 83 q 396 -14 506 -14 q 206 35 286 -14 q 82 165 125 83 q 39 346 39 247 q 82 528 39 444 q 206 660 125 611 q 396 708 286 708 q 501 694 456 708 q 575 722 550 697 q 600 797 600 747 l 747 797 q 718 694 747 740 q 639 621 689 649 m 396 128 q 528 188 481 128 q 576 346 576 247 q 528 506 576 446 q 396 567 481 567 q 263 506 311 567 q 215 346 215 446 q 263 188 215 247 q 396 128 311 128 m 324 -112 l 468 -112 l 468 -247 l 324 -247 l 324 -112 z "},"ờ":{"ha":792,"x_min":39,"x_max":753,"o":"m 639 621 q 724 499 694 569 q 753 346 753 428 q 710 165 753 247 q 586 35 667 83 q 396 -14 506 -14 q 206 35 286 -14 q 82 165 125 83 q 39 346 39 247 q 82 528 39 444 q 206 660 125 611 q 396 708 286 708 q 501 694 456 708 q 575 722 550 697 q 600 797 600 747 l 747 797 q 718 694 747 740 q 639 621 689 649 m 396 128 q 528 188 481 128 q 576 346 576 247 q 528 506 576 446 q 396 567 481 567 q 263 506 311 567 q 215 346 215 446 q 263 188 215 247 q 396 128 311 128 m 258 897 l 258 1057 l 532 901 l 532 792 l 258 897 z "},"ở":{"ha":792,"x_min":39,"x_max":753,"o":"m 639 621 q 724 499 694 569 q 753 346 753 428 q 710 165 753 247 q 586 35 667 83 q 396 -14 506 -14 q 206 35 286 -14 q 82 165 125 83 q 39 346 39 247 q 82 528 39 444 q 206 660 125 611 q 396 708 286 708 q 501 694 456 708 q 575 722 550 697 q 600 797 600 747 l 747 797 q 718 694 747 740 q 639 621 689 649 m 396 128 q 528 188 481 128 q 576 346 576 247 q 528 506 576 446 q 396 567 481 567 q 263 506 311 567 q 215 346 215 446 q 263 188 215 247 q 396 128 311 128 m 367 793 q 412 839 399 821 q 425 881 425 857 q 411 914 425 903 q 374 925 397 925 q 289 899 338 925 l 265 983 q 376 1010 318 1010 q 475 976 436 1010 q 514 886 514 943 q 491 810 514 843 q 418 742 468 778 l 367 793 z "},"ỡ":{"ha":792,"x_min":39,"x_max":753,"o":"m 639 621 q 724 499 694 569 q 753 346 753 428 q 710 165 753 247 q 586 35 667 83 q 396 -14 506 -14 q 206 35 286 -14 q 82 165 125 83 q 39 346 39 247 q 82 528 39 444 q 206 660 125 611 q 396 708 286 708 q 501 694 456 708 q 575 722 550 697 q 600 797 600 747 l 747 797 q 718 694 747 740 q 639 621 689 649 m 396 128 q 528 188 481 128 q 576 346 576 247 q 528 506 576 446 q 396 567 481 567 q 263 506 311 567 q 215 346 215 446 q 263 188 215 247 q 396 128 311 128 m 514 803 q 467 811 490 803 q 411 835 444 819 q 362 856 382 849 q 324 864 342 864 q 289 851 301 864 q 276 814 276 838 l 158 814 q 192 939 161 896 q 278 982 222 982 q 324 974 301 982 q 381 950 347 965 q 430 928 410 936 q 468 921 450 921 q 503 934 490 921 q 515 971 515 947 l 633 971 q 600 846 631 889 q 514 803 569 803 z "},"ő":{"ha":792,"x_min":39,"x_max":753,"o":"m 396 -14 q 206 35 286 -14 q 82 165 125 83 q 39 346 39 247 q 82 528 39 444 q 206 660 125 611 q 396 708 286 708 q 586 660 506 708 q 710 528 667 611 q 753 346 753 444 q 710 165 753 247 q 586 35 667 83 q 396 -14 506 -14 m 396 128 q 528 188 481 128 q 576 346 576 247 q 528 506 576 446 q 396 567 481 567 q 263 506 311 567 q 215 346 215 446 q 263 188 215 247 q 396 128 311 128 m 339 1063 l 499 1063 l 343 817 l 233 817 l 339 1063 m 554 1063 l 714 1063 l 547 817 l 438 817 l 554 1063 z "},"ȏ":{"ha":792,"x_min":39,"x_max":753,"o":"m 396 -14 q 206 35 286 -14 q 82 165 125 83 q 39 346 39 247 q 82 528 39 444 q 206 660 125 611 q 396 708 286 708 q 586 660 506 708 q 710 528 667 611 q 753 346 753 444 q 710 165 753 247 q 586 35 667 83 q 396 -14 506 -14 m 396 128 q 528 188 481 128 q 576 346 576 247 q 528 506 576 446 q 396 567 481 567 q 263 506 311 567 q 215 346 215 446 q 263 188 215 247 q 396 128 311 128 m 396 1008 q 551 953 493 1008 q 610 815 610 897 l 492 815 q 466 881 492 857 q 396 904 440 904 q 326 881 351 904 q 300 815 300 857 l 182 815 q 208 913 182 868 q 283 983 235 957 q 396 1008 332 1008 z "},"ō":{"ha":792,"x_min":39,"x_max":753,"o":"m 396 -14 q 206 35 286 -14 q 82 165 125 83 q 39 346 39 247 q 82 528 39 444 q 206 660 125 611 q 396 708 286 708 q 586 660 506 708 q 710 528 667 611 q 753 346 753 444 q 710 165 753 247 q 586 35 667 83 q 396 -14 506 -14 m 396 128 q 528 188 481 128 q 576 346 576 247 q 528 506 576 446 q 396 567 481 567 q 263 506 311 567 q 215 346 215 446 q 263 188 215 247 q 396 128 311 128 m 168 947 l 624 947 l 624 835 l 168 835 l 168 947 z "},"ṓ":{"ha":792,"x_min":39,"x_max":753,"o":"m 396 -14 q 206 35 286 -14 q 82 165 125 83 q 39 346 39 247 q 82 528 39 444 q 206 660 125 611 q 396 708 286 708 q 586 660 506 708 q 710 528 667 611 q 753 346 753 444 q 710 165 753 247 q 586 35 667 83 q 396 -14 506 -14 m 396 128 q 528 188 481 128 q 576 346 576 247 q 528 506 576 446 q 396 567 481 567 q 263 506 311 567 q 215 346 215 446 q 263 188 215 247 q 396 128 311 128 m 168 929 l 624 929 l 624 824 l 168 824 l 168 929 m 260 1111 l 533 1243 l 533 1096 l 260 1015 l 260 1111 z "},"ṑ":{"ha":792,"x_min":39,"x_max":753,"o":"m 396 -14 q 206 35 286 -14 q 82 165 125 83 q 39 346 39 247 q 82 528 39 444 q 206 660 125 611 q 396 708 286 708 q 586 660 506 708 q 710 528 667 611 q 753 346 753 444 q 710 165 753 247 q 586 35 667 83 q 396 -14 506 -14 m 396 128 q 528 188 481 128 q 576 346 576 247 q 528 506 576 446 q 396 567 481 567 q 263 506 311 567 q 215 346 215 446 q 263 188 215 247 q 396 128 311 128 m 168 929 l 624 929 l 624 824 l 168 824 l 168 929 m 258 1096 l 258 1243 l 532 1111 l 532 1015 l 258 1096 z "},"ǫ":{"ha":792,"x_min":39,"x_max":753,"o":"m 492 -3 q 415 -76 442 -42 q 389 -144 389 -110 q 407 -192 389 -176 q 456 -208 425 -208 q 539 -189 497 -208 l 563 -265 q 442 -293 510 -293 q 340 -261 379 -293 q 300 -171 300 -229 q 392 -14 300 -89 q 203 36 283 -12 q 81 167 124 85 q 39 346 39 249 q 82 528 39 444 q 206 660 125 611 q 396 708 286 708 q 586 660 506 708 q 710 528 667 611 q 753 346 753 444 q 683 122 753 218 q 492 -3 614 26 m 215 346 q 263 188 215 247 q 396 128 311 128 q 528 188 481 128 q 576 346 576 247 q 528 506 576 446 q 396 567 481 567 q 263 506 311 567 q 215 346 215 446 z "},"ø":{"ha":792,"x_min":39,"x_max":753,"o":"m 642 618 q 724 497 696 568 q 753 346 753 426 q 710 165 753 247 q 586 35 667 83 q 396 -14 506 -14 q 240 17 310 -14 l 192 -56 l 72 -56 l 156 71 q 69 192 100 121 q 39 346 39 264 q 82 528 39 444 q 206 660 125 611 q 396 708 286 708 q 558 674 486 708 l 600 736 l 719 736 l 642 618 m 215 346 q 249 208 215 263 l 475 549 q 396 567 443 567 q 263 506 311 567 q 215 346 215 446 m 396 128 q 528 188 481 128 q 576 346 576 247 q 547 478 576 424 l 324 142 q 396 128 358 128 z "},"ǿ":{"ha":792,"x_min":39,"x_max":753,"o":"m 642 618 q 724 497 696 568 q 753 346 753 426 q 710 165 753 247 q 586 35 667 83 q 396 -14 506 -14 q 240 17 310 -14 l 192 -56 l 72 -56 l 156 71 q 69 192 100 121 q 39 346 39 264 q 82 528 39 444 q 206 660 125 611 q 396 708 286 708 q 558 674 486 708 l 600 736 l 719 736 l 642 618 m 215 346 q 249 208 215 263 l 475 549 q 396 567 443 567 q 263 506 311 567 q 215 346 215 446 m 396 128 q 528 188 481 128 q 576 346 576 247 q 547 478 576 424 l 324 142 q 396 128 358 128 m 260 901 l 533 1057 l 533 897 l 260 792 l 260 901 z "},"õ":{"ha":792,"x_min":39,"x_max":753,"o":"m 396 -14 q 206 35 286 -14 q 82 165 125 83 q 39 346 39 247 q 82 528 39 444 q 206 660 125 611 q 396 708 286 708 q 586 660 506 708 q 710 528 667 611 q 753 346 753 444 q 710 165 753 247 q 586 35 667 83 q 396 -14 506 -14 m 396 128 q 528 188 481 128 q 576 346 576 247 q 528 506 576 446 q 396 567 481 567 q 263 506 311 567 q 215 346 215 446 q 263 188 215 247 q 396 128 311 128 m 514 803 q 467 811 490 803 q 411 835 444 819 q 362 856 382 849 q 324 864 342 864 q 289 851 301 864 q 276 814 276 838 l 158 814 q 192 939 161 896 q 278 982 222 982 q 324 974 301 982 q 381 950 347 965 q 430 928 410 936 q 468 921 450 921 q 503 934 490 921 q 515 971 515 947 l 633 971 q 600 846 631 889 q 514 803 569 803 z "},"ṍ":{"ha":792,"x_min":39,"x_max":753,"o":"m 396 -14 q 206 35 286 -14 q 82 165 125 83 q 39 346 39 247 q 82 528 39 444 q 206 660 125 611 q 396 708 286 708 q 586 660 506 708 q 710 528 667 611 q 753 346 753 444 q 710 165 753 247 q 586 35 667 83 q 396 -14 506 -14 m 396 128 q 528 188 481 128 q 576 346 576 247 q 528 506 576 446 q 396 567 481 567 q 263 506 311 567 q 215 346 215 446 q 263 188 215 247 q 396 128 311 128 m 517 801 q 472 809 494 801 q 410 833 449 817 q 373 848 403 836 q 322 860 343 860 q 276 811 276 860 l 171 811 q 275 957 171 957 q 320 949 297 957 q 382 925 343 942 q 419 910 389 922 q 469 899 449 899 q 515 947 515 899 l 621 947 q 517 801 621 801 m 260 1100 l 533 1232 l 533 1085 l 260 1004 l 260 1100 z "},"ṏ":{"ha":792,"x_min":39,"x_max":753,"o":"m 396 -14 q 206 35 286 -14 q 82 165 125 83 q 39 346 39 247 q 82 528 39 444 q 206 660 125 611 q 396 708 286 708 q 586 660 506 708 q 710 528 667 611 q 753 346 753 444 q 710 165 753 247 q 586 35 667 83 q 396 -14 506 -14 m 396 128 q 528 188 481 128 q 576 346 576 247 q 528 506 576 446 q 396 567 481 567 q 263 506 311 567 q 215 346 215 446 q 263 188 215 247 q 396 128 311 128 m 517 801 q 472 809 494 801 q 410 833 449 817 q 373 848 403 836 q 322 860 343 860 q 276 811 276 860 l 171 811 q 275 957 171 957 q 320 949 297 957 q 382 925 343 942 q 419 910 389 922 q 469 899 449 899 q 515 947 515 899 l 621 947 q 517 801 621 801 m 189 1157 l 322 1157 l 322 1038 l 189 1038 l 189 1157 m 469 1157 l 603 1157 l 603 1038 l 469 1038 l 469 1157 z "},"ȭ":{"ha":792,"x_min":39,"x_max":753,"o":"m 396 -14 q 206 35 286 -14 q 82 165 125 83 q 39 346 39 247 q 82 528 39 444 q 206 660 125 611 q 396 708 286 708 q 586 660 506 708 q 710 528 667 611 q 753 346 753 444 q 710 165 753 247 q 586 35 667 83 q 396 -14 506 -14 m 396 128 q 528 188 481 128 q 576 346 576 247 q 528 506 576 446 q 396 567 481 567 q 263 506 311 567 q 215 346 215 446 q 263 188 215 247 q 396 128 311 128 m 517 801 q 472 809 494 801 q 410 833 449 817 q 373 848 403 836 q 322 860 343 860 q 276 811 276 860 l 171 811 q 275 957 171 957 q 320 949 297 957 q 382 925 343 942 q 419 910 389 922 q 469 899 449 899 q 515 947 515 899 l 621 947 q 517 801 621 801 m 168 1157 l 624 1157 l 624 1051 l 168 1051 l 168 1157 z "},"œ":{"ha":1243,"x_min":39,"x_max":1206,"o":"m 1206 404 q 1194 310 1206 363 l 746 310 q 819 174 760 219 q 953 128 878 128 q 1061 144 1000 128 q 1167 185 1122 161 l 1175 39 q 1072 1 1131 15 q 943 -14 1013 -14 q 778 19 850 -14 q 660 111 707 51 q 548 19 615 51 q 396 -14 481 -14 q 206 35 286 -14 q 82 165 125 83 q 39 346 39 247 q 82 528 39 444 q 206 660 125 611 q 396 708 286 708 q 545 677 479 708 q 657 588 611 646 q 763 674 700 643 q 906 706 826 706 q 1070 665 1003 706 q 1172 557 1138 625 q 1206 404 1206 489 m 396 128 q 528 188 481 128 q 576 346 576 247 q 528 506 576 446 q 396 567 481 567 q 263 506 311 567 q 215 346 215 446 q 263 188 215 247 q 396 128 311 128 m 1031 426 q 1000 522 1031 481 q 906 564 969 564 q 803 526 842 564 q 750 426 764 489 l 1031 426 z "},"p":{"ha":794,"x_min":81,"x_max":756,"o":"m 443 706 q 613 657 542 706 q 719 526 683 608 q 756 346 756 444 q 719 165 756 247 q 613 35 683 83 q 443 -14 542 -14 q 337 -1 381 -14 q 253 42 293 13 l 253 -336 l 81 -336 l 81 694 l 219 694 l 238 631 q 331 687 282 668 q 443 706 379 706 m 417 128 q 536 188 493 128 q 579 346 579 247 q 536 504 579 444 q 417 564 493 564 q 288 506 331 564 q 244 346 244 447 q 288 186 244 244 q 417 128 331 128 z "},"þ":{"ha":808,"x_min":81,"x_max":769,"o":"m 444 706 q 621 657 547 706 q 732 526 694 608 q 769 346 769 444 q 732 165 769 247 q 621 35 694 83 q 444 -14 547 -14 q 340 1 383 -14 q 253 47 296 15 l 253 -336 l 81 -336 l 81 1042 l 253 1042 l 253 646 q 339 691 294 676 q 444 706 383 706 m 422 128 q 548 188 503 128 q 593 346 593 247 q 548 504 593 444 q 422 564 503 564 q 289 506 333 564 q 244 346 244 447 q 289 186 244 244 q 422 128 333 128 z "},"q":{"ha":794,"x_min":39,"x_max":714,"o":"m 714 694 l 714 -336 l 542 -336 l 542 43 q 358 -14 468 -14 q 186 35 258 -14 q 76 165 114 83 q 39 346 39 247 q 76 526 39 444 q 186 657 114 608 q 358 706 258 706 q 560 631 475 706 l 582 694 l 714 694 m 386 128 q 509 186 468 128 q 550 346 550 244 q 509 506 550 447 q 386 564 468 564 q 260 504 306 564 q 215 346 215 444 q 260 188 215 247 q 386 128 306 128 z "},"r":{"ha":458,"x_min":81,"x_max":456,"o":"m 81 694 l 242 694 l 246 621 q 324 682 276 656 q 425 708 372 708 q 456 706 442 708 l 443 536 q 383 543 417 543 q 304 523 340 543 q 253 474 268 503 l 253 0 l 81 0 l 81 694 z "},"ŕ":{"ha":458,"x_min":81,"x_max":456,"o":"m 81 694 l 242 694 l 246 621 q 324 682 276 656 q 425 708 372 708 q 456 706 442 708 l 443 536 q 383 543 417 543 q 304 523 340 543 q 253 474 268 503 l 253 0 l 81 0 l 81 694 m 165 901 l 439 1057 l 439 897 l 165 792 l 165 901 z "},"ř":{"ha":458,"x_min":81,"x_max":485,"o":"m 81 694 l 242 694 l 246 621 q 324 682 276 656 q 425 708 372 708 q 456 706 442 708 l 443 536 q 383 543 417 543 q 304 523 340 543 q 253 474 268 503 l 253 0 l 81 0 l 81 694 m 118 932 l 118 1042 l 301 926 l 485 1042 l 485 932 l 301 776 l 118 932 z "},"ŗ":{"ha":458,"x_min":81,"x_max":456,"o":"m 81 694 l 242 694 l 246 621 q 324 682 276 656 q 425 708 372 708 q 456 706 442 708 l 443 536 q 383 543 417 543 q 304 523 340 543 q 253 474 268 503 l 253 0 l 81 0 l 81 694 m 94 -436 l 147 -283 l 83 -283 l 83 -126 l 254 -126 l 254 -267 l 168 -436 l 94 -436 z "},"ȑ":{"ha":458,"x_min":3,"x_max":467,"o":"m 81 694 l 242 694 l 246 621 q 324 682 276 656 q 425 708 372 708 q 456 706 442 708 l 443 536 q 383 543 417 543 q 304 523 340 543 q 253 474 268 503 l 253 0 l 81 0 l 81 694 m 153 817 l 3 1063 l 163 1063 l 263 817 l 153 817 m 357 817 l 218 1063 l 378 1063 l 467 817 l 357 817 z "},"ṛ":{"ha":458,"x_min":81,"x_max":456,"o":"m 81 694 l 242 694 l 246 621 q 324 682 276 656 q 425 708 372 708 q 456 706 442 708 l 443 536 q 383 543 417 543 q 304 523 340 543 q 253 474 268 503 l 253 0 l 81 0 l 81 694 m 94 -112 l 239 -112 l 239 -247 l 94 -247 l 94 -112 z "},"ȓ":{"ha":458,"x_min":81,"x_max":515,"o":"m 81 694 l 242 694 l 246 621 q 324 682 276 656 q 425 708 372 708 q 456 706 442 708 l 443 536 q 383 543 417 543 q 304 523 340 543 q 253 474 268 503 l 253 0 l 81 0 l 81 694 m 301 1008 q 457 953 399 1008 q 515 815 515 897 l 397 815 q 372 881 397 857 q 301 904 346 904 q 231 881 257 904 q 206 815 206 857 l 88 815 q 114 913 88 868 q 189 983 140 957 q 301 1008 238 1008 z "},"ṟ":{"ha":458,"x_min":-61,"x_max":456,"o":"m 81 694 l 242 694 l 246 621 q 324 682 276 656 q 425 708 372 708 q 456 706 442 708 l 443 536 q 383 543 417 543 q 304 523 340 543 q 253 474 268 503 l 253 0 l 81 0 l 81 694 m -61 -126 l 394 -126 l 394 -239 l -61 -239 l -61 -126 z "},"s":{"ha":588,"x_min":43,"x_max":550,"o":"m 278 -14 q 156 -1 211 -14 q 43 38 101 11 l 58 185 q 167 133 117 150 q 272 115 218 115 q 378 185 378 115 q 350 242 378 222 q 250 290 322 263 q 99 376 147 328 q 50 506 50 424 q 119 652 50 596 q 307 708 189 708 q 522 654 425 708 l 507 507 q 408 563 454 543 q 310 582 361 582 q 241 564 265 582 q 217 513 217 546 q 231 469 217 486 q 272 440 246 453 q 360 403 299 426 q 506 317 461 364 q 550 193 550 271 q 479 40 550 94 q 278 -14 408 -14 z "},"ś":{"ha":588,"x_min":43,"x_max":550,"o":"m 278 -14 q 156 -1 211 -14 q 43 38 101 11 l 58 185 q 167 133 117 150 q 272 115 218 115 q 378 185 378 115 q 350 242 378 222 q 250 290 322 263 q 99 376 147 328 q 50 506 50 424 q 119 652 50 596 q 307 708 189 708 q 522 654 425 708 l 507 507 q 408 563 454 543 q 310 582 361 582 q 241 564 265 582 q 217 513 217 546 q 231 469 217 486 q 272 440 246 453 q 360 403 299 426 q 506 317 461 364 q 550 193 550 271 q 479 40 550 94 q 278 -14 408 -14 m 169 901 l 443 1057 l 443 897 l 169 792 l 169 901 z "},"ṥ":{"ha":588,"x_min":43,"x_max":550,"o":"m 278 -14 q 156 -1 211 -14 q 43 38 101 11 l 58 185 q 167 133 117 150 q 272 115 218 115 q 378 185 378 115 q 350 242 378 222 q 250 290 322 263 q 99 376 147 328 q 50 506 50 424 q 119 652 50 596 q 307 708 189 708 q 522 654 425 708 l 507 507 q 408 563 454 543 q 310 582 361 582 q 241 564 265 582 q 217 513 217 546 q 231 469 217 486 q 272 440 246 453 q 360 403 299 426 q 506 317 461 364 q 550 193 550 271 q 479 40 550 94 q 278 -14 408 -14 m 169 872 l 443 1004 l 443 857 l 169 776 l 169 872 m 233 1196 l 378 1196 l 378 1061 l 233 1061 l 233 1196 z "},"š":{"ha":588,"x_min":43,"x_max":550,"o":"m 278 -14 q 156 -1 211 -14 q 43 38 101 11 l 58 185 q 167 133 117 150 q 272 115 218 115 q 378 185 378 115 q 350 242 378 222 q 250 290 322 263 q 99 376 147 328 q 50 506 50 424 q 119 652 50 596 q 307 708 189 708 q 522 654 425 708 l 507 507 q 408 563 454 543 q 310 582 361 582 q 241 564 265 582 q 217 513 217 546 q 231 469 217 486 q 272 440 246 453 q 360 403 299 426 q 506 317 461 364 q 550 193 550 271 q 479 40 550 94 q 278 -14 408 -14 m 122 932 l 122 1042 l 306 926 l 489 1042 l 489 932 l 306 776 l 122 932 z "},"ṧ":{"ha":588,"x_min":43,"x_max":550,"o":"m 278 -14 q 156 -1 211 -14 q 43 38 101 11 l 58 185 q 167 133 117 150 q 272 115 218 115 q 378 185 378 115 q 350 242 378 222 q 250 290 322 263 q 99 376 147 328 q 50 506 50 424 q 119 652 50 596 q 307 708 189 708 q 522 654 425 708 l 507 507 q 408 563 454 543 q 310 582 361 582 q 241 564 265 582 q 217 513 217 546 q 231 469 217 486 q 272 440 246 453 q 360 403 299 426 q 506 317 461 364 q 550 193 550 271 q 479 40 550 94 q 278 -14 408 -14 m 122 925 l 122 1028 l 306 928 l 489 1028 l 489 925 l 306 797 l 122 925 m 233 1214 l 378 1214 l 378 1079 l 233 1079 l 233 1214 z "},"ş":{"ha":588,"x_min":43,"x_max":550,"o":"m 550 193 q 492 51 550 104 q 326 -11 435 -1 l 308 -75 l 311 -75 q 407 -107 372 -75 q 442 -196 442 -139 q 397 -297 442 -261 q 285 -332 353 -332 q 171 -306 221 -332 l 197 -224 q 288 -247 247 -247 q 335 -235 318 -247 q 353 -201 353 -224 q 282 -153 353 -153 q 215 -162 250 -153 l 251 -14 q 43 38 143 -8 l 58 185 q 167 133 117 150 q 272 115 218 115 q 378 185 378 115 q 350 242 378 222 q 250 290 322 263 q 99 376 147 328 q 50 506 50 424 q 119 652 50 596 q 307 708 189 708 q 522 654 425 708 l 507 507 q 408 563 454 543 q 310 582 361 582 q 241 564 265 582 q 217 513 217 546 q 231 469 217 486 q 272 440 246 453 q 360 403 299 426 q 506 317 461 364 q 550 193 550 271 z "},"ŝ":{"ha":588,"x_min":43,"x_max":550,"o":"m 278 -14 q 156 -1 211 -14 q 43 38 101 11 l 58 185 q 167 133 117 150 q 272 115 218 115 q 378 185 378 115 q 350 242 378 222 q 250 290 322 263 q 99 376 147 328 q 50 506 50 424 q 119 652 50 596 q 307 708 189 708 q 522 654 425 708 l 507 507 q 408 563 454 543 q 310 582 361 582 q 241 564 265 582 q 217 513 217 546 q 231 469 217 486 q 272 440 246 453 q 360 403 299 426 q 506 317 461 364 q 550 193 550 271 q 479 40 550 94 q 278 -14 408 -14 m 122 879 l 306 1035 l 489 879 l 489 769 l 306 885 l 122 769 l 122 879 z "},"ș":{"ha":588,"x_min":43,"x_max":550,"o":"m 278 -14 q 156 -1 211 -14 q 43 38 101 11 l 58 185 q 167 133 117 150 q 272 115 218 115 q 378 185 378 115 q 350 242 378 222 q 250 290 322 263 q 99 376 147 328 q 50 506 50 424 q 119 652 50 596 q 307 708 189 708 q 522 654 425 708 l 507 507 q 408 563 454 543 q 310 582 361 582 q 241 564 265 582 q 217 513 217 546 q 231 469 217 486 q 272 440 246 453 q 360 403 299 426 q 506 317 461 364 q 550 193 550 271 q 479 40 550 94 q 278 -14 408 -14 m 217 -436 l 269 -283 l 206 -283 l 206 -126 l 376 -126 l 376 -267 l 290 -436 l 217 -436 z "},"ṡ":{"ha":588,"x_min":43,"x_max":550,"o":"m 278 -14 q 156 -1 211 -14 q 43 38 101 11 l 58 185 q 167 133 117 150 q 272 115 218 115 q 378 185 378 115 q 350 242 378 222 q 250 290 322 263 q 99 376 147 328 q 50 506 50 424 q 119 652 50 596 q 307 708 189 708 q 522 654 425 708 l 507 507 q 408 563 454 543 q 310 582 361 582 q 241 564 265 582 q 217 513 217 546 q 231 469 217 486 q 272 440 246 453 q 360 403 299 426 q 506 317 461 364 q 550 193 550 271 q 479 40 550 94 q 278 -14 408 -14 m 233 971 l 378 971 l 378 836 l 233 836 l 233 971 z "},"ṣ":{"ha":588,"x_min":43,"x_max":550,"o":"m 278 -14 q 156 -1 211 -14 q 43 38 101 11 l 58 185 q 167 133 117 150 q 272 115 218 115 q 378 185 378 115 q 350 242 378 222 q 250 290 322 263 q 99 376 147 328 q 50 506 50 424 q 119 652 50 596 q 307 708 189 708 q 522 654 425 708 l 507 507 q 408 563 454 543 q 310 582 361 582 q 241 564 265 582 q 217 513 217 546 q 231 469 217 486 q 272 440 246 453 q 360 403 299 426 q 506 317 461 364 q 550 193 550 271 q 479 40 550 94 q 278 -14 408 -14 m 217 -112 l 361 -112 l 361 -247 l 217 -247 l 217 -112 z "},"ṩ":{"ha":588,"x_min":43,"x_max":550,"o":"m 278 -14 q 156 -1 211 -14 q 43 38 101 11 l 58 185 q 167 133 117 150 q 272 115 218 115 q 378 185 378 115 q 350 242 378 222 q 250 290 322 263 q 99 376 147 328 q 50 506 50 424 q 119 652 50 596 q 307 708 189 708 q 522 654 425 708 l 507 507 q 408 563 454 543 q 310 582 361 582 q 241 564 265 582 q 217 513 217 546 q 231 469 217 486 q 272 440 246 453 q 360 403 299 426 q 506 317 461 364 q 550 193 550 271 q 479 40 550 94 q 278 -14 408 -14 m 233 971 l 378 971 l 378 836 l 233 836 l 233 971 m 217 -112 l 361 -112 l 361 -247 l 217 -247 l 217 -112 z "},"ß":{"ha":875,"x_min":22,"x_max":847,"o":"m 519 -19 q 382 -7 453 -19 l 382 135 q 521 122 451 122 q 631 151 590 122 q 671 232 671 181 q 640 314 671 282 q 544 386 608 346 q 450 458 481 426 q 419 539 419 490 q 441 610 419 579 q 521 697 463 640 q 576 761 561 736 q 592 822 592 786 q 556 893 592 867 q 457 919 521 919 q 335 872 376 919 q 293 739 293 825 l 293 0 l 121 0 l 121 553 l 22 553 l 38 694 l 121 694 l 121 736 q 213 978 121 896 q 460 1061 304 1061 q 681 1001 597 1061 q 764 838 764 940 q 751 759 764 792 q 717 703 738 726 q 653 640 696 679 q 608 592 621 611 q 596 551 596 572 q 617 505 596 525 q 688 454 639 485 q 769 397 738 422 q 824 330 801 371 q 847 235 847 289 q 802 94 847 151 q 682 9 757 38 q 519 -19 607 -19 z "},"t":{"ha":478,"x_min":22,"x_max":446,"o":"m 307 -14 q 168 40 215 -14 q 121 168 121 93 l 121 553 l 22 553 l 38 694 l 121 694 l 121 847 l 293 865 l 293 694 l 446 694 l 446 553 l 293 553 l 293 239 q 299 162 293 183 q 326 134 306 140 q 399 128 346 128 l 446 128 l 431 -14 l 307 -14 z "},"ŧ":{"ha":478,"x_min":22,"x_max":446,"o":"m 293 553 l 293 426 l 439 426 l 439 311 l 293 311 l 293 239 q 299 162 293 183 q 326 134 306 140 q 399 128 346 128 l 446 128 l 431 -14 l 307 -14 q 168 40 215 -14 q 121 168 121 93 l 121 311 l 22 311 l 22 426 l 121 426 l 121 553 l 22 553 l 38 694 l 121 694 l 121 847 l 293 865 l 293 694 l 446 694 l 446 553 l 293 553 z "},"ť":{"ha":478,"x_min":22,"x_max":494,"o":"m 307 -14 q 168 40 215 -14 q 121 168 121 93 l 121 553 l 22 553 l 38 694 l 121 694 l 121 847 l 293 865 l 293 694 l 446 694 l 446 553 l 293 553 l 293 239 q 299 162 293 183 q 326 134 306 140 q 399 128 346 128 l 446 128 l 431 -14 l 307 -14 m 357 1003 l 494 1003 l 454 757 l 357 757 l 357 1003 z "},"ţ":{"ha":478,"x_min":22,"x_max":468,"o":"m 338 -75 q 433 -107 399 -75 q 468 -196 468 -139 q 424 -297 468 -261 q 311 -332 379 -332 q 197 -306 247 -332 l 224 -224 q 314 -247 274 -247 q 362 -235 344 -247 q 379 -201 379 -224 q 308 -153 379 -153 q 242 -162 276 -153 l 278 -12 q 160 48 200 -4 q 121 168 121 100 l 121 553 l 22 553 l 38 694 l 121 694 l 121 847 l 293 865 l 293 694 l 446 694 l 446 553 l 293 553 l 293 239 q 299 162 293 183 q 326 134 306 140 q 399 128 346 128 l 446 128 l 431 -14 l 353 -14 l 335 -75 l 338 -75 z "},"ț":{"ha":478,"x_min":22,"x_max":446,"o":"m 307 -14 q 168 40 215 -14 q 121 168 121 93 l 121 553 l 22 553 l 38 694 l 121 694 l 121 847 l 293 865 l 293 694 l 446 694 l 446 553 l 293 553 l 293 239 q 299 162 293 183 q 326 134 306 140 q 399 128 346 128 l 446 128 l 431 -14 l 307 -14 m 243 -436 l 296 -283 l 232 -283 l 232 -126 l 403 -126 l 403 -267 l 317 -436 l 243 -436 z "},"ẗ":{"ha":478,"x_min":1,"x_max":446,"o":"m 307 -14 q 168 40 215 -14 q 121 168 121 93 l 121 553 l 22 553 l 38 694 l 121 694 l 121 847 l 293 865 l 293 694 l 446 694 l 446 553 l 293 553 l 293 239 q 299 162 293 183 q 326 134 306 140 q 399 128 346 128 l 446 128 l 431 -14 l 307 -14 m 1 1101 l 135 1101 l 135 976 l 1 976 l 1 1101 m 282 1101 l 415 1101 l 415 976 l 282 976 l 282 1101 z "},"ṭ":{"ha":478,"x_min":22,"x_max":446,"o":"m 307 -14 q 168 40 215 -14 q 121 168 121 93 l 121 553 l 22 553 l 38 694 l 121 694 l 121 847 l 293 865 l 293 694 l 446 694 l 446 553 l 293 553 l 293 239 q 299 162 293 183 q 326 134 306 140 q 399 128 346 128 l 446 128 l 431 -14 l 307 -14 m 243 -112 l 388 -112 l 388 -247 l 243 -247 l 243 -112 z "},"ṯ":{"ha":478,"x_min":22,"x_max":543,"o":"m 307 -14 q 168 40 215 -14 q 121 168 121 93 l 121 553 l 22 553 l 38 694 l 121 694 l 121 847 l 293 865 l 293 694 l 446 694 l 446 553 l 293 553 l 293 239 q 299 162 293 183 q 326 134 306 140 q 399 128 346 128 l 446 128 l 431 -14 l 307 -14 m 88 -126 l 543 -126 l 543 -239 l 88 -239 l 88 -126 z "},"u":{"ha":767,"x_min":74,"x_max":686,"o":"m 368 -14 q 144 75 214 -14 q 74 321 74 164 l 74 694 l 246 694 l 246 321 q 278 177 246 224 q 383 131 311 131 q 514 189 464 131 l 514 694 l 686 694 l 686 0 l 525 0 l 522 42 q 449 2 490 18 q 368 -14 407 -14 z "},"ú":{"ha":767,"x_min":74,"x_max":686,"o":"m 368 -14 q 144 75 214 -14 q 74 321 74 164 l 74 694 l 246 694 l 246 321 q 278 177 246 224 q 383 131 311 131 q 514 189 464 131 l 514 694 l 686 694 l 686 0 l 525 0 l 522 42 q 449 2 490 18 q 368 -14 407 -14 m 247 901 l 521 1057 l 521 897 l 247 792 l 247 901 z "},"ŭ":{"ha":767,"x_min":74,"x_max":686,"o":"m 368 -14 q 144 75 214 -14 q 74 321 74 164 l 74 694 l 246 694 l 246 321 q 278 177 246 224 q 383 131 311 131 q 514 189 464 131 l 514 694 l 686 694 l 686 0 l 525 0 l 522 42 q 449 2 490 18 q 368 -14 407 -14 m 383 815 q 271 841 319 815 q 196 911 222 867 q 169 1008 169 956 l 288 1008 q 313 943 288 967 q 383 919 339 919 q 453 943 428 919 q 479 1008 479 967 l 597 1008 q 539 871 597 926 q 383 815 481 815 z "},"û":{"ha":767,"x_min":74,"x_max":686,"o":"m 368 -14 q 144 75 214 -14 q 74 321 74 164 l 74 694 l 246 694 l 246 321 q 278 177 246 224 q 383 131 311 131 q 514 189 464 131 l 514 694 l 686 694 l 686 0 l 525 0 l 522 42 q 449 2 490 18 q 368 -14 407 -14 m 200 879 l 383 1035 l 567 879 l 567 769 l 383 885 l 200 769 l 200 879 z "},"ȕ":{"ha":767,"x_min":74,"x_max":686,"o":"m 368 -14 q 144 75 214 -14 q 74 321 74 164 l 74 694 l 246 694 l 246 321 q 278 177 246 224 q 383 131 311 131 q 514 189 464 131 l 514 694 l 686 694 l 686 0 l 525 0 l 522 42 q 449 2 490 18 q 368 -14 407 -14 m 235 817 l 85 1063 l 244 1063 l 344 817 l 235 817 m 439 817 l 300 1063 l 460 1063 l 549 817 l 439 817 z "},"ü":{"ha":767,"x_min":74,"x_max":686,"o":"m 368 -14 q 144 75 214 -14 q 74 321 74 164 l 74 694 l 246 694 l 246 321 q 278 177 246 224 q 383 131 311 131 q 514 189 464 131 l 514 694 l 686 694 l 686 0 l 525 0 l 522 42 q 449 2 490 18 q 368 -14 407 -14 m 176 946 l 310 946 l 310 821 l 176 821 l 176 946 m 457 946 l 590 946 l 590 821 l 457 821 l 457 946 z "},"ụ":{"ha":767,"x_min":74,"x_max":686,"o":"m 368 -14 q 144 75 214 -14 q 74 321 74 164 l 74 694 l 246 694 l 246 321 q 278 177 246 224 q 383 131 311 131 q 514 189 464 131 l 514 694 l 686 694 l 686 0 l 525 0 l 522 42 q 449 2 490 18 q 368 -14 407 -14 m 311 -112 l 456 -112 l 456 -247 l 311 -247 l 311 -112 z "},"ù":{"ha":767,"x_min":74,"x_max":686,"o":"m 368 -14 q 144 75 214 -14 q 74 321 74 164 l 74 694 l 246 694 l 246 321 q 278 177 246 224 q 383 131 311 131 q 514 189 464 131 l 514 694 l 686 694 l 686 0 l 525 0 l 522 42 q 449 2 490 18 q 368 -14 407 -14 m 246 897 l 246 1057 l 519 901 l 519 792 l 246 897 z "},"ủ":{"ha":767,"x_min":74,"x_max":686,"o":"m 368 -14 q 144 75 214 -14 q 74 321 74 164 l 74 694 l 246 694 l 246 321 q 278 177 246 224 q 383 131 311 131 q 514 189 464 131 l 514 694 l 686 694 l 686 0 l 525 0 l 522 42 q 449 2 490 18 q 368 -14 407 -14 m 354 793 q 399 839 386 821 q 413 881 413 857 q 399 914 413 903 q 361 925 385 925 q 276 899 325 925 l 253 983 q 364 1010 306 1010 q 463 976 424 1010 q 501 886 501 943 q 478 810 501 843 q 406 742 456 778 l 354 793 z "},"ư":{"ha":767,"x_min":74,"x_max":850,"o":"m 850 797 q 804 672 850 725 q 686 596 758 619 l 686 0 l 525 0 l 522 42 q 449 2 490 18 q 368 -14 407 -14 q 144 75 214 -14 q 74 321 74 164 l 74 694 l 246 694 l 246 321 q 278 177 246 224 q 383 131 311 131 q 514 189 464 131 l 514 694 l 592 694 q 703 797 703 694 l 850 797 z "},"ứ":{"ha":767,"x_min":74,"x_max":850,"o":"m 850 797 q 804 672 850 725 q 686 596 758 619 l 686 0 l 525 0 l 522 42 q 449 2 490 18 q 368 -14 407 -14 q 144 75 214 -14 q 74 321 74 164 l 74 694 l 246 694 l 246 321 q 278 177 246 224 q 383 131 311 131 q 514 189 464 131 l 514 694 l 592 694 q 703 797 703 694 l 850 797 m 247 901 l 521 1057 l 521 897 l 247 792 l 247 901 z "},"ự":{"ha":767,"x_min":74,"x_max":850,"o":"m 850 797 q 804 672 850 725 q 686 596 758 619 l 686 0 l 525 0 l 522 42 q 449 2 490 18 q 368 -14 407 -14 q 144 75 214 -14 q 74 321 74 164 l 74 694 l 246 694 l 246 321 q 278 177 246 224 q 383 131 311 131 q 514 189 464 131 l 514 694 l 592 694 q 703 797 703 694 l 850 797 m 311 -112 l 456 -112 l 456 -247 l 311 -247 l 311 -112 z "},"ừ":{"ha":767,"x_min":74,"x_max":850,"o":"m 850 797 q 804 672 850 725 q 686 596 758 619 l 686 0 l 525 0 l 522 42 q 449 2 490 18 q 368 -14 407 -14 q 144 75 214 -14 q 74 321 74 164 l 74 694 l 246 694 l 246 321 q 278 177 246 224 q 383 131 311 131 q 514 189 464 131 l 514 694 l 592 694 q 703 797 703 694 l 850 797 m 246 897 l 246 1057 l 519 901 l 519 792 l 246 897 z "},"ử":{"ha":767,"x_min":74,"x_max":850,"o":"m 850 797 q 804 672 850 725 q 686 596 758 619 l 686 0 l 525 0 l 522 42 q 449 2 490 18 q 368 -14 407 -14 q 144 75 214 -14 q 74 321 74 164 l 74 694 l 246 694 l 246 321 q 278 177 246 224 q 383 131 311 131 q 514 189 464 131 l 514 694 l 592 694 q 703 797 703 694 l 850 797 m 354 793 q 399 839 386 821 q 413 881 413 857 q 399 914 413 903 q 361 925 385 925 q 276 899 325 925 l 253 983 q 364 1010 306 1010 q 463 976 424 1010 q 501 886 501 943 q 478 810 501 843 q 406 742 456 778 l 354 793 z "},"ữ":{"ha":767,"x_min":74,"x_max":850,"o":"m 850 797 q 804 672 850 725 q 686 596 758 619 l 686 0 l 525 0 l 522 42 q 449 2 490 18 q 368 -14 407 -14 q 144 75 214 -14 q 74 321 74 164 l 74 694 l 246 694 l 246 321 q 278 177 246 224 q 383 131 311 131 q 514 189 464 131 l 514 694 l 592 694 q 703 797 703 694 l 850 797 m 501 803 q 455 811 478 803 q 399 835 432 819 q 349 856 369 849 q 311 864 329 864 q 276 851 289 864 q 264 814 264 838 l 146 814 q 179 939 149 896 q 265 982 210 982 q 312 974 289 982 q 368 950 335 965 q 417 928 397 936 q 456 921 438 921 q 490 934 478 921 q 503 971 503 947 l 621 971 q 588 846 618 889 q 501 803 557 803 z "},"ű":{"ha":767,"x_min":74,"x_max":701,"o":"m 368 -14 q 144 75 214 -14 q 74 321 74 164 l 74 694 l 246 694 l 246 321 q 278 177 246 224 q 383 131 311 131 q 514 189 464 131 l 514 694 l 686 694 l 686 0 l 525 0 l 522 42 q 449 2 490 18 q 368 -14 407 -14 m 326 1063 l 486 1063 l 331 817 l 221 817 l 326 1063 m 542 1063 l 701 1063 l 535 817 l 425 817 l 542 1063 z "},"ȗ":{"ha":767,"x_min":74,"x_max":686,"o":"m 368 -14 q 144 75 214 -14 q 74 321 74 164 l 74 694 l 246 694 l 246 321 q 278 177 246 224 q 383 131 311 131 q 514 189 464 131 l 514 694 l 686 694 l 686 0 l 525 0 l 522 42 q 449 2 490 18 q 368 -14 407 -14 m 383 1008 q 539 953 481 1008 q 597 815 597 897 l 479 815 q 453 881 479 857 q 383 904 428 904 q 313 881 339 904 q 288 815 288 857 l 169 815 q 196 913 169 868 q 271 983 222 957 q 383 1008 319 1008 z "},"ū":{"ha":767,"x_min":74,"x_max":686,"o":"m 368 -14 q 144 75 214 -14 q 74 321 74 164 l 74 694 l 246 694 l 246 321 q 278 177 246 224 q 383 131 311 131 q 514 189 464 131 l 514 694 l 686 694 l 686 0 l 525 0 l 522 42 q 449 2 490 18 q 368 -14 407 -14 m 156 947 l 611 947 l 611 835 l 156 835 l 156 947 z "},"ṻ":{"ha":767,"x_min":74,"x_max":686,"o":"m 368 -14 q 144 75 214 -14 q 74 321 74 164 l 74 694 l 246 694 l 246 321 q 278 177 246 224 q 383 131 311 131 q 514 189 464 131 l 514 694 l 686 694 l 686 0 l 525 0 l 522 42 q 449 2 490 18 q 368 -14 407 -14 m 156 929 l 611 929 l 611 824 l 156 824 l 156 929 m 176 1168 l 310 1168 l 310 1049 l 176 1049 l 176 1168 m 457 1168 l 590 1168 l 590 1049 l 457 1049 l 457 1168 z "},"ų":{"ha":767,"x_min":74,"x_max":753,"o":"m 753 -265 q 632 -293 700 -293 q 530 -261 569 -293 q 490 -171 490 -229 q 522 -76 490 -121 q 600 0 554 -32 l 525 0 l 522 42 q 449 2 490 18 q 368 -14 407 -14 q 144 75 214 -14 q 74 321 74 164 l 74 694 l 246 694 l 246 321 q 278 177 246 224 q 383 131 311 131 q 514 189 464 131 l 514 694 l 686 694 l 686 0 q 606 -75 633 -40 q 579 -144 579 -110 q 597 -192 579 -176 q 646 -208 615 -208 q 729 -189 688 -208 l 753 -265 z "},"ů":{"ha":767,"x_min":74,"x_max":686,"o":"m 368 -14 q 144 75 214 -14 q 74 321 74 164 l 74 694 l 246 694 l 246 321 q 278 177 246 224 q 383 131 311 131 q 514 189 464 131 l 514 694 l 686 694 l 686 0 l 525 0 l 522 42 q 449 2 490 18 q 368 -14 407 -14 m 383 792 q 278 831 318 792 q 239 926 239 869 q 278 1023 239 983 q 383 1063 318 1063 q 488 1023 449 1063 q 528 926 528 983 q 488 831 528 869 q 383 792 449 792 m 383 864 q 427 881 410 864 q 444 926 444 899 q 427 971 444 953 q 383 989 410 989 q 340 971 357 989 q 322 926 322 953 q 340 881 322 899 q 383 864 357 864 z "},"ũ":{"ha":767,"x_min":74,"x_max":686,"o":"m 368 -14 q 144 75 214 -14 q 74 321 74 164 l 74 694 l 246 694 l 246 321 q 278 177 246 224 q 383 131 311 131 q 514 189 464 131 l 514 694 l 686 694 l 686 0 l 525 0 l 522 42 q 449 2 490 18 q 368 -14 407 -14 m 501 803 q 455 811 478 803 q 399 835 432 819 q 349 856 369 849 q 311 864 329 864 q 276 851 289 864 q 264 814 264 838 l 146 814 q 179 939 149 896 q 265 982 210 982 q 312 974 289 982 q 368 950 335 965 q 417 928 397 936 q 456 921 438 921 q 490 934 478 921 q 503 971 503 947 l 621 971 q 588 846 618 889 q 501 803 557 803 z "},"ṹ":{"ha":767,"x_min":74,"x_max":686,"o":"m 368 -14 q 144 75 214 -14 q 74 321 74 164 l 74 694 l 246 694 l 246 321 q 278 177 246 224 q 383 131 311 131 q 514 189 464 131 l 514 694 l 686 694 l 686 0 l 525 0 l 522 42 q 449 2 490 18 q 368 -14 407 -14 m 504 801 q 459 809 482 801 q 397 833 436 817 q 360 848 390 836 q 310 860 331 860 q 264 811 264 860 l 158 811 q 263 957 158 957 q 308 949 285 957 q 369 925 331 942 q 406 910 376 922 q 457 899 436 899 q 503 947 503 899 l 608 947 q 504 801 608 801 m 247 1100 l 521 1232 l 521 1085 l 247 1004 l 247 1100 z "},"v":{"ha":689,"x_min":4,"x_max":685,"o":"m 4 694 l 174 694 l 344 214 l 515 694 l 685 694 l 418 0 l 271 0 l 4 694 z "},"w":{"ha":1008,"x_min":14,"x_max":994,"o":"m 14 694 l 182 694 l 301 210 l 432 681 l 576 681 l 706 210 l 826 694 l 994 694 l 792 0 l 647 0 l 504 453 l 361 0 l 217 0 l 14 694 z "},"ẃ":{"ha":1008,"x_min":14,"x_max":994,"o":"m 14 694 l 182 694 l 301 210 l 432 681 l 576 681 l 706 210 l 826 694 l 994 694 l 792 0 l 647 0 l 504 453 l 361 0 l 217 0 l 14 694 m 368 901 l 642 1057 l 642 897 l 368 792 l 368 901 z "},"ŵ":{"ha":1008,"x_min":14,"x_max":994,"o":"m 14 694 l 182 694 l 301 210 l 432 681 l 576 681 l 706 210 l 826 694 l 994 694 l 792 0 l 647 0 l 504 453 l 361 0 l 217 0 l 14 694 m 321 879 l 504 1035 l 688 879 l 688 769 l 504 885 l 321 769 l 321 879 z "},"ẅ":{"ha":1008,"x_min":14,"x_max":994,"o":"m 14 694 l 182 694 l 301 210 l 432 681 l 576 681 l 706 210 l 826 694 l 994 694 l 792 0 l 647 0 l 504 453 l 361 0 l 217 0 l 14 694 m 297 946 l 431 946 l 431 821 l 297 821 l 297 946 m 578 946 l 711 946 l 711 821 l 578 821 l 578 946 z "},"ẁ":{"ha":1008,"x_min":14,"x_max":994,"o":"m 14 694 l 182 694 l 301 210 l 432 681 l 576 681 l 706 210 l 826 694 l 994 694 l 792 0 l 647 0 l 504 453 l 361 0 l 217 0 l 14 694 m 367 897 l 367 1057 l 640 901 l 640 792 l 367 897 z "},"x":{"ha":682,"x_min":14,"x_max":668,"o":"m 244 347 l 14 694 l 219 694 l 346 493 l 463 694 l 668 694 l 438 347 l 668 0 l 463 0 l 336 201 l 219 0 l 14 0 l 244 347 z "},"y":{"ha":746,"x_min":1,"x_max":743,"o":"m 290 46 l 1 694 l 193 694 l 371 247 l 551 694 l 743 694 l 308 -336 l 136 -336 l 290 46 z "},"ý":{"ha":746,"x_min":1,"x_max":743,"o":"m 290 46 l 1 694 l 193 694 l 371 247 l 551 694 l 743 694 l 308 -336 l 136 -336 l 290 46 m 236 901 l 510 1057 l 510 897 l 236 792 l 236 901 z "},"ŷ":{"ha":746,"x_min":1,"x_max":743,"o":"m 290 46 l 1 694 l 193 694 l 371 247 l 551 694 l 743 694 l 308 -336 l 136 -336 l 290 46 m 189 879 l 372 1035 l 556 879 l 556 769 l 372 885 l 189 769 l 189 879 z "},"ÿ":{"ha":746,"x_min":1,"x_max":743,"o":"m 290 46 l 1 694 l 193 694 l 371 247 l 551 694 l 743 694 l 308 -336 l 136 -336 l 290 46 m 165 946 l 299 946 l 299 821 l 165 821 l 165 946 m 446 946 l 579 946 l 579 821 l 446 821 l 446 946 z "},"ẏ":{"ha":746,"x_min":1,"x_max":743,"o":"m 290 46 l 1 694 l 193 694 l 371 247 l 551 694 l 743 694 l 308 -336 l 136 -336 l 290 46 m 300 971 l 444 971 l 444 836 l 300 836 l 300 971 z "},"ỵ":{"ha":746,"x_min":1,"x_max":743,"o":"m 290 46 l 1 694 l 193 694 l 371 247 l 551 694 l 743 694 l 308 -336 l 136 -336 l 290 46 m 483 -112 l 628 -112 l 628 -247 l 483 -247 l 483 -112 z "},"ỳ":{"ha":746,"x_min":1,"x_max":743,"o":"m 290 46 l 1 694 l 193 694 l 371 247 l 551 694 l 743 694 l 308 -336 l 136 -336 l 290 46 m 235 897 l 235 1057 l 508 901 l 508 792 l 235 897 z "},"ỷ":{"ha":746,"x_min":1,"x_max":743,"o":"m 290 46 l 1 694 l 193 694 l 371 247 l 551 694 l 743 694 l 308 -336 l 136 -336 l 290 46 m 343 793 q 388 839 375 821 q 401 881 401 857 q 388 914 401 903 q 350 925 374 925 q 265 899 314 925 l 242 983 q 353 1010 294 1010 q 451 976 413 1010 q 490 886 490 943 q 467 810 490 843 q 394 742 444 778 l 343 793 z "},"ȳ":{"ha":746,"x_min":1,"x_max":743,"o":"m 290 46 l 1 694 l 193 694 l 371 247 l 551 694 l 743 694 l 308 -336 l 136 -336 l 290 46 m 144 947 l 600 947 l 600 835 l 144 835 l 144 947 z "}}}
